%TF.GenerationSoftware,KiCad,Pcbnew,9.0.6*%
%TF.CreationDate,2026-01-08T22:49:20+05:30*%
%TF.ProjectId,USB_PD_Trigger,5553425f-5044-45f5-9472-69676765722e,rev?*%
%TF.SameCoordinates,Original*%
%TF.FileFunction,Copper,L2,Bot*%
%TF.FilePolarity,Positive*%
%FSLAX46Y46*%
G04 Gerber Fmt 4.6, Leading zero omitted, Abs format (unit mm)*
G04 Created by KiCad (PCBNEW 9.0.6) date 2026-01-08 22:49:20*
%MOMM*%
%LPD*%
G01*
G04 APERTURE LIST*
G04 Aperture macros list*
%AMRoundRect*
0 Rectangle with rounded corners*
0 $1 Rounding radius*
0 $2 $3 $4 $5 $6 $7 $8 $9 X,Y pos of 4 corners*
0 Add a 4 corners polygon primitive as box body*
4,1,4,$2,$3,$4,$5,$6,$7,$8,$9,$2,$3,0*
0 Add four circle primitives for the rounded corners*
1,1,$1+$1,$2,$3*
1,1,$1+$1,$4,$5*
1,1,$1+$1,$6,$7*
1,1,$1+$1,$8,$9*
0 Add four rect primitives between the rounded corners*
20,1,$1+$1,$2,$3,$4,$5,0*
20,1,$1+$1,$4,$5,$6,$7,0*
20,1,$1+$1,$6,$7,$8,$9,0*
20,1,$1+$1,$8,$9,$2,$3,0*%
%AMFreePoly0*
4,1,153,0.106581,0.254743,0.108810,0.254000,0.110000,0.254000,0.111581,0.253743,0.113810,0.253000,0.115000,0.253000,0.116581,0.252743,0.119581,0.251743,0.120236,0.251472,0.121920,0.250630,0.124581,0.249743,0.126536,0.248536,0.127964,0.247108,0.129236,0.246472,0.130536,0.245536,0.131964,0.244108,0.133236,0.243472,0.134536,0.242536,0.142536,0.234536,0.143472,0.233236,
0.144108,0.231964,0.145536,0.230536,0.146472,0.229236,0.147108,0.227964,0.148536,0.226536,0.149743,0.224581,0.150630,0.221920,0.151472,0.220236,0.151743,0.219581,0.152743,0.216581,0.153000,0.215000,0.153000,0.213810,0.153743,0.211581,0.154000,0.210000,0.154000,0.208810,0.154743,0.206581,0.155000,0.205000,0.155000,-0.205000,0.154743,-0.206581,0.154000,-0.208810,
0.154000,-0.210000,0.153743,-0.211581,0.153000,-0.213810,0.153000,-0.215000,0.152743,-0.216581,0.151743,-0.219581,0.151472,-0.220236,0.150630,-0.221920,0.149743,-0.224581,0.148536,-0.226536,0.147108,-0.227964,0.146472,-0.229236,0.145536,-0.230536,0.144108,-0.231964,0.143472,-0.233236,0.142536,-0.234536,0.134536,-0.242536,0.133236,-0.243472,0.131964,-0.244108,0.130536,-0.245536,
0.129236,-0.246472,0.127964,-0.247108,0.126536,-0.248536,0.124581,-0.249743,0.121920,-0.250630,0.120236,-0.251472,0.119581,-0.251743,0.116581,-0.252743,0.115000,-0.253000,0.113810,-0.253000,0.111581,-0.253743,0.110000,-0.254000,0.108810,-0.254000,0.106581,-0.254743,0.105000,-0.255000,-0.105000,-0.255000,-0.106581,-0.254743,-0.108810,-0.254000,-0.110000,-0.254000,-0.111581,-0.253743,
-0.113810,-0.253000,-0.115000,-0.253000,-0.116581,-0.252743,-0.119581,-0.251743,-0.120236,-0.251472,-0.121920,-0.250630,-0.124581,-0.249743,-0.126536,-0.248536,-0.127964,-0.247108,-0.129236,-0.246472,-0.130536,-0.245536,-0.131964,-0.244108,-0.133236,-0.243472,-0.134536,-0.242536,-0.142536,-0.234536,-0.143472,-0.233236,-0.144108,-0.231964,-0.145536,-0.230536,-0.146472,-0.229236,-0.147108,-0.227964,
-0.148536,-0.226536,-0.149743,-0.224581,-0.150630,-0.221920,-0.151472,-0.220236,-0.151743,-0.219581,-0.152743,-0.216581,-0.153000,-0.215000,-0.153000,-0.213810,-0.153743,-0.211581,-0.154000,-0.210000,-0.154000,-0.208810,-0.154743,-0.206581,-0.155000,-0.205000,-0.155000,0.205000,-0.154743,0.206581,-0.154000,0.208810,-0.154000,0.210000,-0.153743,0.211581,-0.153000,0.213810,-0.153000,0.215000,
-0.152743,0.216581,-0.151743,0.219581,-0.151472,0.220236,-0.150630,0.221920,-0.149743,0.224581,-0.148536,0.226536,-0.147108,0.227964,-0.146472,0.229236,-0.145536,0.230536,-0.144108,0.231964,-0.143472,0.233236,-0.142536,0.234536,-0.134536,0.242536,-0.133236,0.243472,-0.131964,0.244108,-0.130536,0.245536,-0.129236,0.246472,-0.127964,0.247108,-0.126536,0.248536,-0.124581,0.249743,
-0.121920,0.250630,-0.120236,0.251472,-0.119581,0.251743,-0.116581,0.252743,-0.115000,0.253000,-0.113810,0.253000,-0.111581,0.253743,-0.110000,0.254000,-0.108810,0.254000,-0.106581,0.254743,-0.105000,0.255000,0.105000,0.255000,0.106581,0.254743,0.106581,0.254743,$1*%
G04 Aperture macros list end*
%TA.AperFunction,SMDPad,CuDef*%
%ADD10R,0.280000X0.250000*%
%TD*%
%TA.AperFunction,ComponentPad*%
%ADD11O,1.803400X0.990600*%
%TD*%
%TA.AperFunction,ComponentPad*%
%ADD12O,2.209800X0.990600*%
%TD*%
%TA.AperFunction,ComponentPad*%
%ADD13R,1.700000X1.700000*%
%TD*%
%TA.AperFunction,ComponentPad*%
%ADD14C,1.700000*%
%TD*%
%TA.AperFunction,ComponentPad*%
%ADD15RoundRect,0.250000X1.050000X-1.050000X1.050000X1.050000X-1.050000X1.050000X-1.050000X-1.050000X0*%
%TD*%
%TA.AperFunction,ComponentPad*%
%ADD16C,2.600000*%
%TD*%
%TA.AperFunction,ComponentPad*%
%ADD17C,1.500000*%
%TD*%
%TA.AperFunction,SMDPad,CuDef*%
%ADD18RoundRect,0.200000X-0.275000X0.200000X-0.275000X-0.200000X0.275000X-0.200000X0.275000X0.200000X0*%
%TD*%
%TA.AperFunction,SMDPad,CuDef*%
%ADD19RoundRect,0.200000X-0.200000X-0.275000X0.200000X-0.275000X0.200000X0.275000X-0.200000X0.275000X0*%
%TD*%
%TA.AperFunction,SMDPad,CuDef*%
%ADD20RoundRect,0.225000X0.225000X0.250000X-0.225000X0.250000X-0.225000X-0.250000X0.225000X-0.250000X0*%
%TD*%
%TA.AperFunction,SMDPad,CuDef*%
%ADD21FreePoly0,180.000000*%
%TD*%
%TA.AperFunction,ViaPad*%
%ADD22C,0.600000*%
%TD*%
%TA.AperFunction,Conductor*%
%ADD23C,0.200000*%
%TD*%
%TA.AperFunction,Conductor*%
%ADD24C,0.152000*%
%TD*%
G04 APERTURE END LIST*
D10*
X128020000Y-102185000D03*
X127580000Y-102185000D03*
X128020000Y-97585000D03*
X127580000Y-97585000D03*
D11*
X130748200Y-95615001D03*
D12*
X126748199Y-95615001D03*
D11*
X130748200Y-104255001D03*
D12*
X126748199Y-104255001D03*
D13*
X128580000Y-110770000D03*
D14*
X128580000Y-108230000D03*
D13*
X154710000Y-117775000D03*
D14*
X154710000Y-115235000D03*
X157250000Y-117775000D03*
X157250000Y-115235000D03*
X159790000Y-117775000D03*
X159790000Y-115235000D03*
X162330000Y-117775000D03*
X162330000Y-115235000D03*
X164870000Y-117775000D03*
X164870000Y-115235000D03*
X167410000Y-117775000D03*
X167410000Y-115235000D03*
X169950000Y-117775000D03*
X169950000Y-115235000D03*
X172490000Y-117775000D03*
X172490000Y-115235000D03*
D15*
X174092500Y-100385000D03*
D16*
X174092500Y-95385000D03*
D13*
X154710000Y-108275000D03*
D14*
X154710000Y-105735000D03*
X157250000Y-108275000D03*
X157250000Y-105735000D03*
X159790000Y-108275000D03*
X159790000Y-105735000D03*
X162330000Y-108275000D03*
X162330000Y-105735000D03*
X164870000Y-108275000D03*
X164870000Y-105735000D03*
X167410000Y-108275000D03*
X167410000Y-105735000D03*
X169950000Y-108275000D03*
X169950000Y-105735000D03*
X172490000Y-108275000D03*
X172490000Y-105735000D03*
D17*
X136920000Y-119585000D03*
D18*
X159820000Y-120200000D03*
X159820000Y-121850000D03*
X154800000Y-120200000D03*
X154800000Y-121850000D03*
X154800000Y-110775000D03*
X154800000Y-112425000D03*
X162320000Y-120200000D03*
X162320000Y-121850000D03*
X162300000Y-110775000D03*
X162300000Y-112425000D03*
X172500000Y-120225000D03*
X172500000Y-121875000D03*
D19*
X137395000Y-98685000D03*
X139045000Y-98685000D03*
D18*
X170020000Y-120225000D03*
X170020000Y-121875000D03*
D19*
X137395000Y-100285000D03*
X139045000Y-100285000D03*
D20*
X152545000Y-105735000D03*
X150995000Y-105735000D03*
D19*
X137395000Y-103485000D03*
X139045000Y-103485000D03*
D18*
X170000000Y-110775000D03*
X170000000Y-112425000D03*
D20*
X152545000Y-115235000D03*
X150995000Y-115235000D03*
D18*
X159900000Y-110775000D03*
X159900000Y-112425000D03*
X172600000Y-110775000D03*
X172600000Y-112425000D03*
X164920000Y-120225000D03*
X164920000Y-121875000D03*
X167500000Y-110775000D03*
X167500000Y-112425000D03*
X164900000Y-110775000D03*
X164900000Y-112425000D03*
X157300000Y-110775000D03*
X157300000Y-112425000D03*
D21*
X128307500Y-100485000D03*
X127607500Y-100485000D03*
X128307500Y-99285000D03*
X127607500Y-99285000D03*
D19*
X137395000Y-101885000D03*
X139045000Y-101885000D03*
D18*
X167420000Y-120225000D03*
X167420000Y-121875000D03*
X157220000Y-120200000D03*
X157220000Y-121850000D03*
D22*
X140320000Y-112585000D03*
X141120000Y-113085000D03*
X132773200Y-101460200D03*
X129820000Y-98685000D03*
X129820000Y-100685000D03*
X132770000Y-99285000D03*
X138570000Y-107635000D03*
X132070000Y-112335000D03*
X142120000Y-113685000D03*
X143720000Y-113885000D03*
X144920000Y-111985000D03*
X143820000Y-112785000D03*
X139520000Y-105485000D03*
D23*
X140320000Y-112585000D02*
X140320000Y-115585000D01*
X164870000Y-115235000D02*
X162330000Y-115235000D01*
X169950000Y-115235000D02*
X167410000Y-115235000D01*
X172490000Y-115235000D02*
X169950000Y-115235000D01*
X152545000Y-115235000D02*
X154710000Y-115235000D01*
X157250000Y-115235000D02*
X154710000Y-115235000D01*
X140320000Y-115585000D02*
X142320000Y-117585000D01*
X167410000Y-115235000D02*
X164870000Y-115235000D01*
X152360000Y-117585000D02*
X154710000Y-115235000D01*
X159790000Y-115235000D02*
X157250000Y-115235000D01*
X162330000Y-115235000D02*
X159790000Y-115235000D01*
X142320000Y-117585000D02*
X152360000Y-117585000D01*
X157250000Y-105735000D02*
X154710000Y-105735000D01*
X152020000Y-108425000D02*
X152020000Y-110085000D01*
X162330000Y-105735000D02*
X159790000Y-105735000D01*
X154710000Y-105735000D02*
X152545000Y-105735000D01*
X152020000Y-110085000D02*
X146920000Y-115185000D01*
X172490000Y-105735000D02*
X169950000Y-105735000D01*
X154710000Y-105735000D02*
X152020000Y-108425000D01*
X169950000Y-105735000D02*
X167410000Y-105735000D01*
X142320000Y-115185000D02*
X141120000Y-113985000D01*
X164870000Y-105735000D02*
X162330000Y-105735000D01*
X159790000Y-105735000D02*
X157250000Y-105735000D01*
X146920000Y-115185000D02*
X142320000Y-115185000D01*
X167410000Y-105735000D02*
X164870000Y-105735000D01*
X141120000Y-113985000D02*
X141120000Y-113085000D01*
D24*
X132849400Y-101536400D02*
X132849400Y-101614522D01*
X132773200Y-101460200D02*
X132849400Y-101536400D01*
D23*
X132420000Y-102185000D02*
X128020000Y-102185000D01*
X134719878Y-103485000D02*
X137395000Y-103485000D01*
X132849400Y-101755600D02*
X132420000Y-102185000D01*
D24*
X132849400Y-101536400D02*
X132849400Y-101755600D01*
D23*
X132849400Y-101614522D02*
X134719878Y-103485000D01*
X129849000Y-98656000D02*
X137366000Y-98656000D01*
D24*
X137366000Y-98656000D02*
X137395000Y-98685000D01*
X129820000Y-98685000D02*
X129849000Y-98656000D01*
D23*
X128720000Y-97585000D02*
X128120000Y-97585000D01*
X129820000Y-98685000D02*
X128720000Y-97585000D01*
X134320000Y-101885000D02*
X133120000Y-100685000D01*
X133120000Y-100685000D02*
X129820000Y-100685000D01*
X137395000Y-101885000D02*
X134320000Y-101885000D01*
X128507500Y-100685000D02*
X128307500Y-100485000D01*
X129820000Y-100685000D02*
X128507500Y-100685000D01*
D24*
X132770000Y-99285000D02*
X133020000Y-99285000D01*
D23*
X132770000Y-99285000D02*
X128307500Y-99285000D01*
X134020000Y-100285000D02*
X137395000Y-100285000D01*
X133020000Y-99285000D02*
X134020000Y-100285000D01*
X167500000Y-110775000D02*
X167500000Y-108365000D01*
D24*
X167500000Y-108365000D02*
X167410000Y-108275000D01*
X172600000Y-108385000D02*
X172490000Y-108275000D01*
D23*
X172600000Y-110775000D02*
X172600000Y-108385000D01*
X170000000Y-110775000D02*
X170000000Y-108325000D01*
D24*
X170000000Y-108325000D02*
X169950000Y-108275000D01*
X159900000Y-108385000D02*
X159790000Y-108275000D01*
D23*
X159900000Y-110775000D02*
X159900000Y-108385000D01*
D24*
X164900000Y-108305000D02*
X164870000Y-108275000D01*
D23*
X164900000Y-110775000D02*
X164900000Y-108305000D01*
X162300000Y-110775000D02*
X162300000Y-108305000D01*
D24*
X162300000Y-108305000D02*
X162330000Y-108275000D01*
X157300000Y-108325000D02*
X157250000Y-108275000D01*
D23*
X157300000Y-110775000D02*
X157300000Y-108325000D01*
X154800000Y-110775000D02*
X154800000Y-108365000D01*
D24*
X154800000Y-108365000D02*
X154710000Y-108275000D01*
X154800000Y-117865000D02*
X154710000Y-117775000D01*
D23*
X154800000Y-120200000D02*
X154800000Y-117865000D01*
D24*
X159820000Y-117805000D02*
X159790000Y-117775000D01*
D23*
X159820000Y-120200000D02*
X159820000Y-117805000D01*
X170020000Y-120225000D02*
X170020000Y-117845000D01*
D24*
X170020000Y-117845000D02*
X169950000Y-117775000D01*
X172500000Y-117785000D02*
X172490000Y-117775000D01*
D23*
X172500000Y-120225000D02*
X172500000Y-117785000D01*
D24*
X164920000Y-117825000D02*
X164870000Y-117775000D01*
D23*
X164920000Y-120225000D02*
X164920000Y-117825000D01*
D24*
X162320000Y-117785000D02*
X162330000Y-117775000D01*
D23*
X162320000Y-120200000D02*
X162320000Y-117785000D01*
X157220000Y-120200000D02*
X157220000Y-117805000D01*
D24*
X157220000Y-117805000D02*
X157250000Y-117775000D01*
D23*
X167420000Y-120225000D02*
X167420000Y-117785000D01*
D24*
X167420000Y-117785000D02*
X167410000Y-117775000D01*
D23*
X134170000Y-107635000D02*
X138570000Y-107635000D01*
X132120000Y-112285000D02*
X132120000Y-109685000D01*
X132120000Y-109685000D02*
X134170000Y-107635000D01*
D24*
X132070000Y-112335000D02*
X132120000Y-112285000D01*
D23*
X140820000Y-103485000D02*
X139045000Y-103485000D01*
X142120000Y-104785000D02*
X140820000Y-103485000D01*
X142120000Y-113685000D02*
X142120000Y-104785000D01*
X146120000Y-113885000D02*
X143720000Y-113885000D01*
X145420000Y-98685000D02*
X147320000Y-100585000D01*
X147320000Y-100585000D02*
X147320000Y-112685000D01*
X139045000Y-98685000D02*
X145420000Y-98685000D01*
X147320000Y-112685000D02*
X146120000Y-113885000D01*
X139045000Y-101885000D02*
X143920000Y-101885000D01*
X143920000Y-101885000D02*
X144920000Y-102885000D01*
X144920000Y-102885000D02*
X144920000Y-111985000D01*
X146120000Y-112185000D02*
X145520000Y-112785000D01*
X139045000Y-100285000D02*
X144620000Y-100285000D01*
X144620000Y-100285000D02*
X146120000Y-101785000D01*
X145520000Y-112785000D02*
X143820000Y-112785000D01*
X146120000Y-101785000D02*
X146120000Y-112185000D01*
X136920000Y-119585000D02*
X139520000Y-116985000D01*
X139520000Y-116985000D02*
X139520000Y-105485000D01*
%TA.AperFunction,Conductor*%
G36*
X177823458Y-92505207D02*
G01*
X177871761Y-92537969D01*
X178555149Y-93165948D01*
X178605391Y-93238878D01*
X178619500Y-93312475D01*
X178619500Y-122118147D01*
X178599793Y-122204490D01*
X178563078Y-122256973D01*
X177815919Y-123024326D01*
X177741565Y-123072440D01*
X177673341Y-123084500D01*
X126168015Y-123084500D01*
X126081672Y-123064793D01*
X126037533Y-123035751D01*
X125339018Y-122429145D01*
X125286748Y-122357652D01*
X125270500Y-122278894D01*
X125270500Y-97428488D01*
X127479500Y-97428488D01*
X127479500Y-97741518D01*
X127494354Y-97835303D01*
X127494354Y-97835305D01*
X127551951Y-97948344D01*
X127641657Y-98038050D01*
X127747672Y-98092067D01*
X127754696Y-98095646D01*
X127848481Y-98110500D01*
X128191518Y-98110499D01*
X128285304Y-98095646D01*
X128285311Y-98095642D01*
X128286553Y-98095240D01*
X128348049Y-98085500D01*
X128430258Y-98085500D01*
X128516601Y-98105207D01*
X128570972Y-98143786D01*
X128734068Y-98306882D01*
X128781187Y-98381870D01*
X128791103Y-98469877D01*
X128761852Y-98553470D01*
X128699228Y-98616094D01*
X128615635Y-98645345D01*
X128545801Y-98640831D01*
X128490613Y-98627249D01*
X128487730Y-98626662D01*
X128486974Y-98626525D01*
X128485679Y-98626266D01*
X128485601Y-98626247D01*
X128485504Y-98626231D01*
X128481970Y-98625525D01*
X128481914Y-98625500D01*
X128481230Y-98625375D01*
X128480611Y-98625248D01*
X128477446Y-98624735D01*
X128477439Y-98624734D01*
X128412500Y-98619500D01*
X128202500Y-98619500D01*
X128137561Y-98624734D01*
X128134858Y-98625172D01*
X128134368Y-98625252D01*
X128133738Y-98625381D01*
X128133041Y-98625522D01*
X128129485Y-98626232D01*
X128129399Y-98626247D01*
X128129328Y-98626264D01*
X128128065Y-98626517D01*
X128128006Y-98626515D01*
X128127821Y-98626549D01*
X128124398Y-98627247D01*
X128061107Y-98642822D01*
X128058350Y-98643741D01*
X128058345Y-98643742D01*
X128058108Y-98643822D01*
X128031067Y-98653918D01*
X128029757Y-98654461D01*
X128008469Y-98664180D01*
X128008444Y-98664191D01*
X128003682Y-98666366D01*
X127963546Y-98686433D01*
X127949296Y-98698448D01*
X127944629Y-98701645D01*
X127938949Y-98705082D01*
X127936350Y-98706955D01*
X127935213Y-98707922D01*
X127934949Y-98708082D01*
X127932350Y-98709955D01*
X127931720Y-98710490D01*
X127931711Y-98710497D01*
X127882689Y-98752203D01*
X127874703Y-98760189D01*
X127832997Y-98809211D01*
X127832990Y-98809220D01*
X127832455Y-98809850D01*
X127830582Y-98812449D01*
X127830422Y-98812713D01*
X127829455Y-98813850D01*
X127827582Y-98816449D01*
X127824145Y-98822129D01*
X127820948Y-98826796D01*
X127811865Y-98835183D01*
X127788866Y-98881182D01*
X127786691Y-98885944D01*
X127786680Y-98885969D01*
X127776961Y-98907257D01*
X127776418Y-98908567D01*
X127766322Y-98935608D01*
X127766242Y-98935845D01*
X127766241Y-98935850D01*
X127765322Y-98938607D01*
X127749747Y-99001898D01*
X127749160Y-99004776D01*
X127749017Y-99005565D01*
X127748764Y-99006828D01*
X127748747Y-99006899D01*
X127748732Y-99006985D01*
X127748022Y-99010541D01*
X127747999Y-99010590D01*
X127747881Y-99011238D01*
X127747752Y-99011868D01*
X127747747Y-99011899D01*
X127747234Y-99015061D01*
X127742000Y-99080000D01*
X127742000Y-99490000D01*
X127745458Y-99532902D01*
X127747234Y-99554939D01*
X127747235Y-99554946D01*
X127747748Y-99558111D01*
X127747875Y-99558730D01*
X127748025Y-99559470D01*
X127748731Y-99563004D01*
X127748747Y-99563101D01*
X127748766Y-99563179D01*
X127749025Y-99564474D01*
X127749023Y-99564536D01*
X127749042Y-99564640D01*
X127749747Y-99568101D01*
X127765322Y-99631392D01*
X127766322Y-99634392D01*
X127776418Y-99661433D01*
X127776961Y-99662743D01*
X127788866Y-99688817D01*
X127788875Y-99688836D01*
X127808942Y-99728971D01*
X127820944Y-99743200D01*
X127824148Y-99747875D01*
X127827582Y-99753551D01*
X127829455Y-99756150D01*
X127830422Y-99757286D01*
X127830582Y-99757551D01*
X127832455Y-99760150D01*
X127833004Y-99760795D01*
X127833313Y-99761246D01*
X127834118Y-99762273D01*
X127834338Y-99762742D01*
X127834650Y-99763196D01*
X127834810Y-99763418D01*
X127834804Y-99763421D01*
X127835962Y-99765110D01*
X127838616Y-99771823D01*
X127871854Y-99842395D01*
X127871089Y-99930955D01*
X127834658Y-100006604D01*
X127834748Y-100006669D01*
X127834385Y-100007171D01*
X127834118Y-100007727D01*
X127831653Y-100010873D01*
X127830375Y-100012573D01*
X127827582Y-100016448D01*
X127827573Y-100016462D01*
X127827043Y-100017339D01*
X127826887Y-100017499D01*
X127825377Y-100019784D01*
X127824951Y-100019502D01*
X127814090Y-100030734D01*
X127788866Y-100081182D01*
X127786691Y-100085944D01*
X127786680Y-100085969D01*
X127776961Y-100107257D01*
X127776418Y-100108567D01*
X127766322Y-100135608D01*
X127766242Y-100135845D01*
X127766241Y-100135850D01*
X127765322Y-100138607D01*
X127749747Y-100201898D01*
X127749160Y-100204776D01*
X127749017Y-100205565D01*
X127748764Y-100206828D01*
X127748747Y-100206899D01*
X127748732Y-100206985D01*
X127748022Y-100210541D01*
X127747999Y-100210590D01*
X127747881Y-100211238D01*
X127747752Y-100211868D01*
X127747747Y-100211899D01*
X127747234Y-100215061D01*
X127742000Y-100280000D01*
X127742000Y-100690000D01*
X127744157Y-100716762D01*
X127747234Y-100754939D01*
X127747235Y-100754946D01*
X127747748Y-100758111D01*
X127747875Y-100758730D01*
X127748025Y-100759470D01*
X127748731Y-100763004D01*
X127748747Y-100763101D01*
X127748766Y-100763179D01*
X127749025Y-100764474D01*
X127749023Y-100764536D01*
X127749042Y-100764640D01*
X127749748Y-100768107D01*
X127754037Y-100785535D01*
X127765322Y-100831392D01*
X127766322Y-100834392D01*
X127776418Y-100861433D01*
X127776961Y-100862743D01*
X127788866Y-100888817D01*
X127788875Y-100888836D01*
X127808942Y-100928971D01*
X127820944Y-100943200D01*
X127824147Y-100947873D01*
X127827582Y-100953551D01*
X127829455Y-100956150D01*
X127830422Y-100957286D01*
X127830582Y-100957551D01*
X127832455Y-100960150D01*
X127833006Y-100960798D01*
X127833007Y-100960799D01*
X127874703Y-101009810D01*
X127882689Y-101017796D01*
X127882695Y-101017801D01*
X127882697Y-101017803D01*
X127932350Y-101060045D01*
X127934949Y-101061918D01*
X127935213Y-101062077D01*
X127936350Y-101063045D01*
X127938949Y-101064918D01*
X127944660Y-101068372D01*
X127949308Y-101071558D01*
X127957695Y-101080640D01*
X128002321Y-101102952D01*
X128002321Y-101102953D01*
X128003683Y-101103634D01*
X128029757Y-101115539D01*
X128031067Y-101116082D01*
X128058108Y-101126178D01*
X128061108Y-101127178D01*
X128124399Y-101142753D01*
X128124404Y-101142753D01*
X128124413Y-101142756D01*
X128127319Y-101143348D01*
X128128106Y-101143490D01*
X128129305Y-101143729D01*
X128129399Y-101143753D01*
X128129513Y-101143771D01*
X128133095Y-101144488D01*
X128133152Y-101144513D01*
X128133861Y-101144643D01*
X128134388Y-101144750D01*
X128134399Y-101144753D01*
X128134409Y-101144754D01*
X128134411Y-101144755D01*
X128137542Y-101145263D01*
X128137543Y-101145263D01*
X128137561Y-101145266D01*
X128202500Y-101150500D01*
X128284785Y-101150500D01*
X128307927Y-101155782D01*
X128331662Y-101156100D01*
X128336279Y-101157277D01*
X128441608Y-101185500D01*
X129249111Y-101185500D01*
X129335454Y-101205207D01*
X129365053Y-101224096D01*
X129365330Y-101223683D01*
X129488190Y-101305776D01*
X129496087Y-101309997D01*
X129562946Y-101368078D01*
X129597982Y-101449416D01*
X129594258Y-101537901D01*
X129552510Y-101616008D01*
X129481008Y-101668265D01*
X129402281Y-101684500D01*
X128348049Y-101684500D01*
X128313754Y-101679068D01*
X128301172Y-101678900D01*
X128295803Y-101676225D01*
X128286556Y-101674761D01*
X128285302Y-101674353D01*
X128191525Y-101659501D01*
X128191519Y-101659500D01*
X128191511Y-101659500D01*
X127848481Y-101659500D01*
X127754696Y-101674354D01*
X127754694Y-101674354D01*
X127641655Y-101731951D01*
X127551949Y-101821657D01*
X127494355Y-101934692D01*
X127494353Y-101934699D01*
X127479501Y-102028474D01*
X127479500Y-102028488D01*
X127479500Y-102341518D01*
X127494354Y-102435303D01*
X127494354Y-102435305D01*
X127551951Y-102548344D01*
X127641657Y-102638050D01*
X127732891Y-102684536D01*
X127754696Y-102695646D01*
X127848481Y-102710500D01*
X128191518Y-102710499D01*
X128285304Y-102695646D01*
X128285311Y-102695642D01*
X128286553Y-102695240D01*
X128348049Y-102685500D01*
X132485890Y-102685500D01*
X132485892Y-102685500D01*
X132613186Y-102651392D01*
X132727314Y-102585500D01*
X132764472Y-102548342D01*
X132779224Y-102533590D01*
X132854212Y-102486471D01*
X132942218Y-102476554D01*
X133025812Y-102505804D01*
X133060653Y-102533589D01*
X134412562Y-103885498D01*
X134412561Y-103885498D01*
X134412563Y-103885499D01*
X134412564Y-103885500D01*
X134526692Y-103951392D01*
X134653985Y-103985500D01*
X134653986Y-103985500D01*
X136512982Y-103985500D01*
X136599325Y-104005207D01*
X136668566Y-104060426D01*
X136670859Y-104063356D01*
X136766718Y-104188282D01*
X136821209Y-104230094D01*
X136892156Y-104284535D01*
X136892159Y-104284536D01*
X137038238Y-104345044D01*
X137155639Y-104360500D01*
X137634360Y-104360499D01*
X137751762Y-104345044D01*
X137751764Y-104345043D01*
X137751765Y-104345043D01*
X137751765Y-104345042D01*
X137897841Y-104284536D01*
X137897841Y-104284535D01*
X137897843Y-104284535D01*
X137926976Y-104262179D01*
X138023282Y-104188282D01*
X138062123Y-104137662D01*
X138130320Y-104081160D01*
X138216279Y-104059842D01*
X138302975Y-104077931D01*
X138373237Y-104131845D01*
X138377871Y-104137655D01*
X138416718Y-104188282D01*
X138471209Y-104230094D01*
X138542156Y-104284535D01*
X138542159Y-104284536D01*
X138688238Y-104345044D01*
X138805639Y-104360500D01*
X139284360Y-104360499D01*
X139401762Y-104345044D01*
X139401764Y-104345043D01*
X139401765Y-104345043D01*
X139401765Y-104345042D01*
X139547841Y-104284536D01*
X139547841Y-104284535D01*
X139547843Y-104284535D01*
X139576976Y-104262179D01*
X139673282Y-104188282D01*
X139769141Y-104063356D01*
X139837338Y-104006853D01*
X139923297Y-103985535D01*
X139927018Y-103985500D01*
X140530258Y-103985500D01*
X140616601Y-104005207D01*
X140670972Y-104043786D01*
X141561214Y-104934028D01*
X141608333Y-105009016D01*
X141619500Y-105074742D01*
X141619500Y-112235859D01*
X141599793Y-112322202D01*
X141544574Y-112391443D01*
X141464782Y-112429870D01*
X141386721Y-112431971D01*
X141364846Y-112428203D01*
X141324328Y-112411420D01*
X141188993Y-112384500D01*
X141111121Y-112384500D01*
X141094354Y-112381612D01*
X141068791Y-112370955D01*
X141041790Y-112364793D01*
X141028408Y-112354121D01*
X141012609Y-112347535D01*
X140994198Y-112326839D01*
X140972549Y-112309574D01*
X140960166Y-112288582D01*
X140953745Y-112281364D01*
X140951714Y-112274254D01*
X140944281Y-112261653D01*
X140940775Y-112253189D01*
X140864114Y-112138458D01*
X140766542Y-112040886D01*
X140696525Y-111994102D01*
X140651813Y-111964226D01*
X140651806Y-111964222D01*
X140524329Y-111911420D01*
X140524325Y-111911419D01*
X140408891Y-111888458D01*
X140388993Y-111884500D01*
X140251007Y-111884500D01*
X140251006Y-111884500D01*
X140241282Y-111885458D01*
X140240997Y-111882569D01*
X140169719Y-111880541D01*
X140091051Y-111839861D01*
X140037824Y-111769077D01*
X140020500Y-111687868D01*
X140020500Y-106055888D01*
X140040207Y-105969545D01*
X140059097Y-105939946D01*
X140058683Y-105939670D01*
X140129679Y-105833417D01*
X140140775Y-105816811D01*
X140193580Y-105689328D01*
X140220500Y-105553993D01*
X140220500Y-105416007D01*
X140193580Y-105280672D01*
X140163506Y-105208066D01*
X140140777Y-105153193D01*
X140140773Y-105153186D01*
X140116193Y-105116400D01*
X140064114Y-105038458D01*
X139966542Y-104940886D01*
X139908790Y-104902297D01*
X139851813Y-104864226D01*
X139851806Y-104864222D01*
X139724329Y-104811420D01*
X139724325Y-104811419D01*
X139633696Y-104793392D01*
X139588993Y-104784500D01*
X139451007Y-104784500D01*
X139417403Y-104791184D01*
X139315674Y-104811419D01*
X139315670Y-104811420D01*
X139188193Y-104864222D01*
X139188186Y-104864226D01*
X139073462Y-104940883D01*
X139073454Y-104940889D01*
X138975889Y-105038454D01*
X138975883Y-105038462D01*
X138899226Y-105153186D01*
X138899222Y-105153193D01*
X138846420Y-105280670D01*
X138846419Y-105280674D01*
X138819500Y-105416007D01*
X138819500Y-105553992D01*
X138846419Y-105689325D01*
X138846420Y-105689329D01*
X138899222Y-105816806D01*
X138899226Y-105816813D01*
X138981317Y-105939670D01*
X138979826Y-105940666D01*
X139013867Y-106008874D01*
X139019500Y-106055888D01*
X139019500Y-106767705D01*
X138999793Y-106854048D01*
X138944574Y-106923289D01*
X138864782Y-106961716D01*
X138781678Y-106962881D01*
X138638993Y-106934500D01*
X138501007Y-106934500D01*
X138467403Y-106941184D01*
X138365674Y-106961419D01*
X138365670Y-106961420D01*
X138238193Y-107014222D01*
X138238186Y-107014226D01*
X138115330Y-107096317D01*
X138114335Y-107094828D01*
X138046108Y-107128871D01*
X137999111Y-107134500D01*
X134235893Y-107134500D01*
X134104108Y-107134500D01*
X133976814Y-107168608D01*
X133862684Y-107234501D01*
X131719501Y-109377684D01*
X131687054Y-109433884D01*
X131653608Y-109491814D01*
X131619500Y-109619108D01*
X131619500Y-109619110D01*
X131619500Y-111712416D01*
X131599793Y-111798759D01*
X131561214Y-111853130D01*
X131525889Y-111888454D01*
X131525883Y-111888462D01*
X131449226Y-112003186D01*
X131449222Y-112003193D01*
X131396420Y-112130670D01*
X131396419Y-112130674D01*
X131369500Y-112266007D01*
X131369500Y-112403992D01*
X131396419Y-112539325D01*
X131396420Y-112539329D01*
X131449222Y-112666806D01*
X131449225Y-112666811D01*
X131525886Y-112781542D01*
X131623458Y-112879114D01*
X131737416Y-112955259D01*
X131738186Y-112955773D01*
X131738193Y-112955777D01*
X131819186Y-112989325D01*
X131865672Y-113008580D01*
X132001007Y-113035500D01*
X132001008Y-113035500D01*
X132138992Y-113035500D01*
X132138993Y-113035500D01*
X132274328Y-113008580D01*
X132401811Y-112955775D01*
X132516542Y-112879114D01*
X132614114Y-112781542D01*
X132690775Y-112666811D01*
X132743580Y-112539328D01*
X132770500Y-112403993D01*
X132770500Y-112266007D01*
X132743580Y-112130672D01*
X132706390Y-112040886D01*
X132690777Y-112003193D01*
X132690773Y-112003186D01*
X132654038Y-111948208D01*
X132622454Y-111865468D01*
X132620500Y-111837649D01*
X132620500Y-109974742D01*
X132640207Y-109888399D01*
X132678786Y-109834028D01*
X134319028Y-108193786D01*
X134394016Y-108146667D01*
X134459742Y-108135500D01*
X137999111Y-108135500D01*
X138085454Y-108155207D01*
X138115053Y-108174096D01*
X138115330Y-108173683D01*
X138238186Y-108255773D01*
X138238193Y-108255777D01*
X138323177Y-108290978D01*
X138365672Y-108308580D01*
X138501007Y-108335500D01*
X138501008Y-108335500D01*
X138638992Y-108335500D01*
X138638993Y-108335500D01*
X138774328Y-108308580D01*
X138774328Y-108308579D01*
X138781677Y-108307118D01*
X138870205Y-108309602D01*
X138948889Y-108350250D01*
X139002144Y-108421013D01*
X139019500Y-108502294D01*
X139019500Y-116695258D01*
X138999793Y-116781601D01*
X138961214Y-116835972D01*
X137385040Y-118412145D01*
X137310051Y-118459264D01*
X137222045Y-118469180D01*
X137197217Y-118463811D01*
X137197015Y-118464655D01*
X137189406Y-118462828D01*
X137010546Y-118434500D01*
X136829454Y-118434500D01*
X136650592Y-118462828D01*
X136650581Y-118462831D01*
X136478367Y-118518786D01*
X136478348Y-118518794D01*
X136317011Y-118601000D01*
X136170496Y-118707449D01*
X136042449Y-118835496D01*
X135936000Y-118982011D01*
X135853794Y-119143348D01*
X135853786Y-119143367D01*
X135797831Y-119315581D01*
X135797828Y-119315592D01*
X135769500Y-119494454D01*
X135769500Y-119675545D01*
X135797828Y-119854407D01*
X135797831Y-119854418D01*
X135853786Y-120026632D01*
X135853794Y-120026651D01*
X135936000Y-120187988D01*
X135936003Y-120187992D01*
X135936004Y-120187994D01*
X136042447Y-120334501D01*
X136170499Y-120462553D01*
X136317006Y-120568996D01*
X136317008Y-120568997D01*
X136317011Y-120568999D01*
X136478348Y-120651205D01*
X136478355Y-120651207D01*
X136478361Y-120651211D01*
X136478366Y-120651212D01*
X136478367Y-120651213D01*
X136650581Y-120707168D01*
X136650585Y-120707169D01*
X136650591Y-120707171D01*
X136829454Y-120735500D01*
X137010546Y-120735500D01*
X137189409Y-120707171D01*
X137361639Y-120651211D01*
X137522994Y-120568996D01*
X137669501Y-120462553D01*
X137797553Y-120334501D01*
X137903996Y-120187994D01*
X137986211Y-120026639D01*
X138042171Y-119854409D01*
X138070500Y-119675546D01*
X138070500Y-119494454D01*
X138060713Y-119432662D01*
X138042172Y-119315596D01*
X138040347Y-119307996D01*
X138042982Y-119307363D01*
X138036361Y-119234010D01*
X138067459Y-119151086D01*
X138092848Y-119119963D01*
X139810929Y-117401883D01*
X139810934Y-117401879D01*
X139827312Y-117385500D01*
X139827314Y-117385500D01*
X139920500Y-117292314D01*
X139986392Y-117178186D01*
X140020500Y-117050892D01*
X140020500Y-116473742D01*
X140040207Y-116387399D01*
X140095426Y-116318158D01*
X140175218Y-116279731D01*
X140263782Y-116279731D01*
X140343574Y-116318158D01*
X140360214Y-116333028D01*
X142012684Y-117985498D01*
X142012683Y-117985498D01*
X142012685Y-117985499D01*
X142012686Y-117985500D01*
X142126814Y-118051392D01*
X142254107Y-118085500D01*
X152425890Y-118085500D01*
X152425892Y-118085500D01*
X152553186Y-118051392D01*
X152667314Y-117985500D01*
X153119787Y-117533026D01*
X153194774Y-117485908D01*
X153282781Y-117475992D01*
X153366374Y-117505243D01*
X153428998Y-117567866D01*
X153458249Y-117651460D01*
X153459500Y-117673741D01*
X153459500Y-118656518D01*
X153467567Y-118707449D01*
X153474353Y-118750300D01*
X153474354Y-118750303D01*
X153474354Y-118750305D01*
X153531951Y-118863344D01*
X153621657Y-118953050D01*
X153710562Y-118998349D01*
X153734696Y-119010646D01*
X153828481Y-119025500D01*
X154100500Y-119025499D01*
X154122357Y-119030488D01*
X154144782Y-119030488D01*
X154164984Y-119040217D01*
X154186842Y-119045206D01*
X154204373Y-119059186D01*
X154224574Y-119068915D01*
X154238552Y-119086443D01*
X154256084Y-119100424D01*
X154265812Y-119120625D01*
X154279793Y-119138156D01*
X154284782Y-119160018D01*
X154294510Y-119180217D01*
X154299500Y-119224499D01*
X154299500Y-119317982D01*
X154279793Y-119404325D01*
X154224574Y-119473566D01*
X154221644Y-119475859D01*
X154096718Y-119571718D01*
X154000464Y-119697156D01*
X154000463Y-119697159D01*
X153939957Y-119843235D01*
X153939956Y-119843237D01*
X153924500Y-119960641D01*
X153924500Y-120439357D01*
X153939956Y-120556765D01*
X154000463Y-120702840D01*
X154000464Y-120702843D01*
X154064633Y-120786468D01*
X154096718Y-120828282D01*
X154129299Y-120853282D01*
X154222156Y-120924535D01*
X154222159Y-120924536D01*
X154368238Y-120985044D01*
X154485639Y-121000500D01*
X155114360Y-121000499D01*
X155231762Y-120985044D01*
X155231764Y-120985043D01*
X155231765Y-120985043D01*
X155231765Y-120985042D01*
X155377841Y-120924536D01*
X155377841Y-120924535D01*
X155377843Y-120924535D01*
X155406976Y-120902179D01*
X155503282Y-120828282D01*
X155580354Y-120727840D01*
X155599535Y-120702843D01*
X155599536Y-120702840D01*
X155660044Y-120556762D01*
X155675500Y-120439361D01*
X155675499Y-119960640D01*
X155660044Y-119843238D01*
X155660043Y-119843235D01*
X155660043Y-119843234D01*
X155599536Y-119697159D01*
X155599535Y-119697156D01*
X155522465Y-119596718D01*
X155503282Y-119571718D01*
X155378356Y-119475859D01*
X155377140Y-119474391D01*
X155375426Y-119473566D01*
X155348954Y-119440372D01*
X155321853Y-119407662D01*
X155321394Y-119405814D01*
X155320207Y-119404325D01*
X155310754Y-119362909D01*
X155300535Y-119321703D01*
X155300500Y-119317982D01*
X155300500Y-119224499D01*
X155320207Y-119138156D01*
X155375426Y-119068915D01*
X155455218Y-119030488D01*
X155499500Y-119025499D01*
X155591518Y-119025499D01*
X155685304Y-119010646D01*
X155798342Y-118953050D01*
X155888050Y-118863342D01*
X155945646Y-118750304D01*
X155954442Y-118694764D01*
X155987413Y-118612569D01*
X156052783Y-118552817D01*
X156137604Y-118527346D01*
X156225077Y-118541200D01*
X156291706Y-118585181D01*
X156435347Y-118728822D01*
X156435349Y-118728823D01*
X156435354Y-118728828D01*
X156568054Y-118825241D01*
X156594596Y-118844525D01*
X156610840Y-118852801D01*
X156626360Y-118865757D01*
X156644574Y-118874529D01*
X156659923Y-118893776D01*
X156678827Y-118909557D01*
X156687189Y-118927965D01*
X156699793Y-118943770D01*
X156705271Y-118967772D01*
X156715455Y-118990191D01*
X156719500Y-119030113D01*
X156719500Y-119317982D01*
X156699793Y-119404325D01*
X156644574Y-119473566D01*
X156641644Y-119475859D01*
X156516718Y-119571718D01*
X156420464Y-119697156D01*
X156420463Y-119697159D01*
X156359957Y-119843235D01*
X156359956Y-119843237D01*
X156344500Y-119960641D01*
X156344500Y-120439357D01*
X156359956Y-120556765D01*
X156420463Y-120702840D01*
X156420464Y-120702843D01*
X156484633Y-120786468D01*
X156516718Y-120828282D01*
X156549299Y-120853282D01*
X156642156Y-120924535D01*
X156642159Y-120924536D01*
X156788238Y-120985044D01*
X156905639Y-121000500D01*
X157534360Y-121000499D01*
X157651762Y-120985044D01*
X157651764Y-120985043D01*
X157651765Y-120985043D01*
X157651765Y-120985042D01*
X157797841Y-120924536D01*
X157797841Y-120924535D01*
X157797843Y-120924535D01*
X157826976Y-120902179D01*
X157923282Y-120828282D01*
X158000354Y-120727840D01*
X158019535Y-120702843D01*
X158019536Y-120702840D01*
X158080044Y-120556762D01*
X158095500Y-120439361D01*
X158095499Y-119960640D01*
X158080044Y-119843238D01*
X158080043Y-119843235D01*
X158080043Y-119843234D01*
X158019536Y-119697159D01*
X158019535Y-119697156D01*
X157942465Y-119596718D01*
X157923282Y-119571718D01*
X157798356Y-119475859D01*
X157797140Y-119474391D01*
X157795426Y-119473566D01*
X157768954Y-119440372D01*
X157741853Y-119407662D01*
X157741394Y-119405814D01*
X157740207Y-119404325D01*
X157730754Y-119362909D01*
X157720535Y-119321703D01*
X157720500Y-119317982D01*
X157720500Y-119060685D01*
X157740207Y-118974342D01*
X157795426Y-118905101D01*
X157829156Y-118883375D01*
X157890689Y-118852022D01*
X157905405Y-118844524D01*
X158064646Y-118728828D01*
X158203828Y-118589646D01*
X158319524Y-118430405D01*
X158342690Y-118384938D01*
X158399447Y-118316955D01*
X158480081Y-118280328D01*
X158568622Y-118282314D01*
X158647533Y-118322521D01*
X158697309Y-118384938D01*
X158720476Y-118430405D01*
X158836172Y-118589646D01*
X158836176Y-118589650D01*
X158836177Y-118589652D01*
X158975347Y-118728822D01*
X158975349Y-118728823D01*
X158975354Y-118728828D01*
X159134595Y-118844524D01*
X159134597Y-118844525D01*
X159210844Y-118883375D01*
X159226361Y-118896330D01*
X159244574Y-118905101D01*
X159259926Y-118924352D01*
X159278829Y-118940133D01*
X159287188Y-118958536D01*
X159299793Y-118974342D01*
X159305272Y-118998349D01*
X159315455Y-119020767D01*
X159319500Y-119060685D01*
X159319500Y-119317982D01*
X159299793Y-119404325D01*
X159244574Y-119473566D01*
X159241644Y-119475859D01*
X159116718Y-119571718D01*
X159020464Y-119697156D01*
X159020463Y-119697159D01*
X158959957Y-119843235D01*
X158959956Y-119843237D01*
X158944500Y-119960641D01*
X158944500Y-120439357D01*
X158959956Y-120556765D01*
X159020463Y-120702840D01*
X159020464Y-120702843D01*
X159084633Y-120786468D01*
X159116718Y-120828282D01*
X159149299Y-120853282D01*
X159242156Y-120924535D01*
X159242159Y-120924536D01*
X159388238Y-120985044D01*
X159505639Y-121000500D01*
X160134360Y-121000499D01*
X160251762Y-120985044D01*
X160251764Y-120985043D01*
X160251765Y-120985043D01*
X160251765Y-120985042D01*
X160397841Y-120924536D01*
X160397841Y-120924535D01*
X160397843Y-120924535D01*
X160426976Y-120902179D01*
X160523282Y-120828282D01*
X160600354Y-120727840D01*
X160619535Y-120702843D01*
X160619536Y-120702840D01*
X160680044Y-120556762D01*
X160695500Y-120439361D01*
X160695499Y-119960640D01*
X160680044Y-119843238D01*
X160680043Y-119843235D01*
X160680043Y-119843234D01*
X160619536Y-119697159D01*
X160619535Y-119697156D01*
X160542465Y-119596718D01*
X160523282Y-119571718D01*
X160398356Y-119475859D01*
X160397140Y-119474391D01*
X160395426Y-119473566D01*
X160368954Y-119440372D01*
X160341853Y-119407662D01*
X160341394Y-119405814D01*
X160340207Y-119404325D01*
X160330754Y-119362909D01*
X160320535Y-119321703D01*
X160320500Y-119317982D01*
X160320500Y-119030113D01*
X160340207Y-118943770D01*
X160395426Y-118874529D01*
X160429160Y-118852801D01*
X160437388Y-118848609D01*
X160445405Y-118844524D01*
X160604646Y-118728828D01*
X160743828Y-118589646D01*
X160859524Y-118430405D01*
X160882690Y-118384938D01*
X160939447Y-118316955D01*
X161020081Y-118280328D01*
X161108622Y-118282314D01*
X161187533Y-118322521D01*
X161237309Y-118384938D01*
X161260476Y-118430405D01*
X161376172Y-118589646D01*
X161376176Y-118589650D01*
X161376177Y-118589652D01*
X161515347Y-118728822D01*
X161515349Y-118728823D01*
X161515354Y-118728828D01*
X161648054Y-118825241D01*
X161674596Y-118844525D01*
X161682612Y-118848609D01*
X161710841Y-118862992D01*
X161726360Y-118875947D01*
X161744574Y-118884719D01*
X161759923Y-118903966D01*
X161778827Y-118919747D01*
X161787188Y-118938155D01*
X161799793Y-118953960D01*
X161805271Y-118977963D01*
X161815455Y-119000382D01*
X161819500Y-119040303D01*
X161819500Y-119317982D01*
X161799793Y-119404325D01*
X161744574Y-119473566D01*
X161741644Y-119475859D01*
X161616718Y-119571718D01*
X161520464Y-119697156D01*
X161520463Y-119697159D01*
X161459957Y-119843235D01*
X161459956Y-119843237D01*
X161444500Y-119960641D01*
X161444500Y-120439357D01*
X161459956Y-120556765D01*
X161520463Y-120702840D01*
X161520464Y-120702843D01*
X161584633Y-120786468D01*
X161616718Y-120828282D01*
X161649299Y-120853282D01*
X161742156Y-120924535D01*
X161742159Y-120924536D01*
X161888238Y-120985044D01*
X162005639Y-121000500D01*
X162634360Y-121000499D01*
X162751762Y-120985044D01*
X162751764Y-120985043D01*
X162751765Y-120985043D01*
X162751765Y-120985042D01*
X162897841Y-120924536D01*
X162897841Y-120924535D01*
X162897843Y-120924535D01*
X162926976Y-120902179D01*
X163023282Y-120828282D01*
X163100354Y-120727840D01*
X163119535Y-120702843D01*
X163119536Y-120702840D01*
X163180044Y-120556762D01*
X163195500Y-120439361D01*
X163195499Y-119960640D01*
X163180044Y-119843238D01*
X163180043Y-119843235D01*
X163180043Y-119843234D01*
X163119536Y-119697159D01*
X163119535Y-119697156D01*
X163042465Y-119596718D01*
X163023282Y-119571718D01*
X162898356Y-119475859D01*
X162897140Y-119474391D01*
X162895426Y-119473566D01*
X162868954Y-119440372D01*
X162841853Y-119407662D01*
X162841394Y-119405814D01*
X162840207Y-119404325D01*
X162830754Y-119362909D01*
X162820535Y-119321703D01*
X162820500Y-119317982D01*
X162820500Y-119050494D01*
X162840207Y-118964151D01*
X162895426Y-118894910D01*
X162929154Y-118873184D01*
X162985405Y-118844524D01*
X163144646Y-118728828D01*
X163283828Y-118589646D01*
X163399524Y-118430405D01*
X163422690Y-118384938D01*
X163479447Y-118316955D01*
X163560081Y-118280328D01*
X163648622Y-118282314D01*
X163727533Y-118322521D01*
X163777309Y-118384938D01*
X163800476Y-118430405D01*
X163916172Y-118589646D01*
X163916176Y-118589650D01*
X163916177Y-118589652D01*
X164055347Y-118728822D01*
X164055349Y-118728823D01*
X164055354Y-118728828D01*
X164214595Y-118844524D01*
X164310844Y-118893565D01*
X164326362Y-118906520D01*
X164344574Y-118915291D01*
X164359924Y-118934539D01*
X164378829Y-118950322D01*
X164387189Y-118968727D01*
X164399793Y-118984532D01*
X164405272Y-119008539D01*
X164415455Y-119030957D01*
X164419500Y-119070875D01*
X164419500Y-119342982D01*
X164399793Y-119429325D01*
X164344574Y-119498566D01*
X164341644Y-119500859D01*
X164216718Y-119596718D01*
X164120464Y-119722156D01*
X164120463Y-119722159D01*
X164059957Y-119868235D01*
X164059956Y-119868237D01*
X164044500Y-119985641D01*
X164044500Y-120464357D01*
X164059956Y-120581765D01*
X164120463Y-120727840D01*
X164120464Y-120727843D01*
X164184633Y-120811468D01*
X164216718Y-120853282D01*
X164271209Y-120895094D01*
X164342156Y-120949535D01*
X164342159Y-120949536D01*
X164488238Y-121010044D01*
X164605639Y-121025500D01*
X165234360Y-121025499D01*
X165351762Y-121010044D01*
X165351764Y-121010043D01*
X165351765Y-121010043D01*
X165351765Y-121010042D01*
X165497841Y-120949536D01*
X165497841Y-120949535D01*
X165497843Y-120949535D01*
X165530423Y-120924535D01*
X165623282Y-120853282D01*
X165713659Y-120735500D01*
X165719535Y-120727843D01*
X165719536Y-120727840D01*
X165780044Y-120581762D01*
X165795500Y-120464361D01*
X165795499Y-119985640D01*
X165780044Y-119868238D01*
X165780043Y-119868235D01*
X165780043Y-119868234D01*
X165719536Y-119722159D01*
X165719535Y-119722156D01*
X165665094Y-119651209D01*
X165623282Y-119596718D01*
X165498356Y-119500859D01*
X165497140Y-119499391D01*
X165495426Y-119498566D01*
X165468954Y-119465372D01*
X165441853Y-119432662D01*
X165441394Y-119430814D01*
X165440207Y-119429325D01*
X165430754Y-119387909D01*
X165420535Y-119346703D01*
X165420500Y-119342982D01*
X165420500Y-119019923D01*
X165440207Y-118933580D01*
X165495426Y-118864339D01*
X165519052Y-118849120D01*
X165518739Y-118848609D01*
X165525396Y-118844528D01*
X165525405Y-118844524D01*
X165684646Y-118728828D01*
X165823828Y-118589646D01*
X165939524Y-118430405D01*
X165962690Y-118384938D01*
X166019447Y-118316955D01*
X166100081Y-118280328D01*
X166188622Y-118282314D01*
X166267533Y-118322521D01*
X166317309Y-118384938D01*
X166340476Y-118430405D01*
X166456172Y-118589646D01*
X166456176Y-118589650D01*
X166456177Y-118589652D01*
X166595347Y-118728822D01*
X166595349Y-118728823D01*
X166595354Y-118728828D01*
X166754595Y-118844524D01*
X166810844Y-118873183D01*
X166826362Y-118886139D01*
X166844574Y-118894910D01*
X166859924Y-118914158D01*
X166878828Y-118929940D01*
X166887188Y-118948345D01*
X166899793Y-118964151D01*
X166905272Y-118988157D01*
X166915455Y-119010575D01*
X166919500Y-119050494D01*
X166919500Y-119342982D01*
X166899793Y-119429325D01*
X166844574Y-119498566D01*
X166841644Y-119500859D01*
X166716718Y-119596718D01*
X166620464Y-119722156D01*
X166620463Y-119722159D01*
X166559957Y-119868235D01*
X166559956Y-119868237D01*
X166544500Y-119985641D01*
X166544500Y-120464357D01*
X166559956Y-120581765D01*
X166620463Y-120727840D01*
X166620464Y-120727843D01*
X166684633Y-120811468D01*
X166716718Y-120853282D01*
X166771209Y-120895094D01*
X166842156Y-120949535D01*
X166842159Y-120949536D01*
X166988238Y-121010044D01*
X167105639Y-121025500D01*
X167734360Y-121025499D01*
X167851762Y-121010044D01*
X167851764Y-121010043D01*
X167851765Y-121010043D01*
X167851765Y-121010042D01*
X167997841Y-120949536D01*
X167997841Y-120949535D01*
X167997843Y-120949535D01*
X168030423Y-120924535D01*
X168123282Y-120853282D01*
X168213659Y-120735500D01*
X168219535Y-120727843D01*
X168219536Y-120727840D01*
X168280044Y-120581762D01*
X168295500Y-120464361D01*
X168295499Y-119985640D01*
X168280044Y-119868238D01*
X168280043Y-119868235D01*
X168280043Y-119868234D01*
X168219536Y-119722159D01*
X168219535Y-119722156D01*
X168165094Y-119651209D01*
X168123282Y-119596718D01*
X167998356Y-119500859D01*
X167997140Y-119499391D01*
X167995426Y-119498566D01*
X167968954Y-119465372D01*
X167941853Y-119432662D01*
X167941394Y-119430814D01*
X167940207Y-119429325D01*
X167930754Y-119387909D01*
X167920535Y-119346703D01*
X167920500Y-119342982D01*
X167920500Y-119040303D01*
X167940207Y-118953960D01*
X167995426Y-118884719D01*
X168029155Y-118862993D01*
X168065405Y-118844524D01*
X168224646Y-118728828D01*
X168363828Y-118589646D01*
X168479524Y-118430405D01*
X168502690Y-118384938D01*
X168559447Y-118316955D01*
X168640081Y-118280328D01*
X168728622Y-118282314D01*
X168807533Y-118322521D01*
X168857309Y-118384938D01*
X168880476Y-118430405D01*
X168996172Y-118589646D01*
X168996176Y-118589650D01*
X168996177Y-118589652D01*
X169135347Y-118728822D01*
X169135349Y-118728823D01*
X169135354Y-118728828D01*
X169294595Y-118844524D01*
X169410845Y-118903756D01*
X169426362Y-118916710D01*
X169444574Y-118925481D01*
X169459926Y-118944731D01*
X169478828Y-118960512D01*
X169487187Y-118978915D01*
X169499793Y-118994722D01*
X169505272Y-119018729D01*
X169515455Y-119041146D01*
X169519500Y-119081065D01*
X169519500Y-119342982D01*
X169499793Y-119429325D01*
X169444574Y-119498566D01*
X169441644Y-119500859D01*
X169316718Y-119596718D01*
X169220464Y-119722156D01*
X169220463Y-119722159D01*
X169159957Y-119868235D01*
X169159956Y-119868237D01*
X169144500Y-119985641D01*
X169144500Y-120464357D01*
X169159956Y-120581765D01*
X169220463Y-120727840D01*
X169220464Y-120727843D01*
X169284633Y-120811468D01*
X169316718Y-120853282D01*
X169371209Y-120895094D01*
X169442156Y-120949535D01*
X169442159Y-120949536D01*
X169588238Y-121010044D01*
X169705639Y-121025500D01*
X170334360Y-121025499D01*
X170451762Y-121010044D01*
X170451764Y-121010043D01*
X170451765Y-121010043D01*
X170451765Y-121010042D01*
X170597841Y-120949536D01*
X170597841Y-120949535D01*
X170597843Y-120949535D01*
X170630423Y-120924535D01*
X170723282Y-120853282D01*
X170813659Y-120735500D01*
X170819535Y-120727843D01*
X170819536Y-120727840D01*
X170880044Y-120581762D01*
X170895500Y-120464361D01*
X170895499Y-119985640D01*
X170880044Y-119868238D01*
X170880043Y-119868235D01*
X170880043Y-119868234D01*
X170819536Y-119722159D01*
X170819535Y-119722156D01*
X170765094Y-119651209D01*
X170723282Y-119596718D01*
X170598356Y-119500859D01*
X170597140Y-119499391D01*
X170595426Y-119498566D01*
X170568954Y-119465372D01*
X170541853Y-119432662D01*
X170541394Y-119430814D01*
X170540207Y-119429325D01*
X170530754Y-119387909D01*
X170520535Y-119346703D01*
X170520500Y-119342982D01*
X170520500Y-119007606D01*
X170540207Y-118921263D01*
X170595426Y-118852022D01*
X170602530Y-118846612D01*
X170605401Y-118844525D01*
X170605405Y-118844524D01*
X170764646Y-118728828D01*
X170903828Y-118589646D01*
X171019524Y-118430405D01*
X171042690Y-118384938D01*
X171099447Y-118316955D01*
X171180081Y-118280328D01*
X171268622Y-118282314D01*
X171347533Y-118322521D01*
X171397309Y-118384938D01*
X171420476Y-118430405D01*
X171536172Y-118589646D01*
X171536176Y-118589650D01*
X171536177Y-118589652D01*
X171675347Y-118728822D01*
X171675349Y-118728823D01*
X171675354Y-118728828D01*
X171834595Y-118844524D01*
X171890844Y-118873183D01*
X171906362Y-118886139D01*
X171924574Y-118894910D01*
X171939924Y-118914158D01*
X171958828Y-118929940D01*
X171967188Y-118948345D01*
X171979793Y-118964151D01*
X171985272Y-118988157D01*
X171995455Y-119010575D01*
X171999500Y-119050494D01*
X171999500Y-119342982D01*
X171979793Y-119429325D01*
X171924574Y-119498566D01*
X171921644Y-119500859D01*
X171796718Y-119596718D01*
X171700464Y-119722156D01*
X171700463Y-119722159D01*
X171639957Y-119868235D01*
X171639956Y-119868237D01*
X171624500Y-119985641D01*
X171624500Y-120464357D01*
X171639956Y-120581765D01*
X171700463Y-120727840D01*
X171700464Y-120727843D01*
X171764633Y-120811468D01*
X171796718Y-120853282D01*
X171851209Y-120895094D01*
X171922156Y-120949535D01*
X171922159Y-120949536D01*
X172068238Y-121010044D01*
X172185639Y-121025500D01*
X172814360Y-121025499D01*
X172931762Y-121010044D01*
X172931764Y-121010043D01*
X172931765Y-121010043D01*
X172931765Y-121010042D01*
X173077841Y-120949536D01*
X173077841Y-120949535D01*
X173077843Y-120949535D01*
X173110423Y-120924535D01*
X173203282Y-120853282D01*
X173293659Y-120735500D01*
X173299535Y-120727843D01*
X173299536Y-120727840D01*
X173360044Y-120581762D01*
X173375500Y-120464361D01*
X173375499Y-119985640D01*
X173360044Y-119868238D01*
X173360043Y-119868235D01*
X173360043Y-119868234D01*
X173299536Y-119722159D01*
X173299535Y-119722156D01*
X173245094Y-119651209D01*
X173203282Y-119596718D01*
X173078356Y-119500859D01*
X173077140Y-119499391D01*
X173075426Y-119498566D01*
X173048954Y-119465372D01*
X173021853Y-119432662D01*
X173021394Y-119430814D01*
X173020207Y-119429325D01*
X173010754Y-119387909D01*
X173000535Y-119346703D01*
X173000500Y-119342982D01*
X173000500Y-119040303D01*
X173020207Y-118953960D01*
X173075426Y-118884719D01*
X173109155Y-118862993D01*
X173145405Y-118844524D01*
X173304646Y-118728828D01*
X173443828Y-118589646D01*
X173559524Y-118430405D01*
X173648884Y-118255025D01*
X173709709Y-118067826D01*
X173740500Y-117873417D01*
X173740500Y-117676583D01*
X173713363Y-117505243D01*
X173709710Y-117482179D01*
X173709708Y-117482171D01*
X173678298Y-117385501D01*
X173648884Y-117294975D01*
X173559524Y-117119595D01*
X173443828Y-116960354D01*
X173443823Y-116960349D01*
X173443822Y-116960347D01*
X173304652Y-116821177D01*
X173304650Y-116821176D01*
X173304646Y-116821172D01*
X173145405Y-116705476D01*
X173099938Y-116682309D01*
X173031955Y-116625553D01*
X172995328Y-116544919D01*
X172997314Y-116456378D01*
X173037521Y-116377467D01*
X173099938Y-116327690D01*
X173145405Y-116304524D01*
X173304646Y-116188828D01*
X173443828Y-116049646D01*
X173559524Y-115890405D01*
X173648884Y-115715025D01*
X173709709Y-115527826D01*
X173740500Y-115333417D01*
X173740500Y-115136583D01*
X173709709Y-114942174D01*
X173648884Y-114754975D01*
X173559524Y-114579595D01*
X173443828Y-114420354D01*
X173443823Y-114420349D01*
X173443822Y-114420347D01*
X173304652Y-114281177D01*
X173304650Y-114281176D01*
X173304646Y-114281172D01*
X173192049Y-114199365D01*
X173145407Y-114165477D01*
X173078801Y-114131540D01*
X172970025Y-114076116D01*
X172970021Y-114076115D01*
X172970018Y-114076113D01*
X172782828Y-114015291D01*
X172782820Y-114015289D01*
X172588417Y-113984500D01*
X172391583Y-113984500D01*
X172197179Y-114015289D01*
X172197171Y-114015291D01*
X172009982Y-114076113D01*
X172009981Y-114076113D01*
X171834592Y-114165477D01*
X171747005Y-114229114D01*
X171675354Y-114281172D01*
X171675352Y-114281173D01*
X171675349Y-114281176D01*
X171675347Y-114281177D01*
X171536177Y-114420347D01*
X171536176Y-114420349D01*
X171536173Y-114420352D01*
X171536172Y-114420354D01*
X171507091Y-114460379D01*
X171420472Y-114579599D01*
X171397310Y-114625059D01*
X171340552Y-114693044D01*
X171259917Y-114729670D01*
X171171376Y-114727683D01*
X171092466Y-114687476D01*
X171042690Y-114625059D01*
X171019527Y-114579599D01*
X171002712Y-114556455D01*
X170903828Y-114420354D01*
X170903823Y-114420349D01*
X170903822Y-114420347D01*
X170764652Y-114281177D01*
X170764650Y-114281176D01*
X170764646Y-114281172D01*
X170652049Y-114199365D01*
X170605407Y-114165477D01*
X170538801Y-114131540D01*
X170430025Y-114076116D01*
X170430021Y-114076115D01*
X170430018Y-114076113D01*
X170242828Y-114015291D01*
X170242820Y-114015289D01*
X170048417Y-113984500D01*
X169851583Y-113984500D01*
X169657179Y-114015289D01*
X169657171Y-114015291D01*
X169469982Y-114076113D01*
X169469981Y-114076113D01*
X169294592Y-114165477D01*
X169207005Y-114229114D01*
X169135354Y-114281172D01*
X169135352Y-114281173D01*
X169135349Y-114281176D01*
X169135347Y-114281177D01*
X168996177Y-114420347D01*
X168996176Y-114420349D01*
X168996173Y-114420352D01*
X168996172Y-114420354D01*
X168967091Y-114460379D01*
X168880472Y-114579599D01*
X168857310Y-114625059D01*
X168800552Y-114693044D01*
X168719917Y-114729670D01*
X168631376Y-114727683D01*
X168552466Y-114687476D01*
X168502690Y-114625059D01*
X168479527Y-114579599D01*
X168462712Y-114556455D01*
X168363828Y-114420354D01*
X168363823Y-114420349D01*
X168363822Y-114420347D01*
X168224652Y-114281177D01*
X168224650Y-114281176D01*
X168224646Y-114281172D01*
X168112049Y-114199365D01*
X168065407Y-114165477D01*
X167998801Y-114131540D01*
X167890025Y-114076116D01*
X167890021Y-114076115D01*
X167890018Y-114076113D01*
X167702828Y-114015291D01*
X167702820Y-114015289D01*
X167508417Y-113984500D01*
X167311583Y-113984500D01*
X167117179Y-114015289D01*
X167117171Y-114015291D01*
X166929982Y-114076113D01*
X166929981Y-114076113D01*
X166754592Y-114165477D01*
X166667005Y-114229114D01*
X166595354Y-114281172D01*
X166595352Y-114281173D01*
X166595349Y-114281176D01*
X166595347Y-114281177D01*
X166456177Y-114420347D01*
X166456176Y-114420349D01*
X166456173Y-114420352D01*
X166456172Y-114420354D01*
X166427091Y-114460379D01*
X166340472Y-114579599D01*
X166317310Y-114625059D01*
X166260552Y-114693044D01*
X166179917Y-114729670D01*
X166091376Y-114727683D01*
X166012466Y-114687476D01*
X165962690Y-114625059D01*
X165939527Y-114579599D01*
X165922712Y-114556455D01*
X165823828Y-114420354D01*
X165823823Y-114420349D01*
X165823822Y-114420347D01*
X165684652Y-114281177D01*
X165684650Y-114281176D01*
X165684646Y-114281172D01*
X165572049Y-114199365D01*
X165525407Y-114165477D01*
X165458801Y-114131540D01*
X165350025Y-114076116D01*
X165350021Y-114076115D01*
X165350018Y-114076113D01*
X165162828Y-114015291D01*
X165162820Y-114015289D01*
X164968417Y-113984500D01*
X164771583Y-113984500D01*
X164577179Y-114015289D01*
X164577171Y-114015291D01*
X164389982Y-114076113D01*
X164389981Y-114076113D01*
X164214592Y-114165477D01*
X164127005Y-114229114D01*
X164055354Y-114281172D01*
X164055352Y-114281173D01*
X164055349Y-114281176D01*
X164055347Y-114281177D01*
X163916177Y-114420347D01*
X163916176Y-114420349D01*
X163916173Y-114420352D01*
X163916172Y-114420354D01*
X163887091Y-114460379D01*
X163800472Y-114579599D01*
X163777310Y-114625059D01*
X163720552Y-114693044D01*
X163639917Y-114729670D01*
X163551376Y-114727683D01*
X163472466Y-114687476D01*
X163422690Y-114625059D01*
X163399527Y-114579599D01*
X163382712Y-114556455D01*
X163283828Y-114420354D01*
X163283823Y-114420349D01*
X163283822Y-114420347D01*
X163144652Y-114281177D01*
X163144650Y-114281176D01*
X163144646Y-114281172D01*
X163032049Y-114199365D01*
X162985407Y-114165477D01*
X162918801Y-114131540D01*
X162810025Y-114076116D01*
X162810021Y-114076115D01*
X162810018Y-114076113D01*
X162622828Y-114015291D01*
X162622820Y-114015289D01*
X162428417Y-113984500D01*
X162231583Y-113984500D01*
X162037179Y-114015289D01*
X162037171Y-114015291D01*
X161849982Y-114076113D01*
X161849981Y-114076113D01*
X161674592Y-114165477D01*
X161587005Y-114229114D01*
X161515354Y-114281172D01*
X161515352Y-114281173D01*
X161515349Y-114281176D01*
X161515347Y-114281177D01*
X161376177Y-114420347D01*
X161376176Y-114420349D01*
X161376173Y-114420352D01*
X161376172Y-114420354D01*
X161347091Y-114460379D01*
X161260472Y-114579599D01*
X161237310Y-114625059D01*
X161180552Y-114693044D01*
X161099917Y-114729670D01*
X161011376Y-114727683D01*
X160932466Y-114687476D01*
X160882690Y-114625059D01*
X160859527Y-114579599D01*
X160842712Y-114556455D01*
X160743828Y-114420354D01*
X160743823Y-114420349D01*
X160743822Y-114420347D01*
X160604652Y-114281177D01*
X160604650Y-114281176D01*
X160604646Y-114281172D01*
X160492049Y-114199365D01*
X160445407Y-114165477D01*
X160378801Y-114131540D01*
X160270025Y-114076116D01*
X160270021Y-114076115D01*
X160270018Y-114076113D01*
X160082828Y-114015291D01*
X160082820Y-114015289D01*
X159888417Y-113984500D01*
X159691583Y-113984500D01*
X159497179Y-114015289D01*
X159497171Y-114015291D01*
X159309982Y-114076113D01*
X159309981Y-114076113D01*
X159134592Y-114165477D01*
X159047005Y-114229114D01*
X158975354Y-114281172D01*
X158975352Y-114281173D01*
X158975349Y-114281176D01*
X158975347Y-114281177D01*
X158836177Y-114420347D01*
X158836176Y-114420349D01*
X158836173Y-114420352D01*
X158836172Y-114420354D01*
X158807091Y-114460379D01*
X158720472Y-114579599D01*
X158697310Y-114625059D01*
X158640552Y-114693044D01*
X158559917Y-114729670D01*
X158471376Y-114727683D01*
X158392466Y-114687476D01*
X158342690Y-114625059D01*
X158319527Y-114579599D01*
X158302712Y-114556455D01*
X158203828Y-114420354D01*
X158203823Y-114420349D01*
X158203822Y-114420347D01*
X158064652Y-114281177D01*
X158064650Y-114281176D01*
X158064646Y-114281172D01*
X157952049Y-114199365D01*
X157905407Y-114165477D01*
X157838801Y-114131540D01*
X157730025Y-114076116D01*
X157730021Y-114076115D01*
X157730018Y-114076113D01*
X157542828Y-114015291D01*
X157542820Y-114015289D01*
X157348417Y-113984500D01*
X157151583Y-113984500D01*
X156957179Y-114015289D01*
X156957171Y-114015291D01*
X156769982Y-114076113D01*
X156769981Y-114076113D01*
X156594592Y-114165477D01*
X156507005Y-114229114D01*
X156435354Y-114281172D01*
X156435352Y-114281173D01*
X156435349Y-114281176D01*
X156435347Y-114281177D01*
X156296177Y-114420347D01*
X156296176Y-114420349D01*
X156296173Y-114420352D01*
X156296172Y-114420354D01*
X156267091Y-114460379D01*
X156180472Y-114579599D01*
X156157310Y-114625059D01*
X156100552Y-114693044D01*
X156019917Y-114729670D01*
X155931376Y-114727683D01*
X155852466Y-114687476D01*
X155802690Y-114625059D01*
X155779527Y-114579599D01*
X155762712Y-114556455D01*
X155663828Y-114420354D01*
X155663823Y-114420349D01*
X155663822Y-114420347D01*
X155524652Y-114281177D01*
X155524650Y-114281176D01*
X155524646Y-114281172D01*
X155412049Y-114199365D01*
X155365407Y-114165477D01*
X155298801Y-114131540D01*
X155190025Y-114076116D01*
X155190021Y-114076115D01*
X155190018Y-114076113D01*
X155002828Y-114015291D01*
X155002820Y-114015289D01*
X154808417Y-113984500D01*
X154611583Y-113984500D01*
X154417179Y-114015289D01*
X154417171Y-114015291D01*
X154229982Y-114076113D01*
X154229981Y-114076113D01*
X154054592Y-114165477D01*
X153967005Y-114229114D01*
X153895354Y-114281172D01*
X153895352Y-114281173D01*
X153895349Y-114281176D01*
X153895347Y-114281177D01*
X153756177Y-114420347D01*
X153756176Y-114420349D01*
X153756173Y-114420352D01*
X153756172Y-114420354D01*
X153721003Y-114468760D01*
X153640472Y-114579600D01*
X153627304Y-114605444D01*
X153570546Y-114673429D01*
X153489910Y-114710054D01*
X153401369Y-114708066D01*
X153322459Y-114667858D01*
X153278709Y-114616400D01*
X153268169Y-114598579D01*
X153156420Y-114486830D01*
X153020390Y-114406381D01*
X152924400Y-114378494D01*
X152868627Y-114362291D01*
X152833163Y-114359500D01*
X152833157Y-114359500D01*
X152256842Y-114359500D01*
X152221372Y-114362291D01*
X152069608Y-114406382D01*
X151933579Y-114486830D01*
X151821830Y-114598579D01*
X151741381Y-114734609D01*
X151697291Y-114886374D01*
X151694500Y-114921842D01*
X151694500Y-115548157D01*
X151697291Y-115583627D01*
X151741382Y-115735391D01*
X151806170Y-115844941D01*
X151821830Y-115871420D01*
X151933580Y-115983170D01*
X151950733Y-115993314D01*
X152069609Y-116063618D01*
X152097496Y-116071719D01*
X152221373Y-116107709D01*
X152256837Y-116110500D01*
X152646258Y-116110499D01*
X152732600Y-116130206D01*
X152801842Y-116185424D01*
X152840269Y-116265217D01*
X152840269Y-116353780D01*
X152801843Y-116433573D01*
X152786972Y-116450213D01*
X152210972Y-117026214D01*
X152135984Y-117073333D01*
X152070258Y-117084500D01*
X142609742Y-117084500D01*
X142523399Y-117064793D01*
X142469028Y-117026214D01*
X140878786Y-115435972D01*
X140831667Y-115360984D01*
X140820500Y-115295258D01*
X140820500Y-114873741D01*
X140840207Y-114787398D01*
X140895426Y-114718157D01*
X140975218Y-114679730D01*
X141063782Y-114679730D01*
X141143574Y-114718157D01*
X141160214Y-114733027D01*
X141919498Y-115492311D01*
X141919500Y-115492314D01*
X142012686Y-115585500D01*
X142125948Y-115650892D01*
X142126814Y-115651392D01*
X142254107Y-115685500D01*
X146985890Y-115685500D01*
X146985892Y-115685500D01*
X147113186Y-115651392D01*
X147227314Y-115585500D01*
X152420500Y-110392314D01*
X152486392Y-110278186D01*
X152520500Y-110150893D01*
X152520500Y-110019108D01*
X152520500Y-108714741D01*
X152540207Y-108628398D01*
X152578783Y-108574030D01*
X153119786Y-108033026D01*
X153194774Y-107985908D01*
X153282781Y-107975992D01*
X153366374Y-108005243D01*
X153428998Y-108067867D01*
X153458249Y-108151460D01*
X153459500Y-108173741D01*
X153459500Y-109156518D01*
X153465558Y-109194766D01*
X153474353Y-109250300D01*
X153474354Y-109250303D01*
X153474354Y-109250305D01*
X153531951Y-109363344D01*
X153621657Y-109453050D01*
X153692425Y-109489108D01*
X153734696Y-109510646D01*
X153828481Y-109525500D01*
X154100500Y-109525499D01*
X154122357Y-109530488D01*
X154144782Y-109530488D01*
X154164984Y-109540217D01*
X154186842Y-109545206D01*
X154204373Y-109559186D01*
X154224574Y-109568915D01*
X154238552Y-109586443D01*
X154256084Y-109600424D01*
X154265812Y-109620625D01*
X154279793Y-109638156D01*
X154284782Y-109660018D01*
X154294510Y-109680217D01*
X154299500Y-109724499D01*
X154299500Y-109892982D01*
X154279793Y-109979325D01*
X154224574Y-110048566D01*
X154221644Y-110050859D01*
X154096718Y-110146718D01*
X154000464Y-110272156D01*
X154000463Y-110272159D01*
X153939957Y-110418235D01*
X153939956Y-110418237D01*
X153924500Y-110535641D01*
X153924500Y-111014357D01*
X153939956Y-111131765D01*
X154000463Y-111277840D01*
X154000464Y-111277843D01*
X154064633Y-111361468D01*
X154096718Y-111403282D01*
X154151209Y-111445094D01*
X154222156Y-111499535D01*
X154222159Y-111499536D01*
X154368238Y-111560044D01*
X154485639Y-111575500D01*
X155114360Y-111575499D01*
X155231762Y-111560044D01*
X155231764Y-111560043D01*
X155231765Y-111560043D01*
X155231765Y-111560042D01*
X155377841Y-111499536D01*
X155377841Y-111499535D01*
X155377843Y-111499535D01*
X155406976Y-111477179D01*
X155503282Y-111403282D01*
X155577179Y-111306976D01*
X155599535Y-111277843D01*
X155599536Y-111277840D01*
X155660044Y-111131762D01*
X155675500Y-111014361D01*
X155675499Y-110535640D01*
X155660044Y-110418238D01*
X155660043Y-110418235D01*
X155660043Y-110418234D01*
X155599536Y-110272159D01*
X155599535Y-110272156D01*
X155545094Y-110201209D01*
X155503282Y-110146718D01*
X155378356Y-110050859D01*
X155377140Y-110049391D01*
X155375426Y-110048566D01*
X155348954Y-110015372D01*
X155321853Y-109982662D01*
X155321394Y-109980814D01*
X155320207Y-109979325D01*
X155310754Y-109937909D01*
X155300535Y-109896703D01*
X155300500Y-109892982D01*
X155300500Y-109724499D01*
X155320207Y-109638156D01*
X155375426Y-109568915D01*
X155455218Y-109530488D01*
X155499500Y-109525499D01*
X155591518Y-109525499D01*
X155685304Y-109510646D01*
X155798342Y-109453050D01*
X155888050Y-109363342D01*
X155945646Y-109250304D01*
X155954442Y-109194764D01*
X155987413Y-109112569D01*
X156052783Y-109052817D01*
X156137604Y-109027346D01*
X156225077Y-109041200D01*
X156291706Y-109085181D01*
X156435347Y-109228822D01*
X156435349Y-109228823D01*
X156435354Y-109228828D01*
X156594595Y-109344524D01*
X156690844Y-109393565D01*
X156706362Y-109406520D01*
X156724574Y-109415291D01*
X156739924Y-109434539D01*
X156758829Y-109450322D01*
X156767189Y-109468727D01*
X156779793Y-109484532D01*
X156785272Y-109508539D01*
X156795455Y-109530957D01*
X156799500Y-109570875D01*
X156799500Y-109892982D01*
X156779793Y-109979325D01*
X156724574Y-110048566D01*
X156721644Y-110050859D01*
X156596718Y-110146718D01*
X156500464Y-110272156D01*
X156500463Y-110272159D01*
X156439957Y-110418235D01*
X156439956Y-110418237D01*
X156424500Y-110535641D01*
X156424500Y-111014357D01*
X156439956Y-111131765D01*
X156500463Y-111277840D01*
X156500464Y-111277843D01*
X156564633Y-111361468D01*
X156596718Y-111403282D01*
X156651209Y-111445094D01*
X156722156Y-111499535D01*
X156722159Y-111499536D01*
X156868238Y-111560044D01*
X156985639Y-111575500D01*
X157614360Y-111575499D01*
X157731762Y-111560044D01*
X157731764Y-111560043D01*
X157731765Y-111560043D01*
X157731765Y-111560042D01*
X157877841Y-111499536D01*
X157877841Y-111499535D01*
X157877843Y-111499535D01*
X157906976Y-111477179D01*
X158003282Y-111403282D01*
X158077179Y-111306976D01*
X158099535Y-111277843D01*
X158099536Y-111277840D01*
X158160044Y-111131762D01*
X158175500Y-111014361D01*
X158175499Y-110535640D01*
X158160044Y-110418238D01*
X158160043Y-110418235D01*
X158160043Y-110418234D01*
X158099536Y-110272159D01*
X158099535Y-110272156D01*
X158045094Y-110201209D01*
X158003282Y-110146718D01*
X157878356Y-110050859D01*
X157877140Y-110049391D01*
X157875426Y-110048566D01*
X157848954Y-110015372D01*
X157821853Y-109982662D01*
X157821394Y-109980814D01*
X157820207Y-109979325D01*
X157810754Y-109937909D01*
X157800535Y-109896703D01*
X157800500Y-109892982D01*
X157800500Y-109519923D01*
X157820207Y-109433580D01*
X157875426Y-109364339D01*
X157899052Y-109349120D01*
X157898739Y-109348609D01*
X157905396Y-109344528D01*
X157905405Y-109344524D01*
X158064646Y-109228828D01*
X158203828Y-109089646D01*
X158319524Y-108930405D01*
X158342690Y-108884938D01*
X158399447Y-108816955D01*
X158480081Y-108780328D01*
X158568622Y-108782314D01*
X158647533Y-108822521D01*
X158697309Y-108884938D01*
X158720476Y-108930405D01*
X158836172Y-109089646D01*
X158836176Y-109089650D01*
X158836177Y-109089652D01*
X158975347Y-109228822D01*
X158975349Y-109228823D01*
X158975354Y-109228828D01*
X159134595Y-109344524D01*
X159290845Y-109424137D01*
X159306362Y-109437091D01*
X159324574Y-109445862D01*
X159339924Y-109465110D01*
X159358829Y-109480893D01*
X159367189Y-109499298D01*
X159379793Y-109515103D01*
X159385272Y-109539110D01*
X159395455Y-109561528D01*
X159399500Y-109601446D01*
X159399500Y-109892982D01*
X159379793Y-109979325D01*
X159324574Y-110048566D01*
X159321644Y-110050859D01*
X159196718Y-110146718D01*
X159100464Y-110272156D01*
X159100463Y-110272159D01*
X159039957Y-110418235D01*
X159039956Y-110418237D01*
X159024500Y-110535641D01*
X159024500Y-111014357D01*
X159039956Y-111131765D01*
X159100463Y-111277840D01*
X159100464Y-111277843D01*
X159164633Y-111361468D01*
X159196718Y-111403282D01*
X159251209Y-111445094D01*
X159322156Y-111499535D01*
X159322159Y-111499536D01*
X159468238Y-111560044D01*
X159585639Y-111575500D01*
X160214360Y-111575499D01*
X160331762Y-111560044D01*
X160331764Y-111560043D01*
X160331765Y-111560043D01*
X160331765Y-111560042D01*
X160477841Y-111499536D01*
X160477841Y-111499535D01*
X160477843Y-111499535D01*
X160506976Y-111477179D01*
X160603282Y-111403282D01*
X160677179Y-111306976D01*
X160699535Y-111277843D01*
X160699536Y-111277840D01*
X160760044Y-111131762D01*
X160775500Y-111014361D01*
X160775499Y-110535640D01*
X160760044Y-110418238D01*
X160760043Y-110418235D01*
X160760043Y-110418234D01*
X160699536Y-110272159D01*
X160699535Y-110272156D01*
X160645094Y-110201209D01*
X160603282Y-110146718D01*
X160478356Y-110050859D01*
X160421853Y-109982662D01*
X160400535Y-109896703D01*
X160400500Y-109892982D01*
X160400500Y-109478544D01*
X160420207Y-109392201D01*
X160475426Y-109322960D01*
X160482531Y-109317550D01*
X160528020Y-109284500D01*
X160604646Y-109228828D01*
X160743828Y-109089646D01*
X160859524Y-108930405D01*
X160882690Y-108884938D01*
X160939447Y-108816955D01*
X161020081Y-108780328D01*
X161108622Y-108782314D01*
X161187533Y-108822521D01*
X161237309Y-108884938D01*
X161260476Y-108930405D01*
X161376172Y-109089646D01*
X161376176Y-109089650D01*
X161376177Y-109089652D01*
X161515347Y-109228822D01*
X161515349Y-109228823D01*
X161515354Y-109228828D01*
X161591980Y-109284500D01*
X161674596Y-109344525D01*
X161690840Y-109352801D01*
X161706360Y-109365757D01*
X161724574Y-109374529D01*
X161739923Y-109393776D01*
X161758827Y-109409557D01*
X161767189Y-109427965D01*
X161779793Y-109443770D01*
X161785271Y-109467772D01*
X161795455Y-109490191D01*
X161799500Y-109530113D01*
X161799500Y-109892982D01*
X161779793Y-109979325D01*
X161724574Y-110048566D01*
X161721644Y-110050859D01*
X161596718Y-110146718D01*
X161500464Y-110272156D01*
X161500463Y-110272159D01*
X161439957Y-110418235D01*
X161439956Y-110418237D01*
X161424500Y-110535641D01*
X161424500Y-111014357D01*
X161439956Y-111131765D01*
X161500463Y-111277840D01*
X161500464Y-111277843D01*
X161564633Y-111361468D01*
X161596718Y-111403282D01*
X161651209Y-111445094D01*
X161722156Y-111499535D01*
X161722159Y-111499536D01*
X161868238Y-111560044D01*
X161985639Y-111575500D01*
X162614360Y-111575499D01*
X162731762Y-111560044D01*
X162731764Y-111560043D01*
X162731765Y-111560043D01*
X162731765Y-111560042D01*
X162877841Y-111499536D01*
X162877841Y-111499535D01*
X162877843Y-111499535D01*
X162906976Y-111477179D01*
X163003282Y-111403282D01*
X163077179Y-111306976D01*
X163099535Y-111277843D01*
X163099536Y-111277840D01*
X163160044Y-111131762D01*
X163175500Y-111014361D01*
X163175499Y-110535640D01*
X163160044Y-110418238D01*
X163160043Y-110418235D01*
X163160043Y-110418234D01*
X163099536Y-110272159D01*
X163099535Y-110272156D01*
X163045094Y-110201209D01*
X163003282Y-110146718D01*
X162878356Y-110050859D01*
X162877140Y-110049391D01*
X162875426Y-110048566D01*
X162848954Y-110015372D01*
X162821853Y-109982662D01*
X162821394Y-109980814D01*
X162820207Y-109979325D01*
X162810754Y-109937909D01*
X162800535Y-109896703D01*
X162800500Y-109892982D01*
X162800500Y-109560685D01*
X162820207Y-109474342D01*
X162875426Y-109405101D01*
X162909156Y-109383375D01*
X162969160Y-109352801D01*
X162985405Y-109344524D01*
X163144646Y-109228828D01*
X163283828Y-109089646D01*
X163399524Y-108930405D01*
X163422690Y-108884938D01*
X163479447Y-108816955D01*
X163560081Y-108780328D01*
X163648622Y-108782314D01*
X163727533Y-108822521D01*
X163777309Y-108884938D01*
X163800476Y-108930405D01*
X163916172Y-109089646D01*
X163916176Y-109089650D01*
X163916177Y-109089652D01*
X164055347Y-109228822D01*
X164055349Y-109228823D01*
X164055354Y-109228828D01*
X164214595Y-109344524D01*
X164214597Y-109344525D01*
X164290844Y-109383375D01*
X164306361Y-109396330D01*
X164324574Y-109405101D01*
X164339926Y-109424352D01*
X164358829Y-109440133D01*
X164367188Y-109458536D01*
X164379793Y-109474342D01*
X164385272Y-109498349D01*
X164395455Y-109520767D01*
X164399500Y-109560685D01*
X164399500Y-109892982D01*
X164379793Y-109979325D01*
X164324574Y-110048566D01*
X164321644Y-110050859D01*
X164196718Y-110146718D01*
X164100464Y-110272156D01*
X164100463Y-110272159D01*
X164039957Y-110418235D01*
X164039956Y-110418237D01*
X164024500Y-110535641D01*
X164024500Y-111014357D01*
X164039956Y-111131765D01*
X164100463Y-111277840D01*
X164100464Y-111277843D01*
X164164633Y-111361468D01*
X164196718Y-111403282D01*
X164251209Y-111445094D01*
X164322156Y-111499535D01*
X164322159Y-111499536D01*
X164468238Y-111560044D01*
X164585639Y-111575500D01*
X165214360Y-111575499D01*
X165331762Y-111560044D01*
X165331764Y-111560043D01*
X165331765Y-111560043D01*
X165331765Y-111560042D01*
X165477841Y-111499536D01*
X165477841Y-111499535D01*
X165477843Y-111499535D01*
X165506976Y-111477179D01*
X165603282Y-111403282D01*
X165677179Y-111306976D01*
X165699535Y-111277843D01*
X165699536Y-111277840D01*
X165760044Y-111131762D01*
X165775500Y-111014361D01*
X165775499Y-110535640D01*
X165760044Y-110418238D01*
X165760043Y-110418235D01*
X165760043Y-110418234D01*
X165699536Y-110272159D01*
X165699535Y-110272156D01*
X165645094Y-110201209D01*
X165603282Y-110146718D01*
X165478356Y-110050859D01*
X165477140Y-110049391D01*
X165475426Y-110048566D01*
X165448954Y-110015372D01*
X165421853Y-109982662D01*
X165421394Y-109980814D01*
X165420207Y-109979325D01*
X165410754Y-109937909D01*
X165400535Y-109896703D01*
X165400500Y-109892982D01*
X165400500Y-109530113D01*
X165420207Y-109443770D01*
X165475426Y-109374529D01*
X165509160Y-109352801D01*
X165517388Y-109348609D01*
X165525405Y-109344524D01*
X165684646Y-109228828D01*
X165823828Y-109089646D01*
X165939524Y-108930405D01*
X165962690Y-108884938D01*
X166019447Y-108816955D01*
X166100081Y-108780328D01*
X166188622Y-108782314D01*
X166267533Y-108822521D01*
X166317309Y-108884938D01*
X166340476Y-108930405D01*
X166456172Y-109089646D01*
X166456176Y-109089650D01*
X166456177Y-109089652D01*
X166595347Y-109228822D01*
X166595349Y-109228823D01*
X166595354Y-109228828D01*
X166754595Y-109344524D01*
X166890844Y-109413945D01*
X166906362Y-109426901D01*
X166924574Y-109435672D01*
X166939924Y-109454920D01*
X166958829Y-109470703D01*
X166967189Y-109489108D01*
X166979793Y-109504913D01*
X166985272Y-109528920D01*
X166995455Y-109551338D01*
X166999500Y-109591256D01*
X166999500Y-109892982D01*
X166979793Y-109979325D01*
X166924574Y-110048566D01*
X166921644Y-110050859D01*
X166796718Y-110146718D01*
X166700464Y-110272156D01*
X166700463Y-110272159D01*
X166639957Y-110418235D01*
X166639956Y-110418237D01*
X166624500Y-110535641D01*
X166624500Y-111014357D01*
X166639956Y-111131765D01*
X166700463Y-111277840D01*
X166700464Y-111277843D01*
X166764633Y-111361468D01*
X166796718Y-111403282D01*
X166851209Y-111445094D01*
X166922156Y-111499535D01*
X166922159Y-111499536D01*
X167068238Y-111560044D01*
X167185639Y-111575500D01*
X167814360Y-111575499D01*
X167931762Y-111560044D01*
X167931764Y-111560043D01*
X167931765Y-111560043D01*
X167931765Y-111560042D01*
X168077841Y-111499536D01*
X168077841Y-111499535D01*
X168077843Y-111499535D01*
X168106976Y-111477179D01*
X168203282Y-111403282D01*
X168277179Y-111306976D01*
X168299535Y-111277843D01*
X168299536Y-111277840D01*
X168360044Y-111131762D01*
X168375500Y-111014361D01*
X168375499Y-110535640D01*
X168360044Y-110418238D01*
X168360043Y-110418235D01*
X168360043Y-110418234D01*
X168299536Y-110272159D01*
X168299535Y-110272156D01*
X168245094Y-110201209D01*
X168203282Y-110146718D01*
X168078356Y-110050859D01*
X168077140Y-110049391D01*
X168075426Y-110048566D01*
X168048954Y-110015372D01*
X168021853Y-109982662D01*
X168021394Y-109980814D01*
X168020207Y-109979325D01*
X168010754Y-109937909D01*
X168000535Y-109896703D01*
X168000500Y-109892982D01*
X168000500Y-109493075D01*
X168020207Y-109406732D01*
X168075426Y-109337491D01*
X168082531Y-109332081D01*
X168148020Y-109284500D01*
X168224646Y-109228828D01*
X168363828Y-109089646D01*
X168479524Y-108930405D01*
X168502690Y-108884938D01*
X168559447Y-108816955D01*
X168640081Y-108780328D01*
X168728622Y-108782314D01*
X168807533Y-108822521D01*
X168857309Y-108884938D01*
X168880476Y-108930405D01*
X168996172Y-109089646D01*
X168996176Y-109089650D01*
X168996177Y-109089652D01*
X169135347Y-109228822D01*
X169135349Y-109228823D01*
X169135354Y-109228828D01*
X169294595Y-109344524D01*
X169390844Y-109393565D01*
X169406362Y-109406520D01*
X169424574Y-109415291D01*
X169439924Y-109434539D01*
X169458829Y-109450322D01*
X169467189Y-109468727D01*
X169479793Y-109484532D01*
X169485272Y-109508539D01*
X169495455Y-109530957D01*
X169499500Y-109570875D01*
X169499500Y-109892982D01*
X169479793Y-109979325D01*
X169424574Y-110048566D01*
X169421644Y-110050859D01*
X169296718Y-110146718D01*
X169200464Y-110272156D01*
X169200463Y-110272159D01*
X169139957Y-110418235D01*
X169139956Y-110418237D01*
X169124500Y-110535641D01*
X169124500Y-111014357D01*
X169139956Y-111131765D01*
X169200463Y-111277840D01*
X169200464Y-111277843D01*
X169264633Y-111361468D01*
X169296718Y-111403282D01*
X169351209Y-111445094D01*
X169422156Y-111499535D01*
X169422159Y-111499536D01*
X169568238Y-111560044D01*
X169685639Y-111575500D01*
X170314360Y-111575499D01*
X170431762Y-111560044D01*
X170431764Y-111560043D01*
X170431765Y-111560043D01*
X170431765Y-111560042D01*
X170577841Y-111499536D01*
X170577841Y-111499535D01*
X170577843Y-111499535D01*
X170606976Y-111477179D01*
X170703282Y-111403282D01*
X170777179Y-111306976D01*
X170799535Y-111277843D01*
X170799536Y-111277840D01*
X170860044Y-111131762D01*
X170875500Y-111014361D01*
X170875499Y-110535640D01*
X170860044Y-110418238D01*
X170860043Y-110418235D01*
X170860043Y-110418234D01*
X170799536Y-110272159D01*
X170799535Y-110272156D01*
X170745094Y-110201209D01*
X170703282Y-110146718D01*
X170578356Y-110050859D01*
X170577140Y-110049391D01*
X170575426Y-110048566D01*
X170548954Y-110015372D01*
X170521853Y-109982662D01*
X170521394Y-109980814D01*
X170520207Y-109979325D01*
X170510754Y-109937909D01*
X170500535Y-109896703D01*
X170500500Y-109892982D01*
X170500500Y-109519923D01*
X170520207Y-109433580D01*
X170575426Y-109364339D01*
X170599052Y-109349120D01*
X170598739Y-109348609D01*
X170605396Y-109344528D01*
X170605405Y-109344524D01*
X170764646Y-109228828D01*
X170903828Y-109089646D01*
X171019524Y-108930405D01*
X171042690Y-108884938D01*
X171099447Y-108816955D01*
X171180081Y-108780328D01*
X171268622Y-108782314D01*
X171347533Y-108822521D01*
X171397309Y-108884938D01*
X171420476Y-108930405D01*
X171536172Y-109089646D01*
X171536176Y-109089650D01*
X171536177Y-109089652D01*
X171675347Y-109228822D01*
X171675349Y-109228823D01*
X171675354Y-109228828D01*
X171834595Y-109344524D01*
X171990845Y-109424137D01*
X172006362Y-109437091D01*
X172024574Y-109445862D01*
X172039924Y-109465110D01*
X172058829Y-109480893D01*
X172067189Y-109499298D01*
X172079793Y-109515103D01*
X172085272Y-109539110D01*
X172095455Y-109561528D01*
X172099500Y-109601446D01*
X172099500Y-109892982D01*
X172079793Y-109979325D01*
X172024574Y-110048566D01*
X172021644Y-110050859D01*
X171896718Y-110146718D01*
X171800464Y-110272156D01*
X171800463Y-110272159D01*
X171739957Y-110418235D01*
X171739956Y-110418237D01*
X171724500Y-110535641D01*
X171724500Y-111014357D01*
X171739956Y-111131765D01*
X171800463Y-111277840D01*
X171800464Y-111277843D01*
X171864633Y-111361468D01*
X171896718Y-111403282D01*
X171951209Y-111445094D01*
X172022156Y-111499535D01*
X172022159Y-111499536D01*
X172168238Y-111560044D01*
X172285639Y-111575500D01*
X172914360Y-111575499D01*
X173031762Y-111560044D01*
X173031764Y-111560043D01*
X173031765Y-111560043D01*
X173031765Y-111560042D01*
X173177841Y-111499536D01*
X173177841Y-111499535D01*
X173177843Y-111499535D01*
X173206976Y-111477179D01*
X173303282Y-111403282D01*
X173377179Y-111306976D01*
X173399535Y-111277843D01*
X173399536Y-111277840D01*
X173460044Y-111131762D01*
X173475500Y-111014361D01*
X173475499Y-110535640D01*
X173460044Y-110418238D01*
X173460043Y-110418235D01*
X173460043Y-110418234D01*
X173399536Y-110272159D01*
X173399535Y-110272156D01*
X173345094Y-110201209D01*
X173303282Y-110146718D01*
X173178356Y-110050859D01*
X173121853Y-109982662D01*
X173100535Y-109896703D01*
X173100500Y-109892982D01*
X173100500Y-109478544D01*
X173120207Y-109392201D01*
X173175426Y-109322960D01*
X173182531Y-109317550D01*
X173228020Y-109284500D01*
X173304646Y-109228828D01*
X173443828Y-109089646D01*
X173559524Y-108930405D01*
X173648884Y-108755025D01*
X173709709Y-108567826D01*
X173740500Y-108373417D01*
X173740500Y-108176583D01*
X173713363Y-108005243D01*
X173709710Y-107982179D01*
X173709708Y-107982171D01*
X173648886Y-107794982D01*
X173648886Y-107794981D01*
X173648885Y-107794980D01*
X173648884Y-107794975D01*
X173559524Y-107619595D01*
X173443828Y-107460354D01*
X173443823Y-107460349D01*
X173443822Y-107460347D01*
X173304652Y-107321177D01*
X173304650Y-107321176D01*
X173304646Y-107321172D01*
X173145405Y-107205476D01*
X173099938Y-107182309D01*
X173031955Y-107125553D01*
X172995328Y-107044919D01*
X172997314Y-106956378D01*
X173037521Y-106877467D01*
X173099938Y-106827690D01*
X173145405Y-106804524D01*
X173304646Y-106688828D01*
X173443828Y-106549646D01*
X173559524Y-106390405D01*
X173648884Y-106215025D01*
X173709709Y-106027826D01*
X173740500Y-105833417D01*
X173740500Y-105636583D01*
X173709709Y-105442174D01*
X173648884Y-105254975D01*
X173559524Y-105079595D01*
X173443828Y-104920354D01*
X173443823Y-104920349D01*
X173443822Y-104920347D01*
X173304652Y-104781177D01*
X173304650Y-104781176D01*
X173304646Y-104781172D01*
X173192049Y-104699365D01*
X173145407Y-104665477D01*
X173139704Y-104662571D01*
X172970025Y-104576116D01*
X172970021Y-104576115D01*
X172970018Y-104576113D01*
X172782828Y-104515291D01*
X172782820Y-104515289D01*
X172588417Y-104484500D01*
X172391583Y-104484500D01*
X172197179Y-104515289D01*
X172197171Y-104515291D01*
X172009982Y-104576113D01*
X172009981Y-104576113D01*
X171834592Y-104665477D01*
X171713156Y-104753706D01*
X171675354Y-104781172D01*
X171675352Y-104781173D01*
X171675349Y-104781176D01*
X171675347Y-104781177D01*
X171536177Y-104920347D01*
X171536176Y-104920349D01*
X171536173Y-104920352D01*
X171536172Y-104920354D01*
X171507091Y-104960379D01*
X171420472Y-105079599D01*
X171397310Y-105125059D01*
X171340552Y-105193044D01*
X171259917Y-105229670D01*
X171171376Y-105227683D01*
X171092466Y-105187476D01*
X171042690Y-105125059D01*
X171019527Y-105079599D01*
X170956110Y-104992314D01*
X170903828Y-104920354D01*
X170903823Y-104920349D01*
X170903822Y-104920347D01*
X170764652Y-104781177D01*
X170764650Y-104781176D01*
X170764646Y-104781172D01*
X170652049Y-104699365D01*
X170605407Y-104665477D01*
X170599704Y-104662571D01*
X170430025Y-104576116D01*
X170430021Y-104576115D01*
X170430018Y-104576113D01*
X170242828Y-104515291D01*
X170242820Y-104515289D01*
X170048417Y-104484500D01*
X169851583Y-104484500D01*
X169657179Y-104515289D01*
X169657171Y-104515291D01*
X169469982Y-104576113D01*
X169469981Y-104576113D01*
X169294592Y-104665477D01*
X169173156Y-104753706D01*
X169135354Y-104781172D01*
X169135352Y-104781173D01*
X169135349Y-104781176D01*
X169135347Y-104781177D01*
X168996177Y-104920347D01*
X168996176Y-104920349D01*
X168996173Y-104920352D01*
X168996172Y-104920354D01*
X168967091Y-104960379D01*
X168880472Y-105079599D01*
X168857310Y-105125059D01*
X168800552Y-105193044D01*
X168719917Y-105229670D01*
X168631376Y-105227683D01*
X168552466Y-105187476D01*
X168502690Y-105125059D01*
X168479527Y-105079599D01*
X168416110Y-104992314D01*
X168363828Y-104920354D01*
X168363823Y-104920349D01*
X168363822Y-104920347D01*
X168224652Y-104781177D01*
X168224650Y-104781176D01*
X168224646Y-104781172D01*
X168112049Y-104699365D01*
X168065407Y-104665477D01*
X168059704Y-104662571D01*
X167890025Y-104576116D01*
X167890021Y-104576115D01*
X167890018Y-104576113D01*
X167702828Y-104515291D01*
X167702820Y-104515289D01*
X167508417Y-104484500D01*
X167311583Y-104484500D01*
X167117179Y-104515289D01*
X167117171Y-104515291D01*
X166929982Y-104576113D01*
X166929981Y-104576113D01*
X166754592Y-104665477D01*
X166633156Y-104753706D01*
X166595354Y-104781172D01*
X166595352Y-104781173D01*
X166595349Y-104781176D01*
X166595347Y-104781177D01*
X166456177Y-104920347D01*
X166456176Y-104920349D01*
X166456173Y-104920352D01*
X166456172Y-104920354D01*
X166427091Y-104960379D01*
X166340472Y-105079599D01*
X166317310Y-105125059D01*
X166260552Y-105193044D01*
X166179917Y-105229670D01*
X166091376Y-105227683D01*
X166012466Y-105187476D01*
X165962690Y-105125059D01*
X165939527Y-105079599D01*
X165876110Y-104992314D01*
X165823828Y-104920354D01*
X165823823Y-104920349D01*
X165823822Y-104920347D01*
X165684652Y-104781177D01*
X165684650Y-104781176D01*
X165684646Y-104781172D01*
X165572049Y-104699365D01*
X165525407Y-104665477D01*
X165519704Y-104662571D01*
X165350025Y-104576116D01*
X165350021Y-104576115D01*
X165350018Y-104576113D01*
X165162828Y-104515291D01*
X165162820Y-104515289D01*
X164968417Y-104484500D01*
X164771583Y-104484500D01*
X164577179Y-104515289D01*
X164577171Y-104515291D01*
X164389982Y-104576113D01*
X164389981Y-104576113D01*
X164214592Y-104665477D01*
X164093156Y-104753706D01*
X164055354Y-104781172D01*
X164055352Y-104781173D01*
X164055349Y-104781176D01*
X164055347Y-104781177D01*
X163916177Y-104920347D01*
X163916176Y-104920349D01*
X163916173Y-104920352D01*
X163916172Y-104920354D01*
X163887091Y-104960379D01*
X163800472Y-105079599D01*
X163777310Y-105125059D01*
X163720552Y-105193044D01*
X163639917Y-105229670D01*
X163551376Y-105227683D01*
X163472466Y-105187476D01*
X163422690Y-105125059D01*
X163399527Y-105079599D01*
X163336110Y-104992314D01*
X163283828Y-104920354D01*
X163283823Y-104920349D01*
X163283822Y-104920347D01*
X163144652Y-104781177D01*
X163144650Y-104781176D01*
X163144646Y-104781172D01*
X163032049Y-104699365D01*
X162985407Y-104665477D01*
X162979704Y-104662571D01*
X162810025Y-104576116D01*
X162810021Y-104576115D01*
X162810018Y-104576113D01*
X162622828Y-104515291D01*
X162622820Y-104515289D01*
X162428417Y-104484500D01*
X162231583Y-104484500D01*
X162037179Y-104515289D01*
X162037171Y-104515291D01*
X161849982Y-104576113D01*
X161849981Y-104576113D01*
X161674592Y-104665477D01*
X161553156Y-104753706D01*
X161515354Y-104781172D01*
X161515352Y-104781173D01*
X161515349Y-104781176D01*
X161515347Y-104781177D01*
X161376177Y-104920347D01*
X161376176Y-104920349D01*
X161376173Y-104920352D01*
X161376172Y-104920354D01*
X161347091Y-104960379D01*
X161260472Y-105079599D01*
X161237310Y-105125059D01*
X161180552Y-105193044D01*
X161099917Y-105229670D01*
X161011376Y-105227683D01*
X160932466Y-105187476D01*
X160882690Y-105125059D01*
X160859527Y-105079599D01*
X160796110Y-104992314D01*
X160743828Y-104920354D01*
X160743823Y-104920349D01*
X160743822Y-104920347D01*
X160604652Y-104781177D01*
X160604650Y-104781176D01*
X160604646Y-104781172D01*
X160492049Y-104699365D01*
X160445407Y-104665477D01*
X160439704Y-104662571D01*
X160270025Y-104576116D01*
X160270021Y-104576115D01*
X160270018Y-104576113D01*
X160082828Y-104515291D01*
X160082820Y-104515289D01*
X159888417Y-104484500D01*
X159691583Y-104484500D01*
X159497179Y-104515289D01*
X159497171Y-104515291D01*
X159309982Y-104576113D01*
X159309981Y-104576113D01*
X159134592Y-104665477D01*
X159013156Y-104753706D01*
X158975354Y-104781172D01*
X158975352Y-104781173D01*
X158975349Y-104781176D01*
X158975347Y-104781177D01*
X158836177Y-104920347D01*
X158836176Y-104920349D01*
X158836173Y-104920352D01*
X158836172Y-104920354D01*
X158807091Y-104960379D01*
X158720472Y-105079599D01*
X158697310Y-105125059D01*
X158640552Y-105193044D01*
X158559917Y-105229670D01*
X158471376Y-105227683D01*
X158392466Y-105187476D01*
X158342690Y-105125059D01*
X158319527Y-105079599D01*
X158256110Y-104992314D01*
X158203828Y-104920354D01*
X158203823Y-104920349D01*
X158203822Y-104920347D01*
X158064652Y-104781177D01*
X158064650Y-104781176D01*
X158064646Y-104781172D01*
X157952049Y-104699365D01*
X157905407Y-104665477D01*
X157899704Y-104662571D01*
X157730025Y-104576116D01*
X157730021Y-104576115D01*
X157730018Y-104576113D01*
X157542828Y-104515291D01*
X157542820Y-104515289D01*
X157348417Y-104484500D01*
X157151583Y-104484500D01*
X156957179Y-104515289D01*
X156957171Y-104515291D01*
X156769982Y-104576113D01*
X156769981Y-104576113D01*
X156594592Y-104665477D01*
X156473156Y-104753706D01*
X156435354Y-104781172D01*
X156435352Y-104781173D01*
X156435349Y-104781176D01*
X156435347Y-104781177D01*
X156296177Y-104920347D01*
X156296176Y-104920349D01*
X156296173Y-104920352D01*
X156296172Y-104920354D01*
X156267091Y-104960379D01*
X156180472Y-105079599D01*
X156157310Y-105125059D01*
X156100552Y-105193044D01*
X156019917Y-105229670D01*
X155931376Y-105227683D01*
X155852466Y-105187476D01*
X155802690Y-105125059D01*
X155779527Y-105079599D01*
X155716110Y-104992314D01*
X155663828Y-104920354D01*
X155663823Y-104920349D01*
X155663822Y-104920347D01*
X155524652Y-104781177D01*
X155524650Y-104781176D01*
X155524646Y-104781172D01*
X155412049Y-104699365D01*
X155365407Y-104665477D01*
X155359704Y-104662571D01*
X155190025Y-104576116D01*
X155190021Y-104576115D01*
X155190018Y-104576113D01*
X155002828Y-104515291D01*
X155002820Y-104515289D01*
X154808417Y-104484500D01*
X154611583Y-104484500D01*
X154417179Y-104515289D01*
X154417171Y-104515291D01*
X154229982Y-104576113D01*
X154229981Y-104576113D01*
X154054592Y-104665477D01*
X153933156Y-104753706D01*
X153895354Y-104781172D01*
X153895352Y-104781173D01*
X153895349Y-104781176D01*
X153895347Y-104781177D01*
X153756177Y-104920347D01*
X153756176Y-104920349D01*
X153756173Y-104920352D01*
X153756172Y-104920354D01*
X153707874Y-104986830D01*
X153640472Y-105079600D01*
X153627304Y-105105444D01*
X153570546Y-105173429D01*
X153489910Y-105210054D01*
X153401369Y-105208066D01*
X153322459Y-105167858D01*
X153278709Y-105116400D01*
X153268169Y-105098579D01*
X153156420Y-104986830D01*
X153020390Y-104906381D01*
X152924400Y-104878494D01*
X152868627Y-104862291D01*
X152833163Y-104859500D01*
X152833157Y-104859500D01*
X152256842Y-104859500D01*
X152221372Y-104862291D01*
X152069608Y-104906382D01*
X151933579Y-104986830D01*
X151821830Y-105098579D01*
X151741381Y-105234609D01*
X151697291Y-105386374D01*
X151694500Y-105421842D01*
X151694500Y-106048157D01*
X151697291Y-106083627D01*
X151741382Y-106235391D01*
X151788040Y-106314285D01*
X151821830Y-106371420D01*
X151933580Y-106483170D01*
X151989161Y-106516040D01*
X152069609Y-106563618D01*
X152097496Y-106571719D01*
X152221373Y-106607709D01*
X152256837Y-106610500D01*
X152646258Y-106610499D01*
X152732600Y-106630206D01*
X152801842Y-106685424D01*
X152840269Y-106765217D01*
X152840269Y-106853780D01*
X152801843Y-106933573D01*
X152786972Y-106950213D01*
X151712686Y-108024500D01*
X151619501Y-108117684D01*
X151553608Y-108231814D01*
X151519500Y-108359108D01*
X151519500Y-108359110D01*
X151519500Y-109795258D01*
X151499793Y-109881601D01*
X151461214Y-109935972D01*
X146770972Y-114626214D01*
X146695984Y-114673333D01*
X146630258Y-114684500D01*
X146478904Y-114684500D01*
X146392561Y-114664793D01*
X146323320Y-114609574D01*
X146284893Y-114529782D01*
X146284893Y-114441218D01*
X146323320Y-114361426D01*
X146379401Y-114313162D01*
X146427314Y-114285500D01*
X147610929Y-113101882D01*
X147610934Y-113101879D01*
X147627312Y-113085500D01*
X147627314Y-113085500D01*
X147720500Y-112992314D01*
X147786392Y-112878186D01*
X147811227Y-112785500D01*
X147820500Y-112750893D01*
X147820500Y-112619108D01*
X147820500Y-100519108D01*
X147786392Y-100391814D01*
X147720500Y-100277686D01*
X147627314Y-100184500D01*
X145727315Y-98284501D01*
X145727316Y-98284501D01*
X145703196Y-98270575D01*
X145613186Y-98218608D01*
X145485892Y-98184500D01*
X145485890Y-98184500D01*
X139927018Y-98184500D01*
X139840675Y-98164793D01*
X139771434Y-98109574D01*
X139769141Y-98106644D01*
X139755051Y-98088281D01*
X139673282Y-97981718D01*
X139629785Y-97948342D01*
X139547843Y-97885464D01*
X139547840Y-97885463D01*
X139401764Y-97824957D01*
X139401762Y-97824956D01*
X139284361Y-97809500D01*
X139284358Y-97809500D01*
X138805642Y-97809500D01*
X138688234Y-97824956D01*
X138688234Y-97824957D01*
X138542159Y-97885463D01*
X138542156Y-97885464D01*
X138416717Y-97981718D01*
X138377876Y-98032337D01*
X138309679Y-98088840D01*
X138223719Y-98110157D01*
X138137023Y-98092067D01*
X138066762Y-98038153D01*
X138062124Y-98032337D01*
X138023282Y-97981718D01*
X137897843Y-97885464D01*
X137897840Y-97885463D01*
X137751764Y-97824957D01*
X137751762Y-97824956D01*
X137634361Y-97809500D01*
X137634358Y-97809500D01*
X137155642Y-97809500D01*
X137038234Y-97824956D01*
X137038234Y-97824957D01*
X136892159Y-97885463D01*
X136892156Y-97885464D01*
X136766716Y-97981719D01*
X136693112Y-98077643D01*
X136624915Y-98134147D01*
X136538956Y-98155465D01*
X136535235Y-98155500D01*
X130348779Y-98155500D01*
X130262436Y-98135793D01*
X130238220Y-98121962D01*
X130151813Y-98064226D01*
X130151806Y-98064222D01*
X130024329Y-98011420D01*
X130024325Y-98011419D01*
X129925077Y-97991677D01*
X129888993Y-97984500D01*
X129888992Y-97984500D01*
X129879405Y-97982593D01*
X129879754Y-97980837D01*
X129807433Y-97956661D01*
X129770227Y-97927413D01*
X129027315Y-97184501D01*
X129027316Y-97184501D01*
X129003196Y-97170575D01*
X128913186Y-97118608D01*
X128785892Y-97084500D01*
X128785890Y-97084500D01*
X128348049Y-97084500D01*
X128286556Y-97074761D01*
X128285302Y-97074353D01*
X128191525Y-97059501D01*
X128191519Y-97059500D01*
X128191511Y-97059500D01*
X127848481Y-97059500D01*
X127754696Y-97074354D01*
X127754694Y-97074354D01*
X127641655Y-97131951D01*
X127551949Y-97221657D01*
X127494355Y-97334692D01*
X127494353Y-97334699D01*
X127479501Y-97428474D01*
X127479500Y-97428488D01*
X125270500Y-97428488D01*
X125270500Y-95273535D01*
X172392000Y-95273535D01*
X172392000Y-95496464D01*
X172421095Y-95717459D01*
X172478789Y-95932777D01*
X172478791Y-95932783D01*
X172564094Y-96138724D01*
X172564095Y-96138727D01*
X172675548Y-96331769D01*
X172811255Y-96508627D01*
X172968872Y-96666244D01*
X173145730Y-96801951D01*
X173338772Y-96913404D01*
X173338774Y-96913405D01*
X173544719Y-96998710D01*
X173760037Y-97056404D01*
X173954792Y-97082044D01*
X173981035Y-97085499D01*
X173981041Y-97085500D01*
X173981043Y-97085500D01*
X174203959Y-97085500D01*
X174203962Y-97085499D01*
X174424963Y-97056404D01*
X174640281Y-96998710D01*
X174846226Y-96913405D01*
X175039274Y-96801948D01*
X175216124Y-96666247D01*
X175373747Y-96508624D01*
X175509448Y-96331774D01*
X175620905Y-96138726D01*
X175706210Y-95932781D01*
X175763904Y-95717463D01*
X175793000Y-95496457D01*
X175793000Y-95273543D01*
X175763904Y-95052537D01*
X175706210Y-94837219D01*
X175620905Y-94631274D01*
X175620904Y-94631272D01*
X175509451Y-94438230D01*
X175373744Y-94261372D01*
X175216127Y-94103755D01*
X175039269Y-93968048D01*
X174846227Y-93856595D01*
X174846224Y-93856594D01*
X174640283Y-93771291D01*
X174640285Y-93771291D01*
X174640281Y-93771290D01*
X174424963Y-93713596D01*
X174424962Y-93713595D01*
X174424959Y-93713595D01*
X174203964Y-93684500D01*
X174203957Y-93684500D01*
X173981043Y-93684500D01*
X173981035Y-93684500D01*
X173760040Y-93713595D01*
X173544722Y-93771289D01*
X173544716Y-93771291D01*
X173338775Y-93856594D01*
X173338772Y-93856595D01*
X173145730Y-93968048D01*
X172968872Y-94103755D01*
X172811255Y-94261372D01*
X172675548Y-94438230D01*
X172564095Y-94631272D01*
X172564094Y-94631275D01*
X172478791Y-94837216D01*
X172478789Y-94837222D01*
X172421095Y-95052540D01*
X172392000Y-95273535D01*
X125270500Y-95273535D01*
X125270500Y-93332477D01*
X125290207Y-93246134D01*
X125330782Y-93189795D01*
X125355313Y-93165946D01*
X125469634Y-93054799D01*
X125997274Y-92541818D01*
X126072918Y-92495760D01*
X126135992Y-92485500D01*
X177737115Y-92485500D01*
X177823458Y-92505207D01*
G37*
%TD.AperFunction*%
M02*
