%TF.GenerationSoftware,KiCad,Pcbnew,9.0.6*%
%TF.CreationDate,2026-01-08T22:49:20+05:30*%
%TF.ProjectId,USB_PD_Trigger,5553425f-5044-45f5-9472-69676765722e,rev?*%
%TF.SameCoordinates,Original*%
%TF.FileFunction,Paste,Top*%
%TF.FilePolarity,Positive*%
%FSLAX46Y46*%
G04 Gerber Fmt 4.6, Leading zero omitted, Abs format (unit mm)*
G04 Created by KiCad (PCBNEW 9.0.6) date 2026-01-08 22:49:20*
%MOMM*%
%LPD*%
G01*
G04 APERTURE LIST*
G04 Aperture macros list*
%AMRoundRect*
0 Rectangle with rounded corners*
0 $1 Rounding radius*
0 $2 $3 $4 $5 $6 $7 $8 $9 X,Y pos of 4 corners*
0 Add a 4 corners polygon primitive as box body*
4,1,4,$2,$3,$4,$5,$6,$7,$8,$9,$2,$3,0*
0 Add four circle primitives for the rounded corners*
1,1,$1+$1,$2,$3*
1,1,$1+$1,$4,$5*
1,1,$1+$1,$6,$7*
1,1,$1+$1,$8,$9*
0 Add four rect primitives between the rounded corners*
20,1,$1+$1,$2,$3,$4,$5,0*
20,1,$1+$1,$4,$5,$6,$7,0*
20,1,$1+$1,$6,$7,$8,$9,0*
20,1,$1+$1,$8,$9,$2,$3,0*%
G04 Aperture macros list end*
%ADD10R,0.270000X0.450000*%
%ADD11R,2.700000X1.800000*%
%ADD12R,0.610000X1.270000*%
%ADD13R,0.610000X0.710000*%
%ADD14R,1.910000X0.310000*%
%ADD15R,1.650000X3.500000*%
%ADD16R,1.143000X0.609600*%
%ADD17R,1.143000X0.304800*%
%ADD18RoundRect,0.250000X-0.650000X0.325000X-0.650000X-0.325000X0.650000X-0.325000X0.650000X0.325000X0*%
%ADD19RoundRect,0.200000X0.275000X-0.200000X0.275000X0.200000X-0.275000X0.200000X-0.275000X-0.200000X0*%
%ADD20RoundRect,0.225000X-0.250000X0.225000X-0.250000X-0.225000X0.250000X-0.225000X0.250000X0.225000X0*%
%ADD21RoundRect,0.200000X-0.275000X0.200000X-0.275000X-0.200000X0.275000X-0.200000X0.275000X0.200000X0*%
%ADD22RoundRect,0.243750X0.456250X-0.243750X0.456250X0.243750X-0.456250X0.243750X-0.456250X-0.243750X0*%
%ADD23RoundRect,0.225000X0.250000X-0.225000X0.250000X0.225000X-0.250000X0.225000X-0.250000X-0.225000X0*%
%ADD24RoundRect,0.250000X-0.312500X-0.625000X0.312500X-0.625000X0.312500X0.625000X-0.312500X0.625000X0*%
%ADD25RoundRect,0.200000X0.200000X0.275000X-0.200000X0.275000X-0.200000X-0.275000X0.200000X-0.275000X0*%
%ADD26RoundRect,0.225000X-0.225000X-0.250000X0.225000X-0.250000X0.225000X0.250000X-0.225000X0.250000X0*%
%ADD27RoundRect,0.250000X0.650000X-0.325000X0.650000X0.325000X-0.650000X0.325000X-0.650000X-0.325000X0*%
G04 APERTURE END LIST*
D10*
X143720000Y-107635000D03*
X143320000Y-107635000D03*
X142920000Y-107635000D03*
X142520000Y-107635000D03*
X142120000Y-107635000D03*
X141720000Y-107635000D03*
X141320000Y-107635000D03*
X141320000Y-110285000D03*
X141720000Y-110285000D03*
X142120000Y-110285000D03*
X142520000Y-110285000D03*
X142920000Y-110285000D03*
X143320000Y-110285000D03*
X143720000Y-110285000D03*
D11*
X142520000Y-108960000D03*
D12*
X152840000Y-100123000D03*
X154110000Y-100123000D03*
X155380000Y-100123000D03*
X156650000Y-100123000D03*
D13*
X156650000Y-94147000D03*
X155380000Y-94147000D03*
X154110000Y-94147000D03*
X152840000Y-94147000D03*
D14*
X153490000Y-94657000D03*
D15*
X153618000Y-96562000D03*
X155872000Y-96562000D03*
D14*
X156000000Y-94657000D03*
D16*
X131323199Y-96735000D03*
X131323199Y-97535001D03*
D17*
X131323199Y-98685001D03*
X131323199Y-99685001D03*
X131323199Y-100185001D03*
X131323199Y-101185001D03*
D16*
X131323199Y-103135000D03*
X131323199Y-102335001D03*
D17*
X131323199Y-101685061D03*
X131323199Y-100685060D03*
X131323199Y-99185061D03*
X131323199Y-98185060D03*
D18*
X149545000Y-102285000D03*
X149545000Y-105235000D03*
X146995000Y-102285000D03*
X146995000Y-105235000D03*
D19*
X134720000Y-115560000D03*
X134720000Y-113910000D03*
D20*
X136320000Y-104435000D03*
X136320000Y-105985000D03*
D21*
X177120000Y-106259999D03*
X177120000Y-107909999D03*
D22*
X176870000Y-112872500D03*
X176870000Y-110997500D03*
D20*
X166120000Y-97210000D03*
X166120000Y-98760000D03*
D22*
X131520000Y-120322500D03*
X131520000Y-118447500D03*
D23*
X139670000Y-98410000D03*
X139670000Y-96860000D03*
D21*
X159670000Y-101110000D03*
X159670000Y-102760000D03*
X131520000Y-113910000D03*
X131520000Y-115560000D03*
D24*
X143757500Y-99485000D03*
X146682500Y-99485000D03*
D25*
X155370000Y-102935000D03*
X153720000Y-102935000D03*
D21*
X128270000Y-113910000D03*
X128270000Y-115560000D03*
D26*
X146245000Y-111385000D03*
X147795000Y-111385000D03*
D27*
X136070000Y-98970000D03*
X136070000Y-96020000D03*
D18*
X163120000Y-96535000D03*
X163120000Y-99485000D03*
D22*
X128270000Y-120322500D03*
X128270000Y-118447500D03*
D19*
X137920000Y-115560000D03*
X137920000Y-113910000D03*
M02*
