%TF.GenerationSoftware,KiCad,Pcbnew,9.0.6*%
%TF.CreationDate,2026-01-08T22:49:20+05:30*%
%TF.ProjectId,USB_PD_Trigger,5553425f-5044-45f5-9472-69676765722e,rev?*%
%TF.SameCoordinates,Original*%
%TF.FileFunction,Copper,L1,Top*%
%TF.FilePolarity,Positive*%
%FSLAX46Y46*%
G04 Gerber Fmt 4.6, Leading zero omitted, Abs format (unit mm)*
G04 Created by KiCad (PCBNEW 9.0.6) date 2026-01-08 22:49:20*
%MOMM*%
%LPD*%
G01*
G04 APERTURE LIST*
G04 Aperture macros list*
%AMRoundRect*
0 Rectangle with rounded corners*
0 $1 Rounding radius*
0 $2 $3 $4 $5 $6 $7 $8 $9 X,Y pos of 4 corners*
0 Add a 4 corners polygon primitive as box body*
4,1,4,$2,$3,$4,$5,$6,$7,$8,$9,$2,$3,0*
0 Add four circle primitives for the rounded corners*
1,1,$1+$1,$2,$3*
1,1,$1+$1,$4,$5*
1,1,$1+$1,$6,$7*
1,1,$1+$1,$8,$9*
0 Add four rect primitives between the rounded corners*
20,1,$1+$1,$2,$3,$4,$5,0*
20,1,$1+$1,$4,$5,$6,$7,0*
20,1,$1+$1,$6,$7,$8,$9,0*
20,1,$1+$1,$8,$9,$2,$3,0*%
G04 Aperture macros list end*
%TA.AperFunction,SMDPad,CuDef*%
%ADD10R,0.270000X0.450000*%
%TD*%
%TA.AperFunction,SMDPad,CuDef*%
%ADD11R,2.700000X1.800000*%
%TD*%
%TA.AperFunction,SMDPad,CuDef*%
%ADD12R,0.610000X1.270000*%
%TD*%
%TA.AperFunction,SMDPad,CuDef*%
%ADD13R,0.610000X0.710000*%
%TD*%
%TA.AperFunction,SMDPad,CuDef*%
%ADD14R,1.910000X0.310000*%
%TD*%
%TA.AperFunction,SMDPad,CuDef*%
%ADD15R,1.650000X3.500000*%
%TD*%
%TA.AperFunction,ComponentPad*%
%ADD16O,1.803400X0.990600*%
%TD*%
%TA.AperFunction,ComponentPad*%
%ADD17O,2.209800X0.990600*%
%TD*%
%TA.AperFunction,SMDPad,CuDef*%
%ADD18R,1.143000X0.609600*%
%TD*%
%TA.AperFunction,SMDPad,CuDef*%
%ADD19R,1.143000X0.304800*%
%TD*%
%TA.AperFunction,SMDPad,CuDef*%
%ADD20RoundRect,0.250000X-0.650000X0.325000X-0.650000X-0.325000X0.650000X-0.325000X0.650000X0.325000X0*%
%TD*%
%TA.AperFunction,SMDPad,CuDef*%
%ADD21RoundRect,0.200000X0.275000X-0.200000X0.275000X0.200000X-0.275000X0.200000X-0.275000X-0.200000X0*%
%TD*%
%TA.AperFunction,SMDPad,CuDef*%
%ADD22RoundRect,0.225000X-0.250000X0.225000X-0.250000X-0.225000X0.250000X-0.225000X0.250000X0.225000X0*%
%TD*%
%TA.AperFunction,ComponentPad*%
%ADD23R,1.700000X1.700000*%
%TD*%
%TA.AperFunction,ComponentPad*%
%ADD24C,1.700000*%
%TD*%
%TA.AperFunction,SMDPad,CuDef*%
%ADD25RoundRect,0.200000X-0.275000X0.200000X-0.275000X-0.200000X0.275000X-0.200000X0.275000X0.200000X0*%
%TD*%
%TA.AperFunction,SMDPad,CuDef*%
%ADD26RoundRect,0.243750X0.456250X-0.243750X0.456250X0.243750X-0.456250X0.243750X-0.456250X-0.243750X0*%
%TD*%
%TA.AperFunction,SMDPad,CuDef*%
%ADD27RoundRect,0.225000X0.250000X-0.225000X0.250000X0.225000X-0.250000X0.225000X-0.250000X-0.225000X0*%
%TD*%
%TA.AperFunction,SMDPad,CuDef*%
%ADD28RoundRect,0.250000X-0.312500X-0.625000X0.312500X-0.625000X0.312500X0.625000X-0.312500X0.625000X0*%
%TD*%
%TA.AperFunction,SMDPad,CuDef*%
%ADD29RoundRect,0.200000X0.200000X0.275000X-0.200000X0.275000X-0.200000X-0.275000X0.200000X-0.275000X0*%
%TD*%
%TA.AperFunction,ComponentPad*%
%ADD30RoundRect,0.250000X1.050000X-1.050000X1.050000X1.050000X-1.050000X1.050000X-1.050000X-1.050000X0*%
%TD*%
%TA.AperFunction,ComponentPad*%
%ADD31C,2.600000*%
%TD*%
%TA.AperFunction,SMDPad,CuDef*%
%ADD32RoundRect,0.225000X-0.225000X-0.250000X0.225000X-0.250000X0.225000X0.250000X-0.225000X0.250000X0*%
%TD*%
%TA.AperFunction,SMDPad,CuDef*%
%ADD33RoundRect,0.250000X0.650000X-0.325000X0.650000X0.325000X-0.650000X0.325000X-0.650000X-0.325000X0*%
%TD*%
%TA.AperFunction,ComponentPad*%
%ADD34C,1.500000*%
%TD*%
%TA.AperFunction,ViaPad*%
%ADD35C,0.600000*%
%TD*%
%TA.AperFunction,Conductor*%
%ADD36C,0.152000*%
%TD*%
%TA.AperFunction,Conductor*%
%ADD37C,0.200000*%
%TD*%
%TA.AperFunction,Conductor*%
%ADD38C,0.250000*%
%TD*%
G04 APERTURE END LIST*
D10*
X143720000Y-107635000D03*
X143320000Y-107635000D03*
X142920000Y-107635000D03*
X142520000Y-107635000D03*
X142120000Y-107635000D03*
X141720000Y-107635000D03*
X141320000Y-107635000D03*
X141320000Y-110285000D03*
X141720000Y-110285000D03*
X142120000Y-110285000D03*
X142520000Y-110285000D03*
X142920000Y-110285000D03*
X143320000Y-110285000D03*
X143720000Y-110285000D03*
D11*
X142520000Y-108960000D03*
D12*
X152840000Y-100123000D03*
X154110000Y-100123000D03*
X155380000Y-100123000D03*
X156650000Y-100123000D03*
D13*
X156650000Y-94147000D03*
X155380000Y-94147000D03*
X154110000Y-94147000D03*
X152840000Y-94147000D03*
D14*
X153490000Y-94657000D03*
D15*
X153618000Y-96562000D03*
X155872000Y-96562000D03*
D14*
X156000000Y-94657000D03*
D16*
X130748200Y-95615001D03*
D17*
X126748199Y-95615001D03*
D16*
X130748200Y-104255001D03*
D17*
X126748199Y-104255001D03*
D18*
X131323199Y-96735000D03*
X131323199Y-97535001D03*
D19*
X131323199Y-98685001D03*
X131323199Y-99685001D03*
X131323199Y-100185001D03*
X131323199Y-101185001D03*
D18*
X131323199Y-103135000D03*
X131323199Y-102335001D03*
D19*
X131323199Y-101685061D03*
X131323199Y-100685060D03*
X131323199Y-99185061D03*
X131323199Y-98185060D03*
D20*
X149545000Y-102285000D03*
X149545000Y-105235000D03*
X146995000Y-102285000D03*
X146995000Y-105235000D03*
D21*
X134720000Y-115560000D03*
X134720000Y-113910000D03*
D22*
X136320000Y-104435000D03*
X136320000Y-105985000D03*
D23*
X128580000Y-110770000D03*
D24*
X128580000Y-108230000D03*
D25*
X177120000Y-106259999D03*
X177120000Y-107909999D03*
D26*
X176870000Y-112872500D03*
X176870000Y-110997500D03*
D22*
X166120000Y-97210000D03*
X166120000Y-98760000D03*
D26*
X131520000Y-120322500D03*
X131520000Y-118447500D03*
D27*
X139670000Y-98410000D03*
X139670000Y-96860000D03*
D25*
X159670000Y-101110000D03*
X159670000Y-102760000D03*
D23*
X154710000Y-117775000D03*
D24*
X154710000Y-115235000D03*
X157250000Y-117775000D03*
X157250000Y-115235000D03*
X159790000Y-117775000D03*
X159790000Y-115235000D03*
X162330000Y-117775000D03*
X162330000Y-115235000D03*
X164870000Y-117775000D03*
X164870000Y-115235000D03*
X167410000Y-117775000D03*
X167410000Y-115235000D03*
X169950000Y-117775000D03*
X169950000Y-115235000D03*
X172490000Y-117775000D03*
X172490000Y-115235000D03*
D25*
X131520000Y-113910000D03*
X131520000Y-115560000D03*
D28*
X143757500Y-99485000D03*
X146682500Y-99485000D03*
D29*
X155370000Y-102935000D03*
X153720000Y-102935000D03*
D25*
X128270000Y-113910000D03*
X128270000Y-115560000D03*
D30*
X174092500Y-100385000D03*
D31*
X174092500Y-95385000D03*
D32*
X146245000Y-111385000D03*
X147795000Y-111385000D03*
D33*
X136070000Y-98970000D03*
X136070000Y-96020000D03*
D23*
X154710000Y-108275000D03*
D24*
X154710000Y-105735000D03*
X157250000Y-108275000D03*
X157250000Y-105735000D03*
X159790000Y-108275000D03*
X159790000Y-105735000D03*
X162330000Y-108275000D03*
X162330000Y-105735000D03*
X164870000Y-108275000D03*
X164870000Y-105735000D03*
X167410000Y-108275000D03*
X167410000Y-105735000D03*
X169950000Y-108275000D03*
X169950000Y-105735000D03*
X172490000Y-108275000D03*
X172490000Y-105735000D03*
D34*
X136920000Y-119585000D03*
D20*
X163120000Y-96535000D03*
X163120000Y-99485000D03*
D26*
X128270000Y-120322500D03*
X128270000Y-118447500D03*
D21*
X137920000Y-115560000D03*
X137920000Y-113910000D03*
D35*
X140320000Y-112585000D03*
X141120000Y-113085000D03*
X132773200Y-101460200D03*
X129820000Y-98685000D03*
X129820000Y-100685000D03*
X132770000Y-99285000D03*
X138570000Y-107635000D03*
X132070000Y-112335000D03*
X142120000Y-113685000D03*
X143720000Y-113885000D03*
X144920000Y-111985000D03*
X143820000Y-112785000D03*
X139520000Y-105485000D03*
D36*
X142120000Y-107635000D02*
X142120000Y-108560000D01*
X142120000Y-108560000D02*
X142520000Y-108960000D01*
D37*
X128270000Y-113910000D02*
X129635000Y-113910000D01*
X142520000Y-107635000D02*
X142520000Y-105885000D01*
X130800000Y-107175000D02*
X128930000Y-105305000D01*
X129635000Y-113910000D02*
X130800000Y-112745000D01*
X130800000Y-112745000D02*
X130800000Y-107175000D01*
X142520000Y-105885000D02*
X145020000Y-103385000D01*
X145020000Y-100385000D02*
X144120000Y-99485000D01*
X130259999Y-102335001D02*
X131323199Y-102335001D01*
D36*
X144120000Y-99485000D02*
X143557500Y-99485000D01*
D37*
X128930000Y-105305000D02*
X128930000Y-103665000D01*
X128930000Y-103665000D02*
X130259999Y-102335001D01*
X145020000Y-103385000D02*
X145020000Y-100385000D01*
X145145000Y-110285000D02*
X146245000Y-111385000D01*
X143720000Y-110285000D02*
X145145000Y-110285000D01*
X141320000Y-111585000D02*
X140320000Y-112585000D01*
X141320000Y-110285000D02*
X141320000Y-111585000D01*
X141720000Y-112485000D02*
X141120000Y-113085000D01*
X141720000Y-110285000D02*
X141720000Y-112485000D01*
X142920000Y-107635000D02*
X142920000Y-106085000D01*
X142920000Y-106085000D02*
X145420000Y-103585000D01*
X145420000Y-103585000D02*
X145420000Y-100385000D01*
D36*
X146320000Y-99485000D02*
X146482500Y-99485000D01*
D37*
X145420000Y-100385000D02*
X146320000Y-99485000D01*
X128270000Y-115560000D02*
X128270000Y-118447500D01*
X177120000Y-107909999D02*
X177120000Y-110747500D01*
X177120000Y-110747500D02*
X176870000Y-110997500D01*
X131520000Y-115560000D02*
X131520000Y-118447500D01*
D36*
X132649939Y-101685061D02*
X131323199Y-101685061D01*
X132773200Y-101460200D02*
X132773200Y-101561800D01*
X132773200Y-101561800D02*
X132649939Y-101685061D01*
D37*
X131323199Y-98685001D02*
X129820000Y-98685000D01*
X130219999Y-99685001D02*
X129820000Y-100085000D01*
D38*
X131323259Y-100685000D02*
X131323199Y-100685060D01*
D37*
X131323199Y-100685060D02*
X129820060Y-100685060D01*
D38*
X129820060Y-100685060D02*
X129820000Y-100685000D01*
D37*
X129820000Y-100085000D02*
X129820000Y-100685000D01*
X131323199Y-99685001D02*
X130219999Y-99685001D01*
X132770000Y-99710000D02*
X132294999Y-100185001D01*
X132770000Y-99285000D02*
X132770000Y-99710000D01*
D36*
X132770000Y-99285000D02*
X132670061Y-99185061D01*
D37*
X132670061Y-99185061D02*
X131323199Y-99185061D01*
X132294999Y-100185001D02*
X131323199Y-100185001D01*
X151920000Y-102935000D02*
X153720000Y-102935000D01*
X143320000Y-107635000D02*
X143320000Y-106385000D01*
X151270000Y-103585000D02*
X151920000Y-102935000D01*
X143320000Y-106385000D02*
X146120000Y-103585000D01*
X146120000Y-103585000D02*
X151270000Y-103585000D01*
X156650000Y-101655000D02*
X156650000Y-100123000D01*
X155370000Y-102935000D02*
X156650000Y-101655000D01*
X154110000Y-101675000D02*
X154110000Y-100123000D01*
X155370000Y-102935000D02*
X154110000Y-101675000D01*
X143720000Y-107635000D02*
X143720000Y-106710000D01*
D36*
X159645000Y-102760000D02*
X159670000Y-102760000D01*
D37*
X146395000Y-104035000D02*
X158370000Y-104035000D01*
X143720000Y-106710000D02*
X146395000Y-104035000D01*
X158370000Y-104035000D02*
X159645000Y-102760000D01*
X138570000Y-107635000D02*
X141320000Y-107635000D01*
X131520000Y-112885000D02*
X132070000Y-112335000D01*
X131520000Y-113910000D02*
X131520000Y-112885000D01*
X142120000Y-113685000D02*
X142120000Y-114885000D01*
X141445000Y-115560000D02*
X137920000Y-115560000D01*
X142120000Y-110285000D02*
X142120000Y-113685000D01*
X142120000Y-114885000D02*
X141445000Y-115560000D01*
X142520000Y-112685000D02*
X143720000Y-113885000D01*
X135420000Y-117285000D02*
X134720000Y-116585000D01*
X143720000Y-115785000D02*
X142220000Y-117285000D01*
X142520000Y-110285000D02*
X142520000Y-112685000D01*
X143720000Y-113885000D02*
X143720000Y-115785000D01*
X142220000Y-117285000D02*
X135420000Y-117285000D01*
X134720000Y-116585000D02*
X134720000Y-115560000D01*
X144020000Y-111985000D02*
X143320000Y-111285000D01*
X143320000Y-111285000D02*
X143320000Y-110285000D01*
X144920000Y-111985000D02*
X144020000Y-111985000D01*
X142920000Y-111885000D02*
X142920000Y-110285000D01*
X143820000Y-112785000D02*
X142920000Y-111885000D01*
X140720000Y-105485000D02*
X139520000Y-105485000D01*
X141720000Y-107635000D02*
X141720000Y-106485000D01*
X141720000Y-106485000D02*
X140720000Y-105485000D01*
%TA.AperFunction,Conductor*%
G36*
X140542745Y-92505185D02*
G01*
X140555080Y-92514233D01*
X140775384Y-92697820D01*
X140814282Y-92755858D01*
X140820000Y-92793078D01*
X140820000Y-97183638D01*
X140800315Y-97250677D01*
X140783681Y-97271319D01*
X140556319Y-97498681D01*
X140494996Y-97532166D01*
X140468638Y-97535000D01*
X134667939Y-97535000D01*
X134600900Y-97515315D01*
X134584528Y-97502753D01*
X134070001Y-97035000D01*
X134070000Y-97035000D01*
X130432500Y-97035000D01*
X130432499Y-97035000D01*
X129220000Y-98247499D01*
X129220000Y-101772500D01*
X129685728Y-102238228D01*
X129719213Y-102299551D01*
X129714229Y-102369243D01*
X129685728Y-102413590D01*
X128649531Y-103449786D01*
X128649529Y-103449789D01*
X128608828Y-103520287D01*
X128608825Y-103520291D01*
X128603387Y-103529708D01*
X128603387Y-103529709D01*
X128579500Y-103618856D01*
X128579500Y-105351145D01*
X128602997Y-105438840D01*
X128603383Y-105440281D01*
X128603388Y-105440292D01*
X128649527Y-105520208D01*
X128649531Y-105520213D01*
X130413181Y-107283862D01*
X130446666Y-107345185D01*
X130449500Y-107371543D01*
X130449500Y-112548456D01*
X130429815Y-112615495D01*
X130413181Y-112636137D01*
X129526137Y-113523181D01*
X129464814Y-113556666D01*
X129438456Y-113559500D01*
X129055480Y-113559500D01*
X128988441Y-113539815D01*
X128954968Y-113503371D01*
X128953311Y-113504595D01*
X128917840Y-113456533D01*
X128867150Y-113387850D01*
X128757882Y-113307207D01*
X128757880Y-113307206D01*
X128629700Y-113262353D01*
X128599270Y-113259500D01*
X128599266Y-113259500D01*
X127940734Y-113259500D01*
X127940730Y-113259500D01*
X127910300Y-113262353D01*
X127910298Y-113262353D01*
X127782119Y-113307206D01*
X127782117Y-113307207D01*
X127672850Y-113387850D01*
X127592207Y-113497117D01*
X127592206Y-113497119D01*
X127547353Y-113625298D01*
X127547353Y-113625300D01*
X127544500Y-113655730D01*
X127544500Y-114164269D01*
X127547353Y-114194699D01*
X127547353Y-114194701D01*
X127592206Y-114322880D01*
X127592207Y-114322882D01*
X127672850Y-114432150D01*
X127782118Y-114512793D01*
X127797205Y-114518072D01*
X127910299Y-114557646D01*
X127940730Y-114560500D01*
X127940734Y-114560500D01*
X128599270Y-114560500D01*
X128629699Y-114557646D01*
X128629701Y-114557646D01*
X128693790Y-114535219D01*
X128757882Y-114512793D01*
X128867150Y-114432150D01*
X128947793Y-114322882D01*
X128947794Y-114322880D01*
X128953311Y-114315405D01*
X128955285Y-114316862D01*
X128994580Y-114276485D01*
X129055480Y-114260500D01*
X129681142Y-114260500D01*
X129681144Y-114260500D01*
X129770288Y-114236614D01*
X129850212Y-114190470D01*
X130618801Y-113421880D01*
X130680122Y-113388397D01*
X130749813Y-113393381D01*
X130805747Y-113435253D01*
X130830164Y-113500717D01*
X130823521Y-113550518D01*
X130797354Y-113625298D01*
X130797353Y-113625300D01*
X130794500Y-113655730D01*
X130794500Y-114164269D01*
X130797353Y-114194699D01*
X130797353Y-114194701D01*
X130842206Y-114322880D01*
X130842207Y-114322882D01*
X130922850Y-114432150D01*
X131032118Y-114512793D01*
X131047205Y-114518072D01*
X131160299Y-114557646D01*
X131190730Y-114560500D01*
X131190734Y-114560500D01*
X131849270Y-114560500D01*
X131879699Y-114557646D01*
X131879701Y-114557646D01*
X131943790Y-114535219D01*
X132007882Y-114512793D01*
X132117150Y-114432150D01*
X132197793Y-114322882D01*
X132220219Y-114258790D01*
X132242646Y-114194701D01*
X132242646Y-114194699D01*
X132245500Y-114164269D01*
X132245500Y-113655730D01*
X132242646Y-113625300D01*
X132242646Y-113625298D01*
X132205012Y-113517749D01*
X132197793Y-113497118D01*
X132117150Y-113387850D01*
X132007882Y-113307207D01*
X132003647Y-113305725D01*
X131953544Y-113288193D01*
X131934554Y-113274572D01*
X131913297Y-113264865D01*
X131906693Y-113254590D01*
X131896768Y-113247471D01*
X131888156Y-113225744D01*
X131875523Y-113206087D01*
X131872767Y-113186921D01*
X131871022Y-113182518D01*
X131870500Y-113171152D01*
X131870500Y-113081544D01*
X131890185Y-113014505D01*
X131906819Y-112993863D01*
X131978863Y-112921819D01*
X132040186Y-112888334D01*
X132066544Y-112885500D01*
X132142472Y-112885500D01*
X132142475Y-112885500D01*
X132282485Y-112847984D01*
X132408015Y-112775509D01*
X132510509Y-112673015D01*
X132582984Y-112547485D01*
X132620500Y-112407475D01*
X132620500Y-112262525D01*
X132582984Y-112122515D01*
X132553828Y-112072016D01*
X132510511Y-111996988D01*
X132510506Y-111996982D01*
X132408017Y-111894493D01*
X132408011Y-111894488D01*
X132282488Y-111822017D01*
X132282489Y-111822017D01*
X132271006Y-111818940D01*
X132142475Y-111784500D01*
X131997525Y-111784500D01*
X131868993Y-111818940D01*
X131857511Y-111822017D01*
X131731988Y-111894488D01*
X131731982Y-111894493D01*
X131629493Y-111996982D01*
X131629488Y-111996988D01*
X131557017Y-112122511D01*
X131557016Y-112122515D01*
X131519500Y-112262525D01*
X131519500Y-112262527D01*
X131519500Y-112338456D01*
X131510855Y-112367896D01*
X131504332Y-112397883D01*
X131500577Y-112402898D01*
X131499815Y-112405495D01*
X131483181Y-112426137D01*
X131362181Y-112547137D01*
X131300858Y-112580622D01*
X131231166Y-112575638D01*
X131175233Y-112533766D01*
X131150816Y-112468302D01*
X131150500Y-112459456D01*
X131150500Y-107128858D01*
X131150500Y-107128856D01*
X131126614Y-107039712D01*
X131126611Y-107039706D01*
X131080473Y-106959794D01*
X131080470Y-106959791D01*
X131080469Y-106959788D01*
X131015212Y-106894531D01*
X130260137Y-106139456D01*
X129316819Y-105196137D01*
X129283334Y-105134814D01*
X129280500Y-105108456D01*
X129280500Y-103861544D01*
X129300185Y-103794505D01*
X129316819Y-103773863D01*
X130219363Y-102871319D01*
X130280686Y-102837834D01*
X130307044Y-102835000D01*
X133414416Y-102835000D01*
X133481455Y-102854685D01*
X133506983Y-102876493D01*
X134851967Y-104385500D01*
X135520000Y-105135000D01*
X136013214Y-105135000D01*
X136021186Y-105135427D01*
X136021192Y-105135322D01*
X136024495Y-105135497D01*
X136024515Y-105135500D01*
X136615484Y-105135499D01*
X136615485Y-105135498D01*
X136618807Y-105135321D01*
X136618812Y-105135426D01*
X136626775Y-105135000D01*
X138882263Y-105135000D01*
X138949302Y-105154685D01*
X138995057Y-105207489D01*
X139005001Y-105276647D01*
X139002038Y-105291089D01*
X138969500Y-105412525D01*
X138969500Y-105557475D01*
X138998467Y-105665579D01*
X139007017Y-105697488D01*
X139079488Y-105823011D01*
X139079490Y-105823013D01*
X139079491Y-105823015D01*
X139181985Y-105925509D01*
X139181986Y-105925510D01*
X139181988Y-105925511D01*
X139307511Y-105997982D01*
X139307512Y-105997982D01*
X139307515Y-105997984D01*
X139447525Y-106035500D01*
X139447528Y-106035500D01*
X139592472Y-106035500D01*
X139592475Y-106035500D01*
X139732485Y-105997984D01*
X139858015Y-105925509D01*
X139911705Y-105871819D01*
X139973028Y-105838334D01*
X139999386Y-105835500D01*
X140523456Y-105835500D01*
X140590495Y-105855185D01*
X140611137Y-105871819D01*
X141333181Y-106593863D01*
X141366666Y-106655186D01*
X141369500Y-106681544D01*
X141369500Y-107155500D01*
X141367745Y-107161474D01*
X141368909Y-107167591D01*
X141358018Y-107194600D01*
X141349815Y-107222539D01*
X141345109Y-107226615D01*
X141342781Y-107232392D01*
X141319012Y-107249229D01*
X141297011Y-107268294D01*
X141289563Y-107270091D01*
X141285768Y-107272780D01*
X141261944Y-107276755D01*
X141251095Y-107279374D01*
X141248291Y-107279500D01*
X141172146Y-107279501D01*
X141149772Y-107283950D01*
X141140395Y-107284374D01*
X141139158Y-107284070D01*
X141134800Y-107284500D01*
X139049386Y-107284500D01*
X138982347Y-107264815D01*
X138961705Y-107248181D01*
X138908017Y-107194493D01*
X138908011Y-107194488D01*
X138782488Y-107122017D01*
X138782489Y-107122017D01*
X138771006Y-107118940D01*
X138642475Y-107084500D01*
X138497525Y-107084500D01*
X138368993Y-107118940D01*
X138357511Y-107122017D01*
X138231988Y-107194488D01*
X138231982Y-107194493D01*
X138129493Y-107296982D01*
X138129488Y-107296988D01*
X138057017Y-107422511D01*
X138057016Y-107422515D01*
X138019500Y-107562525D01*
X138019500Y-107707475D01*
X138057016Y-107847485D01*
X138057017Y-107847488D01*
X138129488Y-107973011D01*
X138129490Y-107973013D01*
X138129491Y-107973015D01*
X138231985Y-108075509D01*
X138231986Y-108075510D01*
X138231988Y-108075511D01*
X138357511Y-108147982D01*
X138357512Y-108147982D01*
X138357515Y-108147984D01*
X138497525Y-108185500D01*
X138497528Y-108185500D01*
X138642472Y-108185500D01*
X138642475Y-108185500D01*
X138782485Y-108147984D01*
X138908015Y-108075509D01*
X138961705Y-108021819D01*
X139023028Y-107988334D01*
X139049386Y-107985500D01*
X141134793Y-107985500D01*
X141158982Y-107987882D01*
X141161032Y-107988289D01*
X141172145Y-107990500D01*
X141467854Y-107990499D01*
X141481447Y-107987795D01*
X141495813Y-107984939D01*
X141544186Y-107984939D01*
X141572145Y-107990500D01*
X141867854Y-107990499D01*
X141905919Y-107982929D01*
X141949086Y-107954086D01*
X141977929Y-107910919D01*
X141980701Y-107896980D01*
X141982172Y-107893123D01*
X141982085Y-107890841D01*
X141986604Y-107881509D01*
X141995500Y-107858196D01*
X141999830Y-107850850D01*
X142000469Y-107850212D01*
X142012870Y-107828731D01*
X142013182Y-107828204D01*
X142038255Y-107804728D01*
X142063180Y-107780963D01*
X142063758Y-107780851D01*
X142064186Y-107780451D01*
X142097937Y-107774264D01*
X142131787Y-107767740D01*
X142132333Y-107767958D01*
X142132911Y-107767853D01*
X142164700Y-107780917D01*
X142196652Y-107793709D01*
X142197107Y-107794235D01*
X142197536Y-107794411D01*
X142198681Y-107796051D01*
X142227386Y-107829177D01*
X142243594Y-107857249D01*
X142241770Y-107858302D01*
X142259299Y-107896982D01*
X142262070Y-107910917D01*
X142262071Y-107910919D01*
X142290914Y-107954086D01*
X142319238Y-107973011D01*
X142334079Y-107982928D01*
X142334081Y-107982929D01*
X142372145Y-107990500D01*
X142667854Y-107990499D01*
X142681447Y-107987795D01*
X142695813Y-107984939D01*
X142744186Y-107984939D01*
X142772145Y-107990500D01*
X143067854Y-107990499D01*
X143081447Y-107987795D01*
X143095813Y-107984939D01*
X143144186Y-107984939D01*
X143172145Y-107990500D01*
X143467854Y-107990499D01*
X143481447Y-107987795D01*
X143495813Y-107984939D01*
X143544186Y-107984939D01*
X143572145Y-107990500D01*
X143867854Y-107990499D01*
X143905919Y-107982929D01*
X143949086Y-107954086D01*
X143977929Y-107910919D01*
X143980701Y-107896981D01*
X143998234Y-107858307D01*
X143996405Y-107857251D01*
X144002043Y-107847485D01*
X144046614Y-107770288D01*
X144070500Y-107681144D01*
X144070500Y-107400321D01*
X153609500Y-107400321D01*
X153609500Y-109149678D01*
X153624032Y-109222735D01*
X153624033Y-109222739D01*
X153624034Y-109222740D01*
X153679399Y-109305601D01*
X153762260Y-109360966D01*
X153762264Y-109360967D01*
X153835321Y-109375499D01*
X153835324Y-109375500D01*
X153835326Y-109375500D01*
X155584676Y-109375500D01*
X155584677Y-109375499D01*
X155657740Y-109360966D01*
X155740601Y-109305601D01*
X155795966Y-109222740D01*
X155810500Y-109149674D01*
X155810500Y-108188389D01*
X156149500Y-108188389D01*
X156149500Y-108361610D01*
X156173444Y-108512792D01*
X156176598Y-108532701D01*
X156230127Y-108697445D01*
X156308768Y-108851788D01*
X156410586Y-108991928D01*
X156533072Y-109114414D01*
X156673212Y-109216232D01*
X156827555Y-109294873D01*
X156992299Y-109348402D01*
X157163389Y-109375500D01*
X157163390Y-109375500D01*
X157336610Y-109375500D01*
X157336611Y-109375500D01*
X157507701Y-109348402D01*
X157672445Y-109294873D01*
X157826788Y-109216232D01*
X157966928Y-109114414D01*
X158089414Y-108991928D01*
X158191232Y-108851788D01*
X158269873Y-108697445D01*
X158323402Y-108532701D01*
X158350500Y-108361611D01*
X158350500Y-108188389D01*
X158689500Y-108188389D01*
X158689500Y-108361610D01*
X158713444Y-108512792D01*
X158716598Y-108532701D01*
X158770127Y-108697445D01*
X158848768Y-108851788D01*
X158950586Y-108991928D01*
X159073072Y-109114414D01*
X159213212Y-109216232D01*
X159367555Y-109294873D01*
X159532299Y-109348402D01*
X159703389Y-109375500D01*
X159703390Y-109375500D01*
X159876610Y-109375500D01*
X159876611Y-109375500D01*
X160047701Y-109348402D01*
X160212445Y-109294873D01*
X160366788Y-109216232D01*
X160506928Y-109114414D01*
X160629414Y-108991928D01*
X160731232Y-108851788D01*
X160809873Y-108697445D01*
X160863402Y-108532701D01*
X160890500Y-108361611D01*
X160890500Y-108188389D01*
X161229500Y-108188389D01*
X161229500Y-108361610D01*
X161253444Y-108512792D01*
X161256598Y-108532701D01*
X161310127Y-108697445D01*
X161388768Y-108851788D01*
X161490586Y-108991928D01*
X161613072Y-109114414D01*
X161753212Y-109216232D01*
X161907555Y-109294873D01*
X162072299Y-109348402D01*
X162243389Y-109375500D01*
X162243390Y-109375500D01*
X162416610Y-109375500D01*
X162416611Y-109375500D01*
X162587701Y-109348402D01*
X162752445Y-109294873D01*
X162906788Y-109216232D01*
X163046928Y-109114414D01*
X163169414Y-108991928D01*
X163271232Y-108851788D01*
X163349873Y-108697445D01*
X163403402Y-108532701D01*
X163430500Y-108361611D01*
X163430500Y-108188389D01*
X163769500Y-108188389D01*
X163769500Y-108361610D01*
X163793444Y-108512792D01*
X163796598Y-108532701D01*
X163850127Y-108697445D01*
X163928768Y-108851788D01*
X164030586Y-108991928D01*
X164153072Y-109114414D01*
X164293212Y-109216232D01*
X164447555Y-109294873D01*
X164612299Y-109348402D01*
X164783389Y-109375500D01*
X164783390Y-109375500D01*
X164956610Y-109375500D01*
X164956611Y-109375500D01*
X165127701Y-109348402D01*
X165292445Y-109294873D01*
X165446788Y-109216232D01*
X165586928Y-109114414D01*
X165709414Y-108991928D01*
X165811232Y-108851788D01*
X165889873Y-108697445D01*
X165943402Y-108532701D01*
X165970500Y-108361611D01*
X165970500Y-108188389D01*
X166309500Y-108188389D01*
X166309500Y-108361610D01*
X166333444Y-108512792D01*
X166336598Y-108532701D01*
X166390127Y-108697445D01*
X166468768Y-108851788D01*
X166570586Y-108991928D01*
X166693072Y-109114414D01*
X166833212Y-109216232D01*
X166987555Y-109294873D01*
X167152299Y-109348402D01*
X167323389Y-109375500D01*
X167323390Y-109375500D01*
X167496610Y-109375500D01*
X167496611Y-109375500D01*
X167667701Y-109348402D01*
X167832445Y-109294873D01*
X167986788Y-109216232D01*
X168126928Y-109114414D01*
X168249414Y-108991928D01*
X168351232Y-108851788D01*
X168429873Y-108697445D01*
X168483402Y-108532701D01*
X168510500Y-108361611D01*
X168510500Y-108188389D01*
X168849500Y-108188389D01*
X168849500Y-108361610D01*
X168873444Y-108512792D01*
X168876598Y-108532701D01*
X168930127Y-108697445D01*
X169008768Y-108851788D01*
X169110586Y-108991928D01*
X169233072Y-109114414D01*
X169373212Y-109216232D01*
X169527555Y-109294873D01*
X169692299Y-109348402D01*
X169863389Y-109375500D01*
X169863390Y-109375500D01*
X170036610Y-109375500D01*
X170036611Y-109375500D01*
X170207701Y-109348402D01*
X170372445Y-109294873D01*
X170526788Y-109216232D01*
X170666928Y-109114414D01*
X170789414Y-108991928D01*
X170891232Y-108851788D01*
X170969873Y-108697445D01*
X171023402Y-108532701D01*
X171050500Y-108361611D01*
X171050500Y-108188389D01*
X171389500Y-108188389D01*
X171389500Y-108361610D01*
X171413444Y-108512792D01*
X171416598Y-108532701D01*
X171470127Y-108697445D01*
X171548768Y-108851788D01*
X171650586Y-108991928D01*
X171773072Y-109114414D01*
X171913212Y-109216232D01*
X172067555Y-109294873D01*
X172232299Y-109348402D01*
X172403389Y-109375500D01*
X172403390Y-109375500D01*
X172576610Y-109375500D01*
X172576611Y-109375500D01*
X172747701Y-109348402D01*
X172912445Y-109294873D01*
X173066788Y-109216232D01*
X173206928Y-109114414D01*
X173329414Y-108991928D01*
X173431232Y-108851788D01*
X173509873Y-108697445D01*
X173563402Y-108532701D01*
X173590500Y-108361611D01*
X173590500Y-108188389D01*
X173563402Y-108017299D01*
X173509873Y-107852555D01*
X173431232Y-107698212D01*
X173329414Y-107558072D01*
X173206928Y-107435586D01*
X173066788Y-107333768D01*
X172912445Y-107255127D01*
X172747701Y-107201598D01*
X172747699Y-107201597D01*
X172747698Y-107201597D01*
X172616271Y-107180781D01*
X172576611Y-107174500D01*
X172403389Y-107174500D01*
X172363728Y-107180781D01*
X172232302Y-107201597D01*
X172067552Y-107255128D01*
X171913211Y-107333768D01*
X171861219Y-107371543D01*
X171773072Y-107435586D01*
X171773070Y-107435588D01*
X171773069Y-107435588D01*
X171650588Y-107558069D01*
X171650588Y-107558070D01*
X171650586Y-107558072D01*
X171606859Y-107618256D01*
X171548768Y-107698211D01*
X171470128Y-107852552D01*
X171416597Y-108017302D01*
X171389500Y-108188389D01*
X171050500Y-108188389D01*
X171023402Y-108017299D01*
X170969873Y-107852555D01*
X170891232Y-107698212D01*
X170789414Y-107558072D01*
X170666928Y-107435586D01*
X170526788Y-107333768D01*
X170372445Y-107255127D01*
X170207701Y-107201598D01*
X170207699Y-107201597D01*
X170207698Y-107201597D01*
X170076271Y-107180781D01*
X170036611Y-107174500D01*
X169863389Y-107174500D01*
X169823728Y-107180781D01*
X169692302Y-107201597D01*
X169527552Y-107255128D01*
X169373211Y-107333768D01*
X169321219Y-107371543D01*
X169233072Y-107435586D01*
X169233070Y-107435588D01*
X169233069Y-107435588D01*
X169110588Y-107558069D01*
X169110588Y-107558070D01*
X169110586Y-107558072D01*
X169066859Y-107618256D01*
X169008768Y-107698211D01*
X168930128Y-107852552D01*
X168876597Y-108017302D01*
X168849500Y-108188389D01*
X168510500Y-108188389D01*
X168483402Y-108017299D01*
X168429873Y-107852555D01*
X168351232Y-107698212D01*
X168249414Y-107558072D01*
X168126928Y-107435586D01*
X167986788Y-107333768D01*
X167832445Y-107255127D01*
X167667701Y-107201598D01*
X167667699Y-107201597D01*
X167667698Y-107201597D01*
X167536271Y-107180781D01*
X167496611Y-107174500D01*
X167323389Y-107174500D01*
X167283728Y-107180781D01*
X167152302Y-107201597D01*
X166987552Y-107255128D01*
X166833211Y-107333768D01*
X166781219Y-107371543D01*
X166693072Y-107435586D01*
X166693070Y-107435588D01*
X166693069Y-107435588D01*
X166570588Y-107558069D01*
X166570588Y-107558070D01*
X166570586Y-107558072D01*
X166526859Y-107618256D01*
X166468768Y-107698211D01*
X166390128Y-107852552D01*
X166336597Y-108017302D01*
X166309500Y-108188389D01*
X165970500Y-108188389D01*
X165943402Y-108017299D01*
X165889873Y-107852555D01*
X165811232Y-107698212D01*
X165709414Y-107558072D01*
X165586928Y-107435586D01*
X165446788Y-107333768D01*
X165292445Y-107255127D01*
X165127701Y-107201598D01*
X165127699Y-107201597D01*
X165127698Y-107201597D01*
X164996271Y-107180781D01*
X164956611Y-107174500D01*
X164783389Y-107174500D01*
X164743728Y-107180781D01*
X164612302Y-107201597D01*
X164447552Y-107255128D01*
X164293211Y-107333768D01*
X164241219Y-107371543D01*
X164153072Y-107435586D01*
X164153070Y-107435588D01*
X164153069Y-107435588D01*
X164030588Y-107558069D01*
X164030588Y-107558070D01*
X164030586Y-107558072D01*
X163986859Y-107618256D01*
X163928768Y-107698211D01*
X163850128Y-107852552D01*
X163796597Y-108017302D01*
X163769500Y-108188389D01*
X163430500Y-108188389D01*
X163403402Y-108017299D01*
X163349873Y-107852555D01*
X163271232Y-107698212D01*
X163169414Y-107558072D01*
X163046928Y-107435586D01*
X162906788Y-107333768D01*
X162752445Y-107255127D01*
X162587701Y-107201598D01*
X162587699Y-107201597D01*
X162587698Y-107201597D01*
X162456271Y-107180781D01*
X162416611Y-107174500D01*
X162243389Y-107174500D01*
X162203728Y-107180781D01*
X162072302Y-107201597D01*
X161907552Y-107255128D01*
X161753211Y-107333768D01*
X161701219Y-107371543D01*
X161613072Y-107435586D01*
X161613070Y-107435588D01*
X161613069Y-107435588D01*
X161490588Y-107558069D01*
X161490588Y-107558070D01*
X161490586Y-107558072D01*
X161446859Y-107618256D01*
X161388768Y-107698211D01*
X161310128Y-107852552D01*
X161256597Y-108017302D01*
X161229500Y-108188389D01*
X160890500Y-108188389D01*
X160863402Y-108017299D01*
X160809873Y-107852555D01*
X160731232Y-107698212D01*
X160629414Y-107558072D01*
X160506928Y-107435586D01*
X160366788Y-107333768D01*
X160212445Y-107255127D01*
X160047701Y-107201598D01*
X160047699Y-107201597D01*
X160047698Y-107201597D01*
X159916271Y-107180781D01*
X159876611Y-107174500D01*
X159703389Y-107174500D01*
X159663728Y-107180781D01*
X159532302Y-107201597D01*
X159367552Y-107255128D01*
X159213211Y-107333768D01*
X159161219Y-107371543D01*
X159073072Y-107435586D01*
X159073070Y-107435588D01*
X159073069Y-107435588D01*
X158950588Y-107558069D01*
X158950588Y-107558070D01*
X158950586Y-107558072D01*
X158906859Y-107618256D01*
X158848768Y-107698211D01*
X158770128Y-107852552D01*
X158716597Y-108017302D01*
X158689500Y-108188389D01*
X158350500Y-108188389D01*
X158323402Y-108017299D01*
X158269873Y-107852555D01*
X158191232Y-107698212D01*
X158089414Y-107558072D01*
X157966928Y-107435586D01*
X157826788Y-107333768D01*
X157672445Y-107255127D01*
X157507701Y-107201598D01*
X157507699Y-107201597D01*
X157507698Y-107201597D01*
X157376271Y-107180781D01*
X157336611Y-107174500D01*
X157163389Y-107174500D01*
X157123728Y-107180781D01*
X156992302Y-107201597D01*
X156827552Y-107255128D01*
X156673211Y-107333768D01*
X156621219Y-107371543D01*
X156533072Y-107435586D01*
X156533070Y-107435588D01*
X156533069Y-107435588D01*
X156410588Y-107558069D01*
X156410588Y-107558070D01*
X156410586Y-107558072D01*
X156366859Y-107618256D01*
X156308768Y-107698211D01*
X156230128Y-107852552D01*
X156176597Y-108017302D01*
X156149500Y-108188389D01*
X155810500Y-108188389D01*
X155810500Y-107400326D01*
X155810500Y-107400323D01*
X155810499Y-107400321D01*
X155795967Y-107327264D01*
X155795966Y-107327260D01*
X155791236Y-107320181D01*
X155740601Y-107244399D01*
X155676542Y-107201597D01*
X155657739Y-107189033D01*
X155657735Y-107189032D01*
X155584677Y-107174500D01*
X155584674Y-107174500D01*
X153835326Y-107174500D01*
X153835323Y-107174500D01*
X153762264Y-107189032D01*
X153762260Y-107189033D01*
X153679399Y-107244399D01*
X153624033Y-107327260D01*
X153624032Y-107327264D01*
X153609500Y-107400321D01*
X144070500Y-107400321D01*
X144070500Y-106906543D01*
X144090185Y-106839504D01*
X144106819Y-106818862D01*
X145277292Y-105648389D01*
X153609500Y-105648389D01*
X153609500Y-105821611D01*
X153636598Y-105992701D01*
X153690127Y-106157445D01*
X153768768Y-106311788D01*
X153870586Y-106451928D01*
X153993072Y-106574414D01*
X154133212Y-106676232D01*
X154287555Y-106754873D01*
X154452299Y-106808402D01*
X154623389Y-106835500D01*
X154623390Y-106835500D01*
X154796610Y-106835500D01*
X154796611Y-106835500D01*
X154967701Y-106808402D01*
X155132445Y-106754873D01*
X155286788Y-106676232D01*
X155426928Y-106574414D01*
X155549414Y-106451928D01*
X155651232Y-106311788D01*
X155729873Y-106157445D01*
X155783402Y-105992701D01*
X155810500Y-105821611D01*
X155810500Y-105648389D01*
X156149500Y-105648389D01*
X156149500Y-105821611D01*
X156176598Y-105992701D01*
X156230127Y-106157445D01*
X156308768Y-106311788D01*
X156410586Y-106451928D01*
X156533072Y-106574414D01*
X156673212Y-106676232D01*
X156827555Y-106754873D01*
X156992299Y-106808402D01*
X157163389Y-106835500D01*
X157163390Y-106835500D01*
X157336610Y-106835500D01*
X157336611Y-106835500D01*
X157507701Y-106808402D01*
X157672445Y-106754873D01*
X157826788Y-106676232D01*
X157966928Y-106574414D01*
X158089414Y-106451928D01*
X158191232Y-106311788D01*
X158269873Y-106157445D01*
X158323402Y-105992701D01*
X158350500Y-105821611D01*
X158350500Y-105648389D01*
X158689500Y-105648389D01*
X158689500Y-105821611D01*
X158716598Y-105992701D01*
X158770127Y-106157445D01*
X158848768Y-106311788D01*
X158950586Y-106451928D01*
X159073072Y-106574414D01*
X159213212Y-106676232D01*
X159367555Y-106754873D01*
X159532299Y-106808402D01*
X159703389Y-106835500D01*
X159703390Y-106835500D01*
X159876610Y-106835500D01*
X159876611Y-106835500D01*
X160047701Y-106808402D01*
X160212445Y-106754873D01*
X160366788Y-106676232D01*
X160506928Y-106574414D01*
X160629414Y-106451928D01*
X160731232Y-106311788D01*
X160809873Y-106157445D01*
X160863402Y-105992701D01*
X160890500Y-105821611D01*
X160890500Y-105648389D01*
X161229500Y-105648389D01*
X161229500Y-105821611D01*
X161256598Y-105992701D01*
X161310127Y-106157445D01*
X161388768Y-106311788D01*
X161490586Y-106451928D01*
X161613072Y-106574414D01*
X161753212Y-106676232D01*
X161907555Y-106754873D01*
X162072299Y-106808402D01*
X162243389Y-106835500D01*
X162243390Y-106835500D01*
X162416610Y-106835500D01*
X162416611Y-106835500D01*
X162587701Y-106808402D01*
X162752445Y-106754873D01*
X162906788Y-106676232D01*
X163046928Y-106574414D01*
X163169414Y-106451928D01*
X163271232Y-106311788D01*
X163349873Y-106157445D01*
X163403402Y-105992701D01*
X163430500Y-105821611D01*
X163430500Y-105648389D01*
X163769500Y-105648389D01*
X163769500Y-105821611D01*
X163796598Y-105992701D01*
X163850127Y-106157445D01*
X163928768Y-106311788D01*
X164030586Y-106451928D01*
X164153072Y-106574414D01*
X164293212Y-106676232D01*
X164447555Y-106754873D01*
X164612299Y-106808402D01*
X164783389Y-106835500D01*
X164783390Y-106835500D01*
X164956610Y-106835500D01*
X164956611Y-106835500D01*
X165127701Y-106808402D01*
X165292445Y-106754873D01*
X165446788Y-106676232D01*
X165586928Y-106574414D01*
X165709414Y-106451928D01*
X165811232Y-106311788D01*
X165889873Y-106157445D01*
X165943402Y-105992701D01*
X165970500Y-105821611D01*
X165970500Y-105648389D01*
X166309500Y-105648389D01*
X166309500Y-105821611D01*
X166336598Y-105992701D01*
X166390127Y-106157445D01*
X166468768Y-106311788D01*
X166570586Y-106451928D01*
X166693072Y-106574414D01*
X166833212Y-106676232D01*
X166987555Y-106754873D01*
X167152299Y-106808402D01*
X167323389Y-106835500D01*
X167323390Y-106835500D01*
X167496610Y-106835500D01*
X167496611Y-106835500D01*
X167667701Y-106808402D01*
X167832445Y-106754873D01*
X167986788Y-106676232D01*
X168126928Y-106574414D01*
X168249414Y-106451928D01*
X168351232Y-106311788D01*
X168429873Y-106157445D01*
X168483402Y-105992701D01*
X168510500Y-105821611D01*
X168510500Y-105648389D01*
X168849500Y-105648389D01*
X168849500Y-105821611D01*
X168876598Y-105992701D01*
X168930127Y-106157445D01*
X169008768Y-106311788D01*
X169110586Y-106451928D01*
X169233072Y-106574414D01*
X169373212Y-106676232D01*
X169527555Y-106754873D01*
X169692299Y-106808402D01*
X169863389Y-106835500D01*
X169863390Y-106835500D01*
X170036610Y-106835500D01*
X170036611Y-106835500D01*
X170207701Y-106808402D01*
X170372445Y-106754873D01*
X170526788Y-106676232D01*
X170666928Y-106574414D01*
X170789414Y-106451928D01*
X170891232Y-106311788D01*
X170969873Y-106157445D01*
X171023402Y-105992701D01*
X171050500Y-105821611D01*
X171050500Y-105648389D01*
X171389500Y-105648389D01*
X171389500Y-105821611D01*
X171416598Y-105992701D01*
X171470127Y-106157445D01*
X171548768Y-106311788D01*
X171650586Y-106451928D01*
X171773072Y-106574414D01*
X171913212Y-106676232D01*
X172067555Y-106754873D01*
X172232299Y-106808402D01*
X172403389Y-106835500D01*
X172403390Y-106835500D01*
X172576610Y-106835500D01*
X172576611Y-106835500D01*
X172747701Y-106808402D01*
X172912445Y-106754873D01*
X173066788Y-106676232D01*
X173206928Y-106574414D01*
X173329414Y-106451928D01*
X173431232Y-106311788D01*
X173509873Y-106157445D01*
X173563402Y-105992701D01*
X173590500Y-105821611D01*
X173590500Y-105648389D01*
X173563402Y-105477299D01*
X173509873Y-105312555D01*
X173431232Y-105158212D01*
X173329414Y-105018072D01*
X173206928Y-104895586D01*
X173066788Y-104793768D01*
X172912445Y-104715127D01*
X172747701Y-104661598D01*
X172747699Y-104661597D01*
X172747698Y-104661597D01*
X172616271Y-104640781D01*
X172576611Y-104634500D01*
X172403389Y-104634500D01*
X172363728Y-104640781D01*
X172232302Y-104661597D01*
X172067552Y-104715128D01*
X171913211Y-104793768D01*
X171833256Y-104851859D01*
X171773072Y-104895586D01*
X171773070Y-104895588D01*
X171773069Y-104895588D01*
X171650588Y-105018069D01*
X171650588Y-105018070D01*
X171650586Y-105018072D01*
X171606859Y-105078256D01*
X171548768Y-105158211D01*
X171470128Y-105312552D01*
X171416597Y-105477302D01*
X171389500Y-105648389D01*
X171050500Y-105648389D01*
X171023402Y-105477299D01*
X170969873Y-105312555D01*
X170891232Y-105158212D01*
X170789414Y-105018072D01*
X170666928Y-104895586D01*
X170526788Y-104793768D01*
X170372445Y-104715127D01*
X170207701Y-104661598D01*
X170207699Y-104661597D01*
X170207698Y-104661597D01*
X170076271Y-104640781D01*
X170036611Y-104634500D01*
X169863389Y-104634500D01*
X169823728Y-104640781D01*
X169692302Y-104661597D01*
X169527552Y-104715128D01*
X169373211Y-104793768D01*
X169293256Y-104851859D01*
X169233072Y-104895586D01*
X169233070Y-104895588D01*
X169233069Y-104895588D01*
X169110588Y-105018069D01*
X169110588Y-105018070D01*
X169110586Y-105018072D01*
X169066859Y-105078256D01*
X169008768Y-105158211D01*
X168930128Y-105312552D01*
X168876597Y-105477302D01*
X168849500Y-105648389D01*
X168510500Y-105648389D01*
X168483402Y-105477299D01*
X168429873Y-105312555D01*
X168351232Y-105158212D01*
X168249414Y-105018072D01*
X168126928Y-104895586D01*
X167986788Y-104793768D01*
X167832445Y-104715127D01*
X167667701Y-104661598D01*
X167667699Y-104661597D01*
X167667698Y-104661597D01*
X167536271Y-104640781D01*
X167496611Y-104634500D01*
X167323389Y-104634500D01*
X167283728Y-104640781D01*
X167152302Y-104661597D01*
X166987552Y-104715128D01*
X166833211Y-104793768D01*
X166753256Y-104851859D01*
X166693072Y-104895586D01*
X166693070Y-104895588D01*
X166693069Y-104895588D01*
X166570588Y-105018069D01*
X166570588Y-105018070D01*
X166570586Y-105018072D01*
X166526859Y-105078256D01*
X166468768Y-105158211D01*
X166390128Y-105312552D01*
X166336597Y-105477302D01*
X166309500Y-105648389D01*
X165970500Y-105648389D01*
X165943402Y-105477299D01*
X165889873Y-105312555D01*
X165811232Y-105158212D01*
X165709414Y-105018072D01*
X165586928Y-104895586D01*
X165446788Y-104793768D01*
X165292445Y-104715127D01*
X165127701Y-104661598D01*
X165127699Y-104661597D01*
X165127698Y-104661597D01*
X164996271Y-104640781D01*
X164956611Y-104634500D01*
X164783389Y-104634500D01*
X164743728Y-104640781D01*
X164612302Y-104661597D01*
X164447552Y-104715128D01*
X164293211Y-104793768D01*
X164213256Y-104851859D01*
X164153072Y-104895586D01*
X164153070Y-104895588D01*
X164153069Y-104895588D01*
X164030588Y-105018069D01*
X164030588Y-105018070D01*
X164030586Y-105018072D01*
X163986859Y-105078256D01*
X163928768Y-105158211D01*
X163850128Y-105312552D01*
X163796597Y-105477302D01*
X163769500Y-105648389D01*
X163430500Y-105648389D01*
X163403402Y-105477299D01*
X163349873Y-105312555D01*
X163271232Y-105158212D01*
X163169414Y-105018072D01*
X163046928Y-104895586D01*
X162906788Y-104793768D01*
X162752445Y-104715127D01*
X162587701Y-104661598D01*
X162587699Y-104661597D01*
X162587698Y-104661597D01*
X162456271Y-104640781D01*
X162416611Y-104634500D01*
X162243389Y-104634500D01*
X162203728Y-104640781D01*
X162072302Y-104661597D01*
X161907552Y-104715128D01*
X161753211Y-104793768D01*
X161673256Y-104851859D01*
X161613072Y-104895586D01*
X161613070Y-104895588D01*
X161613069Y-104895588D01*
X161490588Y-105018069D01*
X161490588Y-105018070D01*
X161490586Y-105018072D01*
X161446859Y-105078256D01*
X161388768Y-105158211D01*
X161310128Y-105312552D01*
X161256597Y-105477302D01*
X161229500Y-105648389D01*
X160890500Y-105648389D01*
X160863402Y-105477299D01*
X160809873Y-105312555D01*
X160731232Y-105158212D01*
X160629414Y-105018072D01*
X160506928Y-104895586D01*
X160366788Y-104793768D01*
X160212445Y-104715127D01*
X160047701Y-104661598D01*
X160047699Y-104661597D01*
X160047698Y-104661597D01*
X159916271Y-104640781D01*
X159876611Y-104634500D01*
X159703389Y-104634500D01*
X159663728Y-104640781D01*
X159532302Y-104661597D01*
X159367552Y-104715128D01*
X159213211Y-104793768D01*
X159133256Y-104851859D01*
X159073072Y-104895586D01*
X159073070Y-104895588D01*
X159073069Y-104895588D01*
X158950588Y-105018069D01*
X158950588Y-105018070D01*
X158950586Y-105018072D01*
X158906859Y-105078256D01*
X158848768Y-105158211D01*
X158770128Y-105312552D01*
X158716597Y-105477302D01*
X158689500Y-105648389D01*
X158350500Y-105648389D01*
X158323402Y-105477299D01*
X158269873Y-105312555D01*
X158191232Y-105158212D01*
X158089414Y-105018072D01*
X157966928Y-104895586D01*
X157826788Y-104793768D01*
X157672445Y-104715127D01*
X157507701Y-104661598D01*
X157507699Y-104661597D01*
X157507698Y-104661597D01*
X157376271Y-104640781D01*
X157336611Y-104634500D01*
X157163389Y-104634500D01*
X157123728Y-104640781D01*
X156992302Y-104661597D01*
X156827552Y-104715128D01*
X156673211Y-104793768D01*
X156593256Y-104851859D01*
X156533072Y-104895586D01*
X156533070Y-104895588D01*
X156533069Y-104895588D01*
X156410588Y-105018069D01*
X156410588Y-105018070D01*
X156410586Y-105018072D01*
X156366859Y-105078256D01*
X156308768Y-105158211D01*
X156230128Y-105312552D01*
X156176597Y-105477302D01*
X156149500Y-105648389D01*
X155810500Y-105648389D01*
X155783402Y-105477299D01*
X155729873Y-105312555D01*
X155651232Y-105158212D01*
X155549414Y-105018072D01*
X155426928Y-104895586D01*
X155286788Y-104793768D01*
X155132445Y-104715127D01*
X154967701Y-104661598D01*
X154967699Y-104661597D01*
X154967698Y-104661597D01*
X154836271Y-104640781D01*
X154796611Y-104634500D01*
X154623389Y-104634500D01*
X154583728Y-104640781D01*
X154452302Y-104661597D01*
X154287552Y-104715128D01*
X154133211Y-104793768D01*
X154053256Y-104851859D01*
X153993072Y-104895586D01*
X153993070Y-104895588D01*
X153993069Y-104895588D01*
X153870588Y-105018069D01*
X153870588Y-105018070D01*
X153870586Y-105018072D01*
X153826859Y-105078256D01*
X153768768Y-105158211D01*
X153690128Y-105312552D01*
X153636597Y-105477302D01*
X153609500Y-105648389D01*
X145277292Y-105648389D01*
X146503862Y-104421819D01*
X146565185Y-104388334D01*
X146591543Y-104385500D01*
X158416142Y-104385500D01*
X158416144Y-104385500D01*
X158505288Y-104361614D01*
X158585212Y-104315470D01*
X158585216Y-104315465D01*
X158591524Y-104310626D01*
X158656692Y-104285430D01*
X158667013Y-104285000D01*
X160569999Y-104285000D01*
X160570000Y-104285000D01*
X161570000Y-103335000D01*
X161570000Y-98933482D01*
X161589685Y-98866443D01*
X161602880Y-98849379D01*
X162133176Y-98274893D01*
X162193112Y-98238984D01*
X162224292Y-98235000D01*
X174918638Y-98235000D01*
X174985677Y-98254685D01*
X175006319Y-98271319D01*
X175633681Y-98898681D01*
X175667166Y-98960004D01*
X175670000Y-98986362D01*
X175670000Y-111585000D01*
X176270000Y-112135000D01*
X178072417Y-112135000D01*
X178139456Y-112154685D01*
X178155360Y-112166824D01*
X178578454Y-112547609D01*
X178615113Y-112607084D01*
X178619500Y-112639774D01*
X178619500Y-122334138D01*
X178599815Y-122401177D01*
X178583181Y-122421819D01*
X177956819Y-123048181D01*
X177895496Y-123081666D01*
X177869138Y-123084500D01*
X125961525Y-123084500D01*
X125894486Y-123064815D01*
X125885921Y-123058785D01*
X125318896Y-122622611D01*
X125277761Y-122566134D01*
X125270500Y-122524326D01*
X125270500Y-119683543D01*
X135919499Y-119683543D01*
X135957947Y-119876829D01*
X135957950Y-119876839D01*
X136033364Y-120058907D01*
X136033371Y-120058920D01*
X136142860Y-120222781D01*
X136142863Y-120222785D01*
X136282214Y-120362136D01*
X136282218Y-120362139D01*
X136446079Y-120471628D01*
X136446092Y-120471635D01*
X136628160Y-120547049D01*
X136628165Y-120547051D01*
X136628169Y-120547051D01*
X136628170Y-120547052D01*
X136821456Y-120585500D01*
X136821459Y-120585500D01*
X137018543Y-120585500D01*
X137148582Y-120559632D01*
X137211835Y-120547051D01*
X137393914Y-120471632D01*
X137557782Y-120362139D01*
X137697139Y-120222782D01*
X137806632Y-120058914D01*
X137882051Y-119876835D01*
X137920500Y-119683541D01*
X137920500Y-119486459D01*
X137920500Y-119486456D01*
X137882052Y-119293170D01*
X137882051Y-119293169D01*
X137882051Y-119293165D01*
X137837455Y-119185499D01*
X137806635Y-119111092D01*
X137806628Y-119111079D01*
X137697139Y-118947218D01*
X137697136Y-118947214D01*
X137557785Y-118807863D01*
X137557781Y-118807860D01*
X137393920Y-118698371D01*
X137393907Y-118698364D01*
X137211839Y-118622950D01*
X137211829Y-118622947D01*
X137018543Y-118584500D01*
X137018541Y-118584500D01*
X136821459Y-118584500D01*
X136821457Y-118584500D01*
X136628170Y-118622947D01*
X136628160Y-118622950D01*
X136446092Y-118698364D01*
X136446079Y-118698371D01*
X136282218Y-118807860D01*
X136282214Y-118807863D01*
X136142863Y-118947214D01*
X136142860Y-118947218D01*
X136033371Y-119111079D01*
X136033364Y-119111092D01*
X135957950Y-119293160D01*
X135957947Y-119293170D01*
X135919500Y-119486456D01*
X135919500Y-119486459D01*
X135919500Y-119683541D01*
X135919500Y-119683543D01*
X135919499Y-119683543D01*
X125270500Y-119683543D01*
X125270500Y-118156462D01*
X127319500Y-118156462D01*
X127319500Y-118738517D01*
X127319501Y-118738526D01*
X127325828Y-118797391D01*
X127375497Y-118930554D01*
X127460669Y-119044331D01*
X127574446Y-119129503D01*
X127707609Y-119179171D01*
X127766479Y-119185500D01*
X128773520Y-119185499D01*
X128832391Y-119179171D01*
X128965554Y-119129503D01*
X129079331Y-119044331D01*
X129164503Y-118930554D01*
X129214171Y-118797391D01*
X129216536Y-118775383D01*
X129220499Y-118738537D01*
X129220499Y-118738526D01*
X129220500Y-118738521D01*
X129220499Y-118156480D01*
X129220497Y-118156462D01*
X130569500Y-118156462D01*
X130569500Y-118738517D01*
X130569501Y-118738526D01*
X130575828Y-118797391D01*
X130625497Y-118930554D01*
X130710669Y-119044331D01*
X130824446Y-119129503D01*
X130957609Y-119179171D01*
X131016479Y-119185500D01*
X132023520Y-119185499D01*
X132082391Y-119179171D01*
X132215554Y-119129503D01*
X132329331Y-119044331D01*
X132414503Y-118930554D01*
X132464171Y-118797391D01*
X132466536Y-118775383D01*
X132470499Y-118738537D01*
X132470499Y-118738526D01*
X132470500Y-118738521D01*
X132470499Y-118156480D01*
X132464171Y-118097609D01*
X132414503Y-117964446D01*
X132329331Y-117850669D01*
X132260962Y-117799489D01*
X132215556Y-117765498D01*
X132215554Y-117765497D01*
X132082391Y-117715829D01*
X132082389Y-117715828D01*
X132082387Y-117715828D01*
X132023537Y-117709500D01*
X132023521Y-117709500D01*
X131994500Y-117709500D01*
X131927461Y-117689815D01*
X131881706Y-117637011D01*
X131870500Y-117585500D01*
X131870500Y-116298847D01*
X131890185Y-116231808D01*
X131942989Y-116186053D01*
X131953528Y-116181812D01*
X132007882Y-116162793D01*
X132117150Y-116082150D01*
X132197793Y-115972882D01*
X132220219Y-115908790D01*
X132242646Y-115844701D01*
X132242646Y-115844699D01*
X132245500Y-115814269D01*
X132245500Y-115305730D01*
X133994500Y-115305730D01*
X133994500Y-115814269D01*
X133997353Y-115844699D01*
X133997353Y-115844701D01*
X134042206Y-115972880D01*
X134042207Y-115972882D01*
X134122850Y-116082150D01*
X134232118Y-116162793D01*
X134286456Y-116181806D01*
X134343231Y-116222527D01*
X134368978Y-116287480D01*
X134369500Y-116298847D01*
X134369500Y-116631144D01*
X134385012Y-116689034D01*
X134385011Y-116689034D01*
X134385012Y-116689036D01*
X134393384Y-116720284D01*
X134393385Y-116720286D01*
X134439527Y-116800208D01*
X134439529Y-116800211D01*
X134439530Y-116800212D01*
X135204787Y-117565469D01*
X135284712Y-117611614D01*
X135373856Y-117635500D01*
X135373858Y-117635500D01*
X142266142Y-117635500D01*
X142266144Y-117635500D01*
X142355288Y-117611614D01*
X142435212Y-117565470D01*
X143100361Y-116900321D01*
X153609500Y-116900321D01*
X153609500Y-118649678D01*
X153624032Y-118722735D01*
X153624033Y-118722739D01*
X153624034Y-118722740D01*
X153679399Y-118805601D01*
X153762260Y-118860966D01*
X153762264Y-118860967D01*
X153835321Y-118875499D01*
X153835324Y-118875500D01*
X153835326Y-118875500D01*
X155584676Y-118875500D01*
X155584677Y-118875499D01*
X155657740Y-118860966D01*
X155740601Y-118805601D01*
X155795966Y-118722740D01*
X155810500Y-118649674D01*
X155810500Y-117688389D01*
X156149500Y-117688389D01*
X156149500Y-117861611D01*
X156176598Y-118032701D01*
X156230127Y-118197445D01*
X156308768Y-118351788D01*
X156410586Y-118491928D01*
X156533072Y-118614414D01*
X156673212Y-118716232D01*
X156827555Y-118794873D01*
X156992299Y-118848402D01*
X157163389Y-118875500D01*
X157163390Y-118875500D01*
X157336610Y-118875500D01*
X157336611Y-118875500D01*
X157507701Y-118848402D01*
X157672445Y-118794873D01*
X157826788Y-118716232D01*
X157966928Y-118614414D01*
X158089414Y-118491928D01*
X158191232Y-118351788D01*
X158269873Y-118197445D01*
X158323402Y-118032701D01*
X158350500Y-117861611D01*
X158350500Y-117688389D01*
X158689500Y-117688389D01*
X158689500Y-117861611D01*
X158716598Y-118032701D01*
X158770127Y-118197445D01*
X158848768Y-118351788D01*
X158950586Y-118491928D01*
X159073072Y-118614414D01*
X159213212Y-118716232D01*
X159367555Y-118794873D01*
X159532299Y-118848402D01*
X159703389Y-118875500D01*
X159703390Y-118875500D01*
X159876610Y-118875500D01*
X159876611Y-118875500D01*
X160047701Y-118848402D01*
X160212445Y-118794873D01*
X160366788Y-118716232D01*
X160506928Y-118614414D01*
X160629414Y-118491928D01*
X160731232Y-118351788D01*
X160809873Y-118197445D01*
X160863402Y-118032701D01*
X160890500Y-117861611D01*
X160890500Y-117688389D01*
X161229500Y-117688389D01*
X161229500Y-117861611D01*
X161256598Y-118032701D01*
X161310127Y-118197445D01*
X161388768Y-118351788D01*
X161490586Y-118491928D01*
X161613072Y-118614414D01*
X161753212Y-118716232D01*
X161907555Y-118794873D01*
X162072299Y-118848402D01*
X162243389Y-118875500D01*
X162243390Y-118875500D01*
X162416610Y-118875500D01*
X162416611Y-118875500D01*
X162587701Y-118848402D01*
X162752445Y-118794873D01*
X162906788Y-118716232D01*
X163046928Y-118614414D01*
X163169414Y-118491928D01*
X163271232Y-118351788D01*
X163349873Y-118197445D01*
X163403402Y-118032701D01*
X163430500Y-117861611D01*
X163430500Y-117688389D01*
X163769500Y-117688389D01*
X163769500Y-117861611D01*
X163796598Y-118032701D01*
X163850127Y-118197445D01*
X163928768Y-118351788D01*
X164030586Y-118491928D01*
X164153072Y-118614414D01*
X164293212Y-118716232D01*
X164447555Y-118794873D01*
X164612299Y-118848402D01*
X164783389Y-118875500D01*
X164783390Y-118875500D01*
X164956610Y-118875500D01*
X164956611Y-118875500D01*
X165127701Y-118848402D01*
X165292445Y-118794873D01*
X165446788Y-118716232D01*
X165586928Y-118614414D01*
X165709414Y-118491928D01*
X165811232Y-118351788D01*
X165889873Y-118197445D01*
X165943402Y-118032701D01*
X165970500Y-117861611D01*
X165970500Y-117688389D01*
X166309500Y-117688389D01*
X166309500Y-117861611D01*
X166336598Y-118032701D01*
X166390127Y-118197445D01*
X166468768Y-118351788D01*
X166570586Y-118491928D01*
X166693072Y-118614414D01*
X166833212Y-118716232D01*
X166987555Y-118794873D01*
X167152299Y-118848402D01*
X167323389Y-118875500D01*
X167323390Y-118875500D01*
X167496610Y-118875500D01*
X167496611Y-118875500D01*
X167667701Y-118848402D01*
X167832445Y-118794873D01*
X167986788Y-118716232D01*
X168126928Y-118614414D01*
X168249414Y-118491928D01*
X168351232Y-118351788D01*
X168429873Y-118197445D01*
X168483402Y-118032701D01*
X168510500Y-117861611D01*
X168510500Y-117688389D01*
X168849500Y-117688389D01*
X168849500Y-117861611D01*
X168876598Y-118032701D01*
X168930127Y-118197445D01*
X169008768Y-118351788D01*
X169110586Y-118491928D01*
X169233072Y-118614414D01*
X169373212Y-118716232D01*
X169527555Y-118794873D01*
X169692299Y-118848402D01*
X169863389Y-118875500D01*
X169863390Y-118875500D01*
X170036610Y-118875500D01*
X170036611Y-118875500D01*
X170207701Y-118848402D01*
X170372445Y-118794873D01*
X170526788Y-118716232D01*
X170666928Y-118614414D01*
X170789414Y-118491928D01*
X170891232Y-118351788D01*
X170969873Y-118197445D01*
X171023402Y-118032701D01*
X171050500Y-117861611D01*
X171050500Y-117688389D01*
X171389500Y-117688389D01*
X171389500Y-117861611D01*
X171416598Y-118032701D01*
X171470127Y-118197445D01*
X171548768Y-118351788D01*
X171650586Y-118491928D01*
X171773072Y-118614414D01*
X171913212Y-118716232D01*
X172067555Y-118794873D01*
X172232299Y-118848402D01*
X172403389Y-118875500D01*
X172403390Y-118875500D01*
X172576610Y-118875500D01*
X172576611Y-118875500D01*
X172747701Y-118848402D01*
X172912445Y-118794873D01*
X173066788Y-118716232D01*
X173206928Y-118614414D01*
X173329414Y-118491928D01*
X173431232Y-118351788D01*
X173509873Y-118197445D01*
X173563402Y-118032701D01*
X173590500Y-117861611D01*
X173590500Y-117688389D01*
X173563402Y-117517299D01*
X173509873Y-117352555D01*
X173431232Y-117198212D01*
X173329414Y-117058072D01*
X173206928Y-116935586D01*
X173066788Y-116833768D01*
X172912445Y-116755127D01*
X172747701Y-116701598D01*
X172747699Y-116701597D01*
X172747698Y-116701597D01*
X172616271Y-116680781D01*
X172576611Y-116674500D01*
X172403389Y-116674500D01*
X172363728Y-116680781D01*
X172232302Y-116701597D01*
X172067552Y-116755128D01*
X171913211Y-116833768D01*
X171833256Y-116891859D01*
X171773072Y-116935586D01*
X171773070Y-116935588D01*
X171773069Y-116935588D01*
X171650588Y-117058069D01*
X171650588Y-117058070D01*
X171650586Y-117058072D01*
X171606859Y-117118256D01*
X171548768Y-117198211D01*
X171470128Y-117352552D01*
X171416597Y-117517302D01*
X171408968Y-117565470D01*
X171389500Y-117688389D01*
X171050500Y-117688389D01*
X171023402Y-117517299D01*
X170969873Y-117352555D01*
X170891232Y-117198212D01*
X170789414Y-117058072D01*
X170666928Y-116935586D01*
X170526788Y-116833768D01*
X170372445Y-116755127D01*
X170207701Y-116701598D01*
X170207699Y-116701597D01*
X170207698Y-116701597D01*
X170076271Y-116680781D01*
X170036611Y-116674500D01*
X169863389Y-116674500D01*
X169823728Y-116680781D01*
X169692302Y-116701597D01*
X169527552Y-116755128D01*
X169373211Y-116833768D01*
X169293256Y-116891859D01*
X169233072Y-116935586D01*
X169233070Y-116935588D01*
X169233069Y-116935588D01*
X169110588Y-117058069D01*
X169110588Y-117058070D01*
X169110586Y-117058072D01*
X169066859Y-117118256D01*
X169008768Y-117198211D01*
X168930128Y-117352552D01*
X168876597Y-117517302D01*
X168868968Y-117565470D01*
X168849500Y-117688389D01*
X168510500Y-117688389D01*
X168483402Y-117517299D01*
X168429873Y-117352555D01*
X168351232Y-117198212D01*
X168249414Y-117058072D01*
X168126928Y-116935586D01*
X167986788Y-116833768D01*
X167832445Y-116755127D01*
X167667701Y-116701598D01*
X167667699Y-116701597D01*
X167667698Y-116701597D01*
X167536271Y-116680781D01*
X167496611Y-116674500D01*
X167323389Y-116674500D01*
X167283728Y-116680781D01*
X167152302Y-116701597D01*
X166987552Y-116755128D01*
X166833211Y-116833768D01*
X166753256Y-116891859D01*
X166693072Y-116935586D01*
X166693070Y-116935588D01*
X166693069Y-116935588D01*
X166570588Y-117058069D01*
X166570588Y-117058070D01*
X166570586Y-117058072D01*
X166526859Y-117118256D01*
X166468768Y-117198211D01*
X166390128Y-117352552D01*
X166336597Y-117517302D01*
X166328968Y-117565470D01*
X166309500Y-117688389D01*
X165970500Y-117688389D01*
X165943402Y-117517299D01*
X165889873Y-117352555D01*
X165811232Y-117198212D01*
X165709414Y-117058072D01*
X165586928Y-116935586D01*
X165446788Y-116833768D01*
X165292445Y-116755127D01*
X165127701Y-116701598D01*
X165127699Y-116701597D01*
X165127698Y-116701597D01*
X164996271Y-116680781D01*
X164956611Y-116674500D01*
X164783389Y-116674500D01*
X164743728Y-116680781D01*
X164612302Y-116701597D01*
X164447552Y-116755128D01*
X164293211Y-116833768D01*
X164213256Y-116891859D01*
X164153072Y-116935586D01*
X164153070Y-116935588D01*
X164153069Y-116935588D01*
X164030588Y-117058069D01*
X164030588Y-117058070D01*
X164030586Y-117058072D01*
X163986859Y-117118256D01*
X163928768Y-117198211D01*
X163850128Y-117352552D01*
X163796597Y-117517302D01*
X163788968Y-117565470D01*
X163769500Y-117688389D01*
X163430500Y-117688389D01*
X163403402Y-117517299D01*
X163349873Y-117352555D01*
X163271232Y-117198212D01*
X163169414Y-117058072D01*
X163046928Y-116935586D01*
X162906788Y-116833768D01*
X162752445Y-116755127D01*
X162587701Y-116701598D01*
X162587699Y-116701597D01*
X162587698Y-116701597D01*
X162456271Y-116680781D01*
X162416611Y-116674500D01*
X162243389Y-116674500D01*
X162203728Y-116680781D01*
X162072302Y-116701597D01*
X161907552Y-116755128D01*
X161753211Y-116833768D01*
X161673256Y-116891859D01*
X161613072Y-116935586D01*
X161613070Y-116935588D01*
X161613069Y-116935588D01*
X161490588Y-117058069D01*
X161490588Y-117058070D01*
X161490586Y-117058072D01*
X161446859Y-117118256D01*
X161388768Y-117198211D01*
X161310128Y-117352552D01*
X161256597Y-117517302D01*
X161248968Y-117565470D01*
X161229500Y-117688389D01*
X160890500Y-117688389D01*
X160863402Y-117517299D01*
X160809873Y-117352555D01*
X160731232Y-117198212D01*
X160629414Y-117058072D01*
X160506928Y-116935586D01*
X160366788Y-116833768D01*
X160212445Y-116755127D01*
X160047701Y-116701598D01*
X160047699Y-116701597D01*
X160047698Y-116701597D01*
X159916271Y-116680781D01*
X159876611Y-116674500D01*
X159703389Y-116674500D01*
X159663728Y-116680781D01*
X159532302Y-116701597D01*
X159367552Y-116755128D01*
X159213211Y-116833768D01*
X159133256Y-116891859D01*
X159073072Y-116935586D01*
X159073070Y-116935588D01*
X159073069Y-116935588D01*
X158950588Y-117058069D01*
X158950588Y-117058070D01*
X158950586Y-117058072D01*
X158906859Y-117118256D01*
X158848768Y-117198211D01*
X158770128Y-117352552D01*
X158716597Y-117517302D01*
X158708968Y-117565470D01*
X158689500Y-117688389D01*
X158350500Y-117688389D01*
X158323402Y-117517299D01*
X158269873Y-117352555D01*
X158191232Y-117198212D01*
X158089414Y-117058072D01*
X157966928Y-116935586D01*
X157826788Y-116833768D01*
X157672445Y-116755127D01*
X157507701Y-116701598D01*
X157507699Y-116701597D01*
X157507698Y-116701597D01*
X157376271Y-116680781D01*
X157336611Y-116674500D01*
X157163389Y-116674500D01*
X157123728Y-116680781D01*
X156992302Y-116701597D01*
X156827552Y-116755128D01*
X156673211Y-116833768D01*
X156593256Y-116891859D01*
X156533072Y-116935586D01*
X156533070Y-116935588D01*
X156533069Y-116935588D01*
X156410588Y-117058069D01*
X156410588Y-117058070D01*
X156410586Y-117058072D01*
X156366859Y-117118256D01*
X156308768Y-117198211D01*
X156230128Y-117352552D01*
X156176597Y-117517302D01*
X156168968Y-117565470D01*
X156149500Y-117688389D01*
X155810500Y-117688389D01*
X155810500Y-116900326D01*
X155810500Y-116900323D01*
X155810499Y-116900321D01*
X155795967Y-116827264D01*
X155795966Y-116827260D01*
X155777893Y-116800212D01*
X155740601Y-116744399D01*
X155657740Y-116689034D01*
X155657739Y-116689033D01*
X155657735Y-116689032D01*
X155584677Y-116674500D01*
X155584674Y-116674500D01*
X153835326Y-116674500D01*
X153835323Y-116674500D01*
X153762264Y-116689032D01*
X153762260Y-116689033D01*
X153679399Y-116744399D01*
X153624033Y-116827260D01*
X153624032Y-116827264D01*
X153609500Y-116900321D01*
X143100361Y-116900321D01*
X143245554Y-116755128D01*
X143793035Y-116207646D01*
X144000469Y-116000212D01*
X144046614Y-115920288D01*
X144049475Y-115909609D01*
X144055638Y-115886613D01*
X144066868Y-115844699D01*
X144070500Y-115831144D01*
X144070500Y-115148389D01*
X153609500Y-115148389D01*
X153609500Y-115321611D01*
X153636598Y-115492701D01*
X153690127Y-115657445D01*
X153768768Y-115811788D01*
X153870586Y-115951928D01*
X153993072Y-116074414D01*
X154133212Y-116176232D01*
X154287555Y-116254873D01*
X154452299Y-116308402D01*
X154623389Y-116335500D01*
X154623390Y-116335500D01*
X154796610Y-116335500D01*
X154796611Y-116335500D01*
X154967701Y-116308402D01*
X155132445Y-116254873D01*
X155286788Y-116176232D01*
X155426928Y-116074414D01*
X155549414Y-115951928D01*
X155651232Y-115811788D01*
X155729873Y-115657445D01*
X155783402Y-115492701D01*
X155810500Y-115321611D01*
X155810500Y-115148389D01*
X156149500Y-115148389D01*
X156149500Y-115321611D01*
X156176598Y-115492701D01*
X156230127Y-115657445D01*
X156308768Y-115811788D01*
X156410586Y-115951928D01*
X156533072Y-116074414D01*
X156673212Y-116176232D01*
X156827555Y-116254873D01*
X156992299Y-116308402D01*
X157163389Y-116335500D01*
X157163390Y-116335500D01*
X157336610Y-116335500D01*
X157336611Y-116335500D01*
X157507701Y-116308402D01*
X157672445Y-116254873D01*
X157826788Y-116176232D01*
X157966928Y-116074414D01*
X158089414Y-115951928D01*
X158191232Y-115811788D01*
X158269873Y-115657445D01*
X158323402Y-115492701D01*
X158350500Y-115321611D01*
X158350500Y-115148389D01*
X158689500Y-115148389D01*
X158689500Y-115321611D01*
X158716598Y-115492701D01*
X158770127Y-115657445D01*
X158848768Y-115811788D01*
X158950586Y-115951928D01*
X159073072Y-116074414D01*
X159213212Y-116176232D01*
X159367555Y-116254873D01*
X159532299Y-116308402D01*
X159703389Y-116335500D01*
X159703390Y-116335500D01*
X159876610Y-116335500D01*
X159876611Y-116335500D01*
X160047701Y-116308402D01*
X160212445Y-116254873D01*
X160366788Y-116176232D01*
X160506928Y-116074414D01*
X160629414Y-115951928D01*
X160731232Y-115811788D01*
X160809873Y-115657445D01*
X160863402Y-115492701D01*
X160890500Y-115321611D01*
X160890500Y-115148389D01*
X161229500Y-115148389D01*
X161229500Y-115321611D01*
X161256598Y-115492701D01*
X161310127Y-115657445D01*
X161388768Y-115811788D01*
X161490586Y-115951928D01*
X161613072Y-116074414D01*
X161753212Y-116176232D01*
X161907555Y-116254873D01*
X162072299Y-116308402D01*
X162243389Y-116335500D01*
X162243390Y-116335500D01*
X162416610Y-116335500D01*
X162416611Y-116335500D01*
X162587701Y-116308402D01*
X162752445Y-116254873D01*
X162906788Y-116176232D01*
X163046928Y-116074414D01*
X163169414Y-115951928D01*
X163271232Y-115811788D01*
X163349873Y-115657445D01*
X163403402Y-115492701D01*
X163430500Y-115321611D01*
X163430500Y-115148389D01*
X163769500Y-115148389D01*
X163769500Y-115321611D01*
X163796598Y-115492701D01*
X163850127Y-115657445D01*
X163928768Y-115811788D01*
X164030586Y-115951928D01*
X164153072Y-116074414D01*
X164293212Y-116176232D01*
X164447555Y-116254873D01*
X164612299Y-116308402D01*
X164783389Y-116335500D01*
X164783390Y-116335500D01*
X164956610Y-116335500D01*
X164956611Y-116335500D01*
X165127701Y-116308402D01*
X165292445Y-116254873D01*
X165446788Y-116176232D01*
X165586928Y-116074414D01*
X165709414Y-115951928D01*
X165811232Y-115811788D01*
X165889873Y-115657445D01*
X165943402Y-115492701D01*
X165970500Y-115321611D01*
X165970500Y-115148389D01*
X166309500Y-115148389D01*
X166309500Y-115321611D01*
X166336598Y-115492701D01*
X166390127Y-115657445D01*
X166468768Y-115811788D01*
X166570586Y-115951928D01*
X166693072Y-116074414D01*
X166833212Y-116176232D01*
X166987555Y-116254873D01*
X167152299Y-116308402D01*
X167323389Y-116335500D01*
X167323390Y-116335500D01*
X167496610Y-116335500D01*
X167496611Y-116335500D01*
X167667701Y-116308402D01*
X167832445Y-116254873D01*
X167986788Y-116176232D01*
X168126928Y-116074414D01*
X168249414Y-115951928D01*
X168351232Y-115811788D01*
X168429873Y-115657445D01*
X168483402Y-115492701D01*
X168510500Y-115321611D01*
X168510500Y-115148389D01*
X168849500Y-115148389D01*
X168849500Y-115321611D01*
X168876598Y-115492701D01*
X168930127Y-115657445D01*
X169008768Y-115811788D01*
X169110586Y-115951928D01*
X169233072Y-116074414D01*
X169373212Y-116176232D01*
X169527555Y-116254873D01*
X169692299Y-116308402D01*
X169863389Y-116335500D01*
X169863390Y-116335500D01*
X170036610Y-116335500D01*
X170036611Y-116335500D01*
X170207701Y-116308402D01*
X170372445Y-116254873D01*
X170526788Y-116176232D01*
X170666928Y-116074414D01*
X170789414Y-115951928D01*
X170891232Y-115811788D01*
X170969873Y-115657445D01*
X171023402Y-115492701D01*
X171050500Y-115321611D01*
X171050500Y-115148389D01*
X171389500Y-115148389D01*
X171389500Y-115321611D01*
X171416598Y-115492701D01*
X171470127Y-115657445D01*
X171548768Y-115811788D01*
X171650586Y-115951928D01*
X171773072Y-116074414D01*
X171913212Y-116176232D01*
X172067555Y-116254873D01*
X172232299Y-116308402D01*
X172403389Y-116335500D01*
X172403390Y-116335500D01*
X172576610Y-116335500D01*
X172576611Y-116335500D01*
X172747701Y-116308402D01*
X172912445Y-116254873D01*
X173066788Y-116176232D01*
X173206928Y-116074414D01*
X173329414Y-115951928D01*
X173431232Y-115811788D01*
X173509873Y-115657445D01*
X173563402Y-115492701D01*
X173590500Y-115321611D01*
X173590500Y-115148389D01*
X173563402Y-114977299D01*
X173509873Y-114812555D01*
X173431232Y-114658212D01*
X173329414Y-114518072D01*
X173206928Y-114395586D01*
X173066788Y-114293768D01*
X172912445Y-114215127D01*
X172747701Y-114161598D01*
X172747699Y-114161597D01*
X172747698Y-114161597D01*
X172616271Y-114140781D01*
X172576611Y-114134500D01*
X172403389Y-114134500D01*
X172363728Y-114140781D01*
X172232302Y-114161597D01*
X172067552Y-114215128D01*
X171913211Y-114293768D01*
X171833256Y-114351859D01*
X171773072Y-114395586D01*
X171773070Y-114395588D01*
X171773069Y-114395588D01*
X171650588Y-114518069D01*
X171650588Y-114518070D01*
X171650586Y-114518072D01*
X171621834Y-114557646D01*
X171548768Y-114658211D01*
X171470128Y-114812552D01*
X171416597Y-114977302D01*
X171397131Y-115100208D01*
X171389500Y-115148389D01*
X171050500Y-115148389D01*
X171023402Y-114977299D01*
X170969873Y-114812555D01*
X170891232Y-114658212D01*
X170789414Y-114518072D01*
X170666928Y-114395586D01*
X170526788Y-114293768D01*
X170372445Y-114215127D01*
X170207701Y-114161598D01*
X170207699Y-114161597D01*
X170207698Y-114161597D01*
X170076271Y-114140781D01*
X170036611Y-114134500D01*
X169863389Y-114134500D01*
X169823728Y-114140781D01*
X169692302Y-114161597D01*
X169527552Y-114215128D01*
X169373211Y-114293768D01*
X169293256Y-114351859D01*
X169233072Y-114395586D01*
X169233070Y-114395588D01*
X169233069Y-114395588D01*
X169110588Y-114518069D01*
X169110588Y-114518070D01*
X169110586Y-114518072D01*
X169081834Y-114557646D01*
X169008768Y-114658211D01*
X168930128Y-114812552D01*
X168876597Y-114977302D01*
X168857131Y-115100208D01*
X168849500Y-115148389D01*
X168510500Y-115148389D01*
X168483402Y-114977299D01*
X168429873Y-114812555D01*
X168351232Y-114658212D01*
X168249414Y-114518072D01*
X168126928Y-114395586D01*
X167986788Y-114293768D01*
X167832445Y-114215127D01*
X167667701Y-114161598D01*
X167667699Y-114161597D01*
X167667698Y-114161597D01*
X167536271Y-114140781D01*
X167496611Y-114134500D01*
X167323389Y-114134500D01*
X167283728Y-114140781D01*
X167152302Y-114161597D01*
X166987552Y-114215128D01*
X166833211Y-114293768D01*
X166753256Y-114351859D01*
X166693072Y-114395586D01*
X166693070Y-114395588D01*
X166693069Y-114395588D01*
X166570588Y-114518069D01*
X166570588Y-114518070D01*
X166570586Y-114518072D01*
X166541834Y-114557646D01*
X166468768Y-114658211D01*
X166390128Y-114812552D01*
X166336597Y-114977302D01*
X166317131Y-115100208D01*
X166309500Y-115148389D01*
X165970500Y-115148389D01*
X165943402Y-114977299D01*
X165889873Y-114812555D01*
X165811232Y-114658212D01*
X165709414Y-114518072D01*
X165586928Y-114395586D01*
X165446788Y-114293768D01*
X165292445Y-114215127D01*
X165127701Y-114161598D01*
X165127699Y-114161597D01*
X165127698Y-114161597D01*
X164996271Y-114140781D01*
X164956611Y-114134500D01*
X164783389Y-114134500D01*
X164743728Y-114140781D01*
X164612302Y-114161597D01*
X164447552Y-114215128D01*
X164293211Y-114293768D01*
X164213256Y-114351859D01*
X164153072Y-114395586D01*
X164153070Y-114395588D01*
X164153069Y-114395588D01*
X164030588Y-114518069D01*
X164030588Y-114518070D01*
X164030586Y-114518072D01*
X164001834Y-114557646D01*
X163928768Y-114658211D01*
X163850128Y-114812552D01*
X163796597Y-114977302D01*
X163777131Y-115100208D01*
X163769500Y-115148389D01*
X163430500Y-115148389D01*
X163403402Y-114977299D01*
X163349873Y-114812555D01*
X163271232Y-114658212D01*
X163169414Y-114518072D01*
X163046928Y-114395586D01*
X162906788Y-114293768D01*
X162752445Y-114215127D01*
X162587701Y-114161598D01*
X162587699Y-114161597D01*
X162587698Y-114161597D01*
X162456271Y-114140781D01*
X162416611Y-114134500D01*
X162243389Y-114134500D01*
X162203728Y-114140781D01*
X162072302Y-114161597D01*
X161907552Y-114215128D01*
X161753211Y-114293768D01*
X161673256Y-114351859D01*
X161613072Y-114395586D01*
X161613070Y-114395588D01*
X161613069Y-114395588D01*
X161490588Y-114518069D01*
X161490588Y-114518070D01*
X161490586Y-114518072D01*
X161461834Y-114557646D01*
X161388768Y-114658211D01*
X161310128Y-114812552D01*
X161256597Y-114977302D01*
X161237131Y-115100208D01*
X161229500Y-115148389D01*
X160890500Y-115148389D01*
X160863402Y-114977299D01*
X160809873Y-114812555D01*
X160731232Y-114658212D01*
X160629414Y-114518072D01*
X160506928Y-114395586D01*
X160366788Y-114293768D01*
X160212445Y-114215127D01*
X160047701Y-114161598D01*
X160047699Y-114161597D01*
X160047698Y-114161597D01*
X159916271Y-114140781D01*
X159876611Y-114134500D01*
X159703389Y-114134500D01*
X159663728Y-114140781D01*
X159532302Y-114161597D01*
X159367552Y-114215128D01*
X159213211Y-114293768D01*
X159133256Y-114351859D01*
X159073072Y-114395586D01*
X159073070Y-114395588D01*
X159073069Y-114395588D01*
X158950588Y-114518069D01*
X158950588Y-114518070D01*
X158950586Y-114518072D01*
X158921834Y-114557646D01*
X158848768Y-114658211D01*
X158770128Y-114812552D01*
X158716597Y-114977302D01*
X158697131Y-115100208D01*
X158689500Y-115148389D01*
X158350500Y-115148389D01*
X158323402Y-114977299D01*
X158269873Y-114812555D01*
X158191232Y-114658212D01*
X158089414Y-114518072D01*
X157966928Y-114395586D01*
X157826788Y-114293768D01*
X157672445Y-114215127D01*
X157507701Y-114161598D01*
X157507699Y-114161597D01*
X157507698Y-114161597D01*
X157376271Y-114140781D01*
X157336611Y-114134500D01*
X157163389Y-114134500D01*
X157123728Y-114140781D01*
X156992302Y-114161597D01*
X156827552Y-114215128D01*
X156673211Y-114293768D01*
X156593256Y-114351859D01*
X156533072Y-114395586D01*
X156533070Y-114395588D01*
X156533069Y-114395588D01*
X156410588Y-114518069D01*
X156410588Y-114518070D01*
X156410586Y-114518072D01*
X156381834Y-114557646D01*
X156308768Y-114658211D01*
X156230128Y-114812552D01*
X156176597Y-114977302D01*
X156157131Y-115100208D01*
X156149500Y-115148389D01*
X155810500Y-115148389D01*
X155783402Y-114977299D01*
X155729873Y-114812555D01*
X155651232Y-114658212D01*
X155549414Y-114518072D01*
X155426928Y-114395586D01*
X155286788Y-114293768D01*
X155132445Y-114215127D01*
X154967701Y-114161598D01*
X154967699Y-114161597D01*
X154967698Y-114161597D01*
X154836271Y-114140781D01*
X154796611Y-114134500D01*
X154623389Y-114134500D01*
X154583728Y-114140781D01*
X154452302Y-114161597D01*
X154287552Y-114215128D01*
X154133211Y-114293768D01*
X154053256Y-114351859D01*
X153993072Y-114395586D01*
X153993070Y-114395588D01*
X153993069Y-114395588D01*
X153870588Y-114518069D01*
X153870588Y-114518070D01*
X153870586Y-114518072D01*
X153841834Y-114557646D01*
X153768768Y-114658211D01*
X153690128Y-114812552D01*
X153636597Y-114977302D01*
X153617131Y-115100208D01*
X153609500Y-115148389D01*
X144070500Y-115148389D01*
X144070500Y-114364386D01*
X144090185Y-114297347D01*
X144106819Y-114276705D01*
X144123025Y-114260499D01*
X144160509Y-114223015D01*
X144232984Y-114097485D01*
X144270500Y-113957475D01*
X144270500Y-113812525D01*
X144232984Y-113672515D01*
X144223295Y-113655734D01*
X144160511Y-113546988D01*
X144160506Y-113546982D01*
X144070057Y-113456533D01*
X144036572Y-113395210D01*
X144041556Y-113325518D01*
X144083428Y-113269585D01*
X144095738Y-113261465D01*
X144123431Y-113245476D01*
X144158015Y-113225509D01*
X144260509Y-113123015D01*
X144332984Y-112997485D01*
X144370500Y-112857475D01*
X144370500Y-112712525D01*
X144332984Y-112572515D01*
X144332696Y-112572016D01*
X144303531Y-112521500D01*
X144302099Y-112515598D01*
X144298124Y-112511011D01*
X144293959Y-112482046D01*
X144287058Y-112453600D01*
X144289044Y-112447861D01*
X144288180Y-112441853D01*
X144300339Y-112415228D01*
X144309911Y-112387573D01*
X144314682Y-112383820D01*
X144317205Y-112378297D01*
X144341827Y-112362473D01*
X144364832Y-112344382D01*
X144372182Y-112342965D01*
X144375983Y-112340523D01*
X144410918Y-112335500D01*
X144440614Y-112335500D01*
X144507653Y-112355185D01*
X144528295Y-112371819D01*
X144581985Y-112425509D01*
X144581986Y-112425510D01*
X144581988Y-112425511D01*
X144707511Y-112497982D01*
X144707512Y-112497982D01*
X144707515Y-112497984D01*
X144847525Y-112535500D01*
X144847528Y-112535500D01*
X144992472Y-112535500D01*
X144992475Y-112535500D01*
X145132485Y-112497984D01*
X145258015Y-112425509D01*
X145360509Y-112323015D01*
X145432984Y-112197485D01*
X145470500Y-112057475D01*
X145470500Y-112057471D01*
X145471561Y-112049415D01*
X145474729Y-112049832D01*
X145490185Y-111997197D01*
X145542989Y-111951442D01*
X145612147Y-111941498D01*
X145673206Y-111969382D01*
X145673214Y-111969372D01*
X145673263Y-111969408D01*
X145675703Y-111970523D01*
X145679604Y-111974155D01*
X145680310Y-111974684D01*
X145680313Y-111974687D01*
X145760214Y-112034500D01*
X145780695Y-112049832D01*
X145789774Y-112056628D01*
X145917886Y-112104412D01*
X145974515Y-112110500D01*
X146515484Y-112110499D01*
X146572114Y-112104412D01*
X146700226Y-112056628D01*
X146809687Y-111974687D01*
X146891628Y-111865226D01*
X146939412Y-111737114D01*
X146941687Y-111715944D01*
X146945499Y-111680501D01*
X146945499Y-111680494D01*
X146945500Y-111680485D01*
X146945499Y-111089516D01*
X146939412Y-111032886D01*
X146891628Y-110904774D01*
X146809687Y-110795313D01*
X146743911Y-110746074D01*
X146700228Y-110713373D01*
X146700226Y-110713372D01*
X146572114Y-110665588D01*
X146572112Y-110665587D01*
X146572110Y-110665587D01*
X146515501Y-110659500D01*
X146515485Y-110659500D01*
X146066544Y-110659500D01*
X145999505Y-110639815D01*
X145978863Y-110623181D01*
X145360213Y-110004531D01*
X145360208Y-110004527D01*
X145280290Y-109958387D01*
X145280289Y-109958386D01*
X145280288Y-109958386D01*
X145191144Y-109934500D01*
X145191143Y-109934500D01*
X143905207Y-109934500D01*
X143881018Y-109932118D01*
X143867855Y-109929500D01*
X143572149Y-109929500D01*
X143558987Y-109932118D01*
X143544183Y-109935061D01*
X143495809Y-109935060D01*
X143467856Y-109929500D01*
X143172149Y-109929500D01*
X143158987Y-109932118D01*
X143144183Y-109935061D01*
X143095809Y-109935060D01*
X143067856Y-109929500D01*
X142772149Y-109929500D01*
X142758987Y-109932118D01*
X142744183Y-109935061D01*
X142695809Y-109935060D01*
X142667856Y-109929500D01*
X142372149Y-109929500D01*
X142358987Y-109932118D01*
X142344183Y-109935061D01*
X142295809Y-109935060D01*
X142267856Y-109929500D01*
X141972149Y-109929500D01*
X141958987Y-109932118D01*
X141944183Y-109935061D01*
X141895809Y-109935060D01*
X141867856Y-109929500D01*
X141572149Y-109929500D01*
X141558987Y-109932118D01*
X141544183Y-109935061D01*
X141495809Y-109935060D01*
X141467856Y-109929500D01*
X141172149Y-109929500D01*
X141172141Y-109929501D01*
X141134083Y-109937070D01*
X141134080Y-109937071D01*
X141090914Y-109965914D01*
X141062070Y-110009081D01*
X141059298Y-110023020D01*
X141041777Y-110061702D01*
X141043594Y-110062751D01*
X140993386Y-110149711D01*
X140969500Y-110238856D01*
X140969500Y-111388456D01*
X140949815Y-111455495D01*
X140933181Y-111476137D01*
X140411137Y-111998181D01*
X140349814Y-112031666D01*
X140323456Y-112034500D01*
X140247525Y-112034500D01*
X140118993Y-112068940D01*
X140107511Y-112072017D01*
X139981988Y-112144488D01*
X139981982Y-112144493D01*
X139879493Y-112246982D01*
X139879488Y-112246988D01*
X139807017Y-112372511D01*
X139807016Y-112372515D01*
X139769500Y-112512525D01*
X139769500Y-112657475D01*
X139801128Y-112775511D01*
X139807017Y-112797488D01*
X139879488Y-112923011D01*
X139879490Y-112923013D01*
X139879491Y-112923015D01*
X139981985Y-113025509D01*
X139981986Y-113025510D01*
X139981988Y-113025511D01*
X140107511Y-113097982D01*
X140107512Y-113097982D01*
X140107515Y-113097984D01*
X140247525Y-113135500D01*
X140247528Y-113135500D01*
X140392473Y-113135500D01*
X140392475Y-113135500D01*
X140432373Y-113124809D01*
X140502220Y-113126470D01*
X140560083Y-113165632D01*
X140584240Y-113212488D01*
X140607015Y-113297484D01*
X140607017Y-113297488D01*
X140679488Y-113423011D01*
X140679490Y-113423013D01*
X140679491Y-113423015D01*
X140781985Y-113525509D01*
X140781986Y-113525510D01*
X140781988Y-113525511D01*
X140907511Y-113597982D01*
X140907512Y-113597982D01*
X140907515Y-113597984D01*
X141047525Y-113635500D01*
X141047528Y-113635500D01*
X141192472Y-113635500D01*
X141192475Y-113635500D01*
X141332485Y-113597984D01*
X141383499Y-113568530D01*
X141451398Y-113552057D01*
X141517426Y-113574909D01*
X141560617Y-113629829D01*
X141569500Y-113675917D01*
X141569500Y-113757475D01*
X141607016Y-113897485D01*
X141607017Y-113897488D01*
X141679488Y-114023011D01*
X141679493Y-114023017D01*
X141733181Y-114076705D01*
X141766666Y-114138028D01*
X141769500Y-114164386D01*
X141769500Y-114688456D01*
X141749815Y-114755495D01*
X141733181Y-114776137D01*
X141336137Y-115173181D01*
X141274814Y-115206666D01*
X141248456Y-115209500D01*
X138705480Y-115209500D01*
X138638441Y-115189815D01*
X138604968Y-115153371D01*
X138603311Y-115154595D01*
X138597792Y-115147117D01*
X138517150Y-115037850D01*
X138407882Y-114957207D01*
X138407880Y-114957206D01*
X138279700Y-114912353D01*
X138249270Y-114909500D01*
X138249266Y-114909500D01*
X137590734Y-114909500D01*
X137590730Y-114909500D01*
X137560300Y-114912353D01*
X137560298Y-114912353D01*
X137432119Y-114957206D01*
X137432117Y-114957207D01*
X137322850Y-115037850D01*
X137242207Y-115147117D01*
X137242206Y-115147119D01*
X137197353Y-115275298D01*
X137197353Y-115275300D01*
X137194500Y-115305730D01*
X137194500Y-115814269D01*
X137197353Y-115844699D01*
X137197353Y-115844701D01*
X137242206Y-115972880D01*
X137242207Y-115972882D01*
X137322850Y-116082150D01*
X137432118Y-116162793D01*
X137470522Y-116176231D01*
X137560299Y-116207646D01*
X137590730Y-116210500D01*
X137590734Y-116210500D01*
X138249270Y-116210500D01*
X138279699Y-116207646D01*
X138279701Y-116207646D01*
X138343790Y-116185219D01*
X138407882Y-116162793D01*
X138517150Y-116082150D01*
X138597793Y-115972882D01*
X138597794Y-115972880D01*
X138603311Y-115965405D01*
X138605285Y-115966862D01*
X138644580Y-115926485D01*
X138705480Y-115910500D01*
X141491142Y-115910500D01*
X141491144Y-115910500D01*
X141580288Y-115886614D01*
X141660212Y-115840470D01*
X142400470Y-115100212D01*
X142446614Y-115020288D01*
X142448052Y-115014920D01*
X142470500Y-114931144D01*
X142470500Y-114164386D01*
X142490185Y-114097347D01*
X142506819Y-114076705D01*
X142560509Y-114023015D01*
X142632984Y-113897485D01*
X142670500Y-113757475D01*
X142670500Y-113630543D01*
X142690185Y-113563504D01*
X142742989Y-113517749D01*
X142812147Y-113507805D01*
X142875703Y-113536830D01*
X142882181Y-113542862D01*
X143133181Y-113793862D01*
X143166666Y-113855185D01*
X143169500Y-113881543D01*
X143169500Y-113957475D01*
X143201448Y-114076705D01*
X143207017Y-114097488D01*
X143279488Y-114223011D01*
X143279493Y-114223017D01*
X143333181Y-114276705D01*
X143366666Y-114338028D01*
X143369500Y-114364386D01*
X143369500Y-115588456D01*
X143349815Y-115655495D01*
X143333181Y-115676137D01*
X142111137Y-116898181D01*
X142049814Y-116931666D01*
X142023456Y-116934500D01*
X135616544Y-116934500D01*
X135549505Y-116914815D01*
X135528863Y-116898181D01*
X135106819Y-116476137D01*
X135092115Y-116449209D01*
X135075523Y-116423391D01*
X135074631Y-116417190D01*
X135073334Y-116414814D01*
X135070500Y-116388456D01*
X135070500Y-116298847D01*
X135090185Y-116231808D01*
X135142989Y-116186053D01*
X135153528Y-116181812D01*
X135207882Y-116162793D01*
X135317150Y-116082150D01*
X135397793Y-115972882D01*
X135420219Y-115908790D01*
X135442646Y-115844701D01*
X135442646Y-115844699D01*
X135445500Y-115814269D01*
X135445500Y-115305730D01*
X135442646Y-115275300D01*
X135442646Y-115275298D01*
X135399981Y-115153371D01*
X135397793Y-115147118D01*
X135317150Y-115037850D01*
X135207882Y-114957207D01*
X135207880Y-114957206D01*
X135079700Y-114912353D01*
X135049270Y-114909500D01*
X135049266Y-114909500D01*
X134390734Y-114909500D01*
X134390730Y-114909500D01*
X134360300Y-114912353D01*
X134360298Y-114912353D01*
X134232119Y-114957206D01*
X134232117Y-114957207D01*
X134122850Y-115037850D01*
X134042207Y-115147117D01*
X134042206Y-115147119D01*
X133997353Y-115275298D01*
X133997353Y-115275300D01*
X133994500Y-115305730D01*
X132245500Y-115305730D01*
X132242646Y-115275300D01*
X132242646Y-115275298D01*
X132199981Y-115153371D01*
X132197793Y-115147118D01*
X132117150Y-115037850D01*
X132007882Y-114957207D01*
X132007880Y-114957206D01*
X131879700Y-114912353D01*
X131849270Y-114909500D01*
X131849266Y-114909500D01*
X131190734Y-114909500D01*
X131190730Y-114909500D01*
X131160300Y-114912353D01*
X131160298Y-114912353D01*
X131032119Y-114957206D01*
X131032117Y-114957207D01*
X130922850Y-115037850D01*
X130842207Y-115147117D01*
X130842206Y-115147119D01*
X130797353Y-115275298D01*
X130797353Y-115275300D01*
X130794500Y-115305730D01*
X130794500Y-115814269D01*
X130797353Y-115844699D01*
X130797353Y-115844701D01*
X130842206Y-115972880D01*
X130842207Y-115972882D01*
X130922850Y-116082150D01*
X131032118Y-116162793D01*
X131086456Y-116181806D01*
X131143231Y-116222527D01*
X131168978Y-116287480D01*
X131169500Y-116298847D01*
X131169500Y-117585500D01*
X131149815Y-117652539D01*
X131097011Y-117698294D01*
X131045504Y-117709500D01*
X131016485Y-117709500D01*
X131016473Y-117709501D01*
X130957608Y-117715828D01*
X130824445Y-117765497D01*
X130710669Y-117850669D01*
X130625498Y-117964443D01*
X130575828Y-118097612D01*
X130569500Y-118156462D01*
X129220497Y-118156462D01*
X129214171Y-118097609D01*
X129164503Y-117964446D01*
X129079331Y-117850669D01*
X129010962Y-117799489D01*
X128965556Y-117765498D01*
X128965554Y-117765497D01*
X128832391Y-117715829D01*
X128832389Y-117715828D01*
X128832387Y-117715828D01*
X128773537Y-117709500D01*
X128773521Y-117709500D01*
X128744500Y-117709500D01*
X128677461Y-117689815D01*
X128631706Y-117637011D01*
X128620500Y-117585500D01*
X128620500Y-116298847D01*
X128640185Y-116231808D01*
X128692989Y-116186053D01*
X128703528Y-116181812D01*
X128757882Y-116162793D01*
X128867150Y-116082150D01*
X128947793Y-115972882D01*
X128970219Y-115908790D01*
X128992646Y-115844701D01*
X128992646Y-115844699D01*
X128995500Y-115814269D01*
X128995500Y-115305730D01*
X128992646Y-115275300D01*
X128992646Y-115275298D01*
X128949981Y-115153371D01*
X128947793Y-115147118D01*
X128867150Y-115037850D01*
X128757882Y-114957207D01*
X128757880Y-114957206D01*
X128629700Y-114912353D01*
X128599270Y-114909500D01*
X128599266Y-114909500D01*
X127940734Y-114909500D01*
X127940730Y-114909500D01*
X127910300Y-114912353D01*
X127910298Y-114912353D01*
X127782119Y-114957206D01*
X127782117Y-114957207D01*
X127672850Y-115037850D01*
X127592207Y-115147117D01*
X127592206Y-115147119D01*
X127547353Y-115275298D01*
X127547353Y-115275300D01*
X127544500Y-115305730D01*
X127544500Y-115814269D01*
X127547353Y-115844699D01*
X127547353Y-115844701D01*
X127592206Y-115972880D01*
X127592207Y-115972882D01*
X127672850Y-116082150D01*
X127782118Y-116162793D01*
X127836456Y-116181806D01*
X127893231Y-116222527D01*
X127918978Y-116287480D01*
X127919500Y-116298847D01*
X127919500Y-117585500D01*
X127899815Y-117652539D01*
X127847011Y-117698294D01*
X127795504Y-117709500D01*
X127766485Y-117709500D01*
X127766473Y-117709501D01*
X127707608Y-117715828D01*
X127574445Y-117765497D01*
X127460669Y-117850669D01*
X127375498Y-117964443D01*
X127325828Y-118097612D01*
X127319500Y-118156462D01*
X125270500Y-118156462D01*
X125270500Y-92885862D01*
X125290185Y-92818823D01*
X125306819Y-92798181D01*
X125583181Y-92521819D01*
X125644504Y-92488334D01*
X125670862Y-92485500D01*
X140475706Y-92485500D01*
X140542745Y-92505185D01*
G37*
%TD.AperFunction*%
%TA.AperFunction,Conductor*%
G36*
X144542174Y-92507174D02*
G01*
X144673398Y-92638398D01*
X144695072Y-92690548D01*
X144719929Y-103130206D01*
X144699405Y-103181530D01*
X143091855Y-104862151D01*
X143040026Y-104884982D01*
X143038382Y-104885000D01*
X142518503Y-104885000D01*
X142507972Y-104884247D01*
X142474960Y-104879500D01*
X142474956Y-104879500D01*
X141165044Y-104879500D01*
X141165038Y-104879500D01*
X141160834Y-104879575D01*
X141155923Y-104879663D01*
X141153993Y-104879731D01*
X141147080Y-104879978D01*
X141147078Y-104879978D01*
X141134404Y-104882499D01*
X141128982Y-104883578D01*
X141114548Y-104885000D01*
X138925810Y-104885000D01*
X138915279Y-104884247D01*
X138882267Y-104879500D01*
X138882263Y-104879500D01*
X136626775Y-104879500D01*
X136613126Y-104879865D01*
X136613111Y-104879865D01*
X136613103Y-104879866D01*
X136612603Y-104879893D01*
X136608647Y-104879999D01*
X136031347Y-104879999D01*
X136027435Y-104879895D01*
X136026891Y-104879866D01*
X136013229Y-104879500D01*
X136013214Y-104879500D01*
X135667700Y-104879500D01*
X135615374Y-104857826D01*
X135612458Y-104854737D01*
X135025308Y-104195984D01*
X133697717Y-102706491D01*
X133681543Y-102690653D01*
X133672946Y-102682234D01*
X133672939Y-102682228D01*
X133647411Y-102660420D01*
X133641775Y-102655743D01*
X133641772Y-102655741D01*
X133641769Y-102655739D01*
X133553443Y-102609535D01*
X133486405Y-102589850D01*
X133486397Y-102589849D01*
X133414420Y-102579500D01*
X133414416Y-102579500D01*
X130794000Y-102579500D01*
X130741674Y-102557826D01*
X130720000Y-102505500D01*
X130720000Y-102109000D01*
X130741674Y-102056674D01*
X130794000Y-102035000D01*
X133120000Y-102035000D01*
X133470000Y-101710000D01*
X133470000Y-98860000D01*
X132395000Y-97860000D01*
X132394999Y-97859999D01*
X131978088Y-97853777D01*
X131964756Y-97852363D01*
X131936519Y-97846746D01*
X131913461Y-97842160D01*
X131200288Y-97842160D01*
X131199184Y-97842152D01*
X130792896Y-97836088D01*
X130740899Y-97813635D01*
X130720000Y-97762096D01*
X130720000Y-97364500D01*
X130741674Y-97312174D01*
X130794000Y-97290500D01*
X133942611Y-97290500D01*
X133992389Y-97309744D01*
X134412660Y-97691808D01*
X134412671Y-97691817D01*
X134412673Y-97691819D01*
X134428993Y-97705458D01*
X134445363Y-97718018D01*
X134445367Y-97718021D01*
X134528915Y-97760465D01*
X134534470Y-97762096D01*
X134595949Y-97780149D01*
X134595951Y-97780149D01*
X134595954Y-97780150D01*
X134667939Y-97790500D01*
X134667945Y-97790500D01*
X140468620Y-97790500D01*
X140468638Y-97790500D01*
X140495952Y-97789036D01*
X140522310Y-97786202D01*
X140604504Y-97760465D01*
X140617435Y-97756416D01*
X140617436Y-97756415D01*
X140617444Y-97756413D01*
X140678767Y-97722928D01*
X140736985Y-97679347D01*
X140736991Y-97679341D01*
X140738410Y-97678112D01*
X140738858Y-97677943D01*
X140739100Y-97677763D01*
X140739152Y-97677833D01*
X140786581Y-97660033D01*
X140795000Y-97660000D01*
X141195000Y-97260000D01*
X141170004Y-94860384D01*
X141170000Y-94859613D01*
X141170000Y-92698771D01*
X141191674Y-92646445D01*
X141201872Y-92637934D01*
X141403050Y-92498658D01*
X141445171Y-92485500D01*
X144489848Y-92485500D01*
X144542174Y-92507174D01*
G37*
%TD.AperFunction*%
%TA.AperFunction,Conductor*%
G36*
X155818420Y-98814074D02*
G01*
X155826332Y-98823419D01*
X156106238Y-99215712D01*
X156120000Y-99258693D01*
X156120000Y-101604348D01*
X156098326Y-101656674D01*
X155941674Y-101813326D01*
X155889348Y-101835000D01*
X154725623Y-101835000D01*
X154673297Y-101813326D01*
X154432174Y-101572203D01*
X154410500Y-101519877D01*
X154410500Y-101024053D01*
X154432174Y-100971727D01*
X154470063Y-100951475D01*
X154493231Y-100946867D01*
X154559552Y-100902552D01*
X154603867Y-100836231D01*
X154615500Y-100777748D01*
X154615500Y-99468252D01*
X154603867Y-99409769D01*
X154559552Y-99343448D01*
X154537343Y-99328608D01*
X154493232Y-99299133D01*
X154493233Y-99299133D01*
X154463989Y-99293316D01*
X154434748Y-99287500D01*
X153785252Y-99287500D01*
X153756010Y-99293316D01*
X153726767Y-99299133D01*
X153660449Y-99343447D01*
X153660447Y-99343449D01*
X153616133Y-99409767D01*
X153604500Y-99468253D01*
X153604500Y-100777746D01*
X153616133Y-100836232D01*
X153645500Y-100880181D01*
X153660448Y-100902552D01*
X153704560Y-100932027D01*
X153726767Y-100946866D01*
X153726769Y-100946867D01*
X153749936Y-100951475D01*
X153797028Y-100982940D01*
X153809500Y-101024053D01*
X153809500Y-101714563D01*
X153816811Y-101741846D01*
X153809420Y-101797999D01*
X153764487Y-101832478D01*
X153745333Y-101835000D01*
X151480209Y-101835000D01*
X151427883Y-101813326D01*
X151415521Y-101796937D01*
X151279312Y-101551760D01*
X151270000Y-101515823D01*
X151270000Y-99256712D01*
X151281732Y-99216729D01*
X151532357Y-98826417D01*
X151578867Y-98794097D01*
X151594625Y-98792400D01*
X155766094Y-98792400D01*
X155818420Y-98814074D01*
G37*
%TD.AperFunction*%
%TA.AperFunction,Conductor*%
G36*
X154266342Y-92509915D02*
G01*
X154316127Y-92529366D01*
X154571304Y-92763279D01*
X154595230Y-92814614D01*
X154595297Y-92817143D01*
X154644712Y-98153947D01*
X154623523Y-98206471D01*
X154623041Y-98206958D01*
X154341674Y-98488326D01*
X154289348Y-98510000D01*
X151070000Y-98510000D01*
X150745000Y-98835000D01*
X150745000Y-102680831D01*
X150725098Y-102731322D01*
X150416941Y-103061491D01*
X150365393Y-103084956D01*
X150362843Y-103085000D01*
X146154322Y-103085000D01*
X146101996Y-103063326D01*
X146097831Y-103058800D01*
X146033604Y-102982895D01*
X145862331Y-102780482D01*
X145844825Y-102733166D01*
X145820000Y-98910000D01*
X145770268Y-92817910D01*
X145791515Y-92765411D01*
X145794244Y-92762775D01*
X146048879Y-92529360D01*
X146098649Y-92509910D01*
X150057500Y-92497500D01*
X154266342Y-92509915D01*
G37*
%TD.AperFunction*%
%TA.AperFunction,Conductor*%
G36*
X177734940Y-92507174D02*
G01*
X177736501Y-92508783D01*
X177743753Y-92516488D01*
X178399887Y-93213630D01*
X178420000Y-93264346D01*
X178420000Y-106456215D01*
X178400549Y-106506219D01*
X177891996Y-107061003D01*
X177840661Y-107084929D01*
X177837447Y-107084999D01*
X176650651Y-107084999D01*
X176598326Y-107063325D01*
X176319999Y-106784999D01*
X176041674Y-106506673D01*
X176020000Y-106454347D01*
X176020000Y-98835000D01*
X175070000Y-97885000D01*
X162057500Y-97885000D01*
X161220000Y-98722500D01*
X161220000Y-101204348D01*
X161198326Y-101256674D01*
X160591674Y-101863326D01*
X160539348Y-101885000D01*
X158045213Y-101885000D01*
X157994860Y-101865227D01*
X157343647Y-101260528D01*
X157320051Y-101209040D01*
X157320000Y-101206301D01*
X157320000Y-99022500D01*
X156782500Y-98485000D01*
X155204660Y-98485000D01*
X155152334Y-98463326D01*
X155147812Y-98458374D01*
X154937152Y-98205582D01*
X154920000Y-98158208D01*
X154920000Y-92858714D01*
X154933784Y-92815702D01*
X155147509Y-92516488D01*
X155195560Y-92486507D01*
X155207725Y-92485500D01*
X177682614Y-92485500D01*
X177734940Y-92507174D01*
G37*
%TD.AperFunction*%
M02*
